<?xml version="1.0" standalone="no"?>
<!DOCTYPE svg PUBLIC "-//W3C//DTD SVG 1.1//EN" "http://www.w3.org/Graphics/SVG/1.1/DTD/svg11.dtd" >
<svg>
<metadata>
Created by FontForge 20110222 at Sun Feb  9 03:52:51 2014
 By Orthosie Webhosting
Copyright (c) 2011 by Tyler Finck. All rights reserved.
</metadata>
<defs>
<font id="KnewaveRegular" horiz-adv-x="649" >
  <font-face 
    font-family="KnewaveRegular"
    font-weight="400"
    font-stretch="normal"
    units-per-em="1000"
    panose-1="2 0 8 6 0 0 0 2 0 3"
    ascent="800"
    descent="-200"
    x-height="462"
    cap-height="778"
    bbox="-262.077 -371 1097.3 1151.17"
    underline-thickness="50"
    underline-position="-50"
    unicode-range="U+000D-2212"
  />
<missing-glyph horiz-adv-x="312" 
 />
    <glyph glyph-name=".notdef" horiz-adv-x="312" 
 />
    <glyph glyph-name=".null" horiz-adv-x="0" 
 />
    <glyph glyph-name="nonmarkingreturn" unicode="&#xd;" horiz-adv-x="425" 
 />
    <glyph glyph-name="NULL" horiz-adv-x="0" 
 />
    <glyph glyph-name="NULL" horiz-adv-x="0" 
 />
    <glyph glyph-name="space" unicode=" " horiz-adv-x="425" 
 />
    <glyph glyph-name="exclam" unicode="!" horiz-adv-x="380" 
d="M587 741q2 -12 4 -15.5t3 -4.5q5 -4 5 -6t-8 -10q-7 -11 -16.5 -25t-20.5 -27q-11 -14 -22.5 -27.5t-20.5 -30.5v1q-59 -88 -94.5 -158.5t-61.5 -125.5t-48 -96t-51 -70v1l-2 -1q-12 -17 -36.5 -26t-50.5 -9q-18 0 -35 4t-29 11t-17 17.5t1 23.5q12 41 25.5 76t28.5 67
t31.5 62.5t34.5 62.5q13 23 26.5 47t26.5 51q9 16 24 40.5t34 52.5t40.5 57t43 53.5t42 42.5t36.5 24q34 14 66 14q24 0 40 -8.5t14 -28.5q0 -8 -3 -17.5t-9 -18.5zM220 -36q-19 -42 -59.5 -62t-80.5 -20q-35 0 -61 15.5t-27 45.5q-1 16 5 30.5t15.5 26t22.5 19.5t27 12
q17 5 39.5 8.5t43.5 3.5q18 0 34 -2.5t28.5 -8t19.5 -14t6 -20.5q0 -8 -3.5 -16t-8.5 -18h-1z" />
    <glyph glyph-name="quotedbl" unicode="&#x22;" horiz-adv-x="468" 
d="M522 703q5 28 17 48.5t28.5 34t35.5 20t37 6.5q30 0 53 -20t21 -58q-1 -9 -2.5 -19t-6.5 -22q-7 -38 -29.5 -70t-46.5 -61l-27 -31q-11 -16 -28.5 -25t-32.5 -9q-18 0 -29 13t-4 45q3 18 4.5 36.5t3.5 38.5q1 31 6 74v-1zM272 537q-5 19 -7 37t-1 35q2 40 16.5 75t36 61
t46.5 40.5t48 14.5q25 0 44.5 -23.5t23.5 -71.5q-2 -12 -7.5 -24t-12 -24t-13 -22.5t-10.5 -18.5q-6 -15 -12 -29.5t-10 -19.5v1l-49 -57q-11 -15 -27.5 -23.5t-31.5 -8.5q-18 0 -29.5 13t-5.5 42z" />
    <glyph glyph-name="numbersign" unicode="#" horiz-adv-x="843" 
d="M714 309q14 -4 34 -2q11 1 20.5 0.5t17.5 -8.5q3 -3 3 -9.5v-14.5q0 -5 -0.5 -10t0.5 -7q21 -21 20 -45q-1 -15 -8.5 -29t-21 -24t-31.5 -15t-40 -3q-9 0 -18.5 0.5t-18.5 0.5q-10 0 -19.5 -0.5t-18.5 -0.5t-17.5 -0.5t-18.5 -0.5q-12 0 -26 0.5t-25 1.5l-47 -98
q-11 -10 -25.5 -16.5t-26.5 -6.5q-18 0 -31 11t-9 37v1q5 28 11 58q-14 2 -21 2h-12q-12 0 -24 -0.5t-24 -1.5t-23 -1h-22h-36l-21 -31q-14 -19 -29 -43.5t-23 -50.5q-12 -11 -29 -17.5t-30 -6.5q-17 0 -27 8.5t-8 28.5q8 25 17.5 52.5t17.5 50.5q-15 -3 -21.5 -4t-8 -1.5
t-1 -0.5h0.5q-6 -3 -10 -3.5t-18 -1.5q-16 -1 -26 7t-9 22q0 11 10 25.5t33 30.5q9 7 15.5 11.5t12.5 6.5t13 3.5t16 3.5l31 7q10 32 24.5 72t27.5 75q-16 -2 -30 -3t-26 -1q-22 0 -41.5 3t-32.5 11h1q-14 14 -6.5 26.5t27.5 27.5h-1q34 17 70 30.5t84 24.5l20 44
q14 34 31 74t33 68q30 48 75 73.5t85 25.5q36 0 61 -20t23 -57q-2 -26 -17 -57l1 1l-63 -92l93 25q4 8 7 15.5t6 12.5q8 12 15.5 25.5t12.5 35.5v-1q13 34 37.5 58t53 39t58.5 21.5t55 6.5q22 0 38 -4t26.5 -14t9.5 -26q-2 -19 -22 -42q-5 -20 -18 -44.5t-32 -50.5l33 -4
l14 -4q14 -5 24.5 -9.5t21.5 -15.5q2 -2 6 -5.5t9 -6.5q8 -6 9.5 -16t-14.5 -33q13 -28 11 -57q-2 -31 -21 -54t-46 -31q-2 0 -2 -0.5t-1 -0.5q-11 -1 -23 -0.5t-33 2t-55 4t-88 6.5q-4 -5 -9.5 -13.5t-13.5 -17.5q-8 -8 -14 -16.5t-13 -22.5q17 0 37.5 -1t33.5 -3zM330 261
q32 8 72 17t72 14l23 49l27 55l-121 -6z" />
    <glyph glyph-name="dollar" unicode="$" horiz-adv-x="601" 
d="M531 864q11 14 30 25.5t41 19.5t46 12t46 4q33 0 56.5 -10.5t22.5 -33.5q-1 -7 -2.5 -13.5t-6.5 -14.5v2q-7 -6 -12 -14.5t-12.5 -20.5t-20 -27.5t-34.5 -34.5l31 -5q11 0 22.5 -5t21.5 -11.5t19 -14t16 -12.5l9 -8h-1q8 -8 10.5 -13.5t2.5 -8.5q0 -6 -7.5 -11t-18.5 -12
t-24 -18.5t-24 -30.5v-11q-1 -10 -4 -21.5t-11 -22.5t-22.5 -20.5t-38.5 -14.5q-41 -8 -83.5 -7t-77 -1.5t-57 -14.5t-24.5 -45q-1 -13 10.5 -25t29 -25.5t37.5 -28.5t37.5 -34t28 -42t9.5 -52q-1 -21 -15.5 -54.5t-44.5 -69.5t-75 -69.5t-108 -54.5l-26 -31q-8 -8 -13 -17
t-11 -17l-33 -43q-7 -17 -19.5 -32t-27 -26.5t-30.5 -18.5t-31 -7q-28 0 -41 30q0 3 0.5 5t0.5 4l25 129q-33 4 -56.5 16t-38 28.5t-20.5 36.5t-5 41q1 28 11 46.5t27 29t40.5 14.5t51.5 4h30q6 0 12.5 -0.5t13.5 -0.5q18 0 35 1.5t32 6.5h-1q61 16 84 25t24 17
q0 4 -13.5 11.5t-34.5 19t-44.5 28t-43.5 40t-32.5 54.5t-10.5 72q0 25 9 54q19 64 56.5 107t80.5 70t86 41t73 22l13 53l3 13.5t3.5 10t6.5 12.5t12 20z" />
    <glyph glyph-name="percent" unicode="%" horiz-adv-x="986" 
d="M511 190l-6 7l-40 -37q-48 -45 -95 -90t-95 -86l-25 -18l-20 -21h1q-20 -13 -43.5 -21t-44.5 -8q-16 0 -27.5 6.5t-15.5 20.5q-20 5 -18 24q1 13 9.5 30.5t22.5 36t32 38t38 36.5q11 8 18 15t13 14q4 5 9 11t14 15t23.5 21.5t37.5 30.5l151 126l-4 9q-23 -11 -44.5 -15.5
t-41.5 -4.5q-24 0 -47 7.5t-41 21.5t-30 33t-15 43v33q3 53 24 93t52.5 68t70 44t76.5 22h3q1 0 3 0.5t4 0.5q26 10 50 16t45 6q31 0 58 -13q30 -14 37.5 -31.5t1.5 -35.5q17 -24 20 -57v-26l29 32l41 43q19 20 40.5 44t44.5 45q4 4 2 10t-5 12q-2 4 -3.5 8t-0.5 5
q13 21 32.5 36.5t42.5 26t48 15.5t48 5q24 0 44.5 -5.5t34 -16.5t18 -28t-3.5 -39l1 1q-50 -80 -123 -148.5t-151 -132.5l-73 -61l-14 -12l6 -8q27 9 50 9q32 0 68.5 -14.5t71.5 -45.5q21 -20 30.5 -44.5t7.5 -49.5q-2 -29 -13.5 -58t-30 -56.5t-41.5 -51t-46 -39.5
q-36 -23 -82 -34.5t-85 -17.5q-12 -2 -17.5 -2t-12.5 2q-3 0 -7.5 1t-7.5 1q-27 5 -50 13t-41 20.5t-29.5 32t-15.5 48.5q1 13 5.5 29.5t11.5 27.5q1 3 3 7.5t4 7.5l-1 -1zM820 189q1 2 1.5 2t1 1.5t2 6.5t4.5 17l-42 -12q-4 0 -14 -2q-6 -1 -11.5 -2t-10.5 -1l-10 -7l-3 -2
l-17 -9q-12 -8 -30 -21t-31.5 -28t-17 -31t14.5 -30q16 -13 38.5 -4.5t45 27t43 43.5t33.5 45zM445 521q-32 -31 -75 -44q0 -1 -0.5 -2.5t-0.5 -3.5q-2 -7 -2 -15t5 -16q22 0 44 6.5t40.5 19t32.5 31t19 42.5l-22 -6q-20 -5 -39 -11z" />
    <glyph glyph-name="ampersand" unicode="&#x26;" horiz-adv-x="722" 
d="M637 -13q24 6 33 6q11 0 12 -7q-2 -11 -18 -27.5t-39 -32.5t-50 -27t-51 -11q-21 0 -33.5 9.5t-20.5 23t-13.5 28t-14.5 23.5q-26 -16 -55 -30t-58.5 -25t-58.5 -17.5t-54 -6.5q-5 0 -11 0.5t-11 1.5q-84 13 -128 49t-40 102q2 23 10.5 55t25.5 70h-1q20 36 50.5 69
t65.5 62.5t72.5 56t72.5 49.5q3 68 23 125t49.5 102t66 78t73.5 52q26 16 64.5 26t76.5 10q26 0 50 -5.5t42 -18t28 -32t9 -47.5q-1 -25 -15.5 -61.5t-47 -78.5t-83.5 -88t-126 -91q-1 -5 -1 -9t-1 -9q-2 -47 9 -87.5t18 -83.5q12 10 22 22.5t20 22.5t22 17t29 7q7 0 12 -4
q8 0 14.5 3.5t13.5 8t14.5 8.5t18.5 4q14 0 26 -5t12 -13q-2 -9 -9.5 -21.5t-15.5 -23.5q-26 -45 -57 -87t-73 -78q8 -14 11 -24t7 -20l6 -17zM323 220q-28 -27 -43.5 -46t-16.5 -40q-2 -26 16.5 -39t42.5 -13q12 0 22.5 1.5t33.5 1.5q-5 13 -10.5 22.5t-11.5 23t-12 33.5
t-11 53zM641 640q2 10 -4.5 14.5t-14.5 4.5q-11 0 -28.5 -11t-35 -27.5t-30.5 -36.5t-16 -38v-11t4 -17q16 17 34.5 28t36 22.5t32 27.5t22.5 44z" />
    <glyph glyph-name="quotesingle" unicode="'" horiz-adv-x="260" 
d="M305 724q5 28 17 48.5t28.5 34t35.5 20.5t37 7q30 0 52.5 -19.5t20.5 -57.5q0 -19 -9 -43q-5 -37 -27.5 -68.5t-46.5 -60.5l-28 -33q-11 -15 -28 -24t-33 -9q-17 0 -27.5 13t-4.5 44q3 19 4 36.5t3 37.5q1 18 2.5 36t3.5 39v-1z" />
    <glyph glyph-name="parenleft" unicode="(" horiz-adv-x="279" 
d="M35 203q47 159 108 271.5t122.5 183.5t115.5 104t86 33q17 0 29 -13q25 29 54 41.5t55 12.5q32 0 55 -12.5t22 -30.5q-1 -9 -9.5 -20.5t-28.5 -22.5q-79 -50 -148.5 -107t-127.5 -127.5t-104 -159t-79 -200.5q-10 -34 -14.5 -64t-6.5 -57q-2 -32 0 -58t4 -46q3 -27 3 -45
q-2 -21 -13.5 -31t-44.5 -13q-31 0 -50.5 19t-30.5 50.5t-14 72t-1 83.5q2 35 6.5 70t11.5 66z" />
    <glyph glyph-name="parenright" unicode=")" horiz-adv-x="437" 
d="M-93 -72q94 61 165.5 151.5t122.5 194.5t82 214.5t45 211.5q6 34 21 60.5t34 45.5t41 29t43 10q35 0 59.5 -25.5t21.5 -79.5q0 -14 -3 -30q-2 -15 -6 -31.5t-9 -33.5q-2 -10 -4.5 -19.5t-4.5 -17.5q-13 -68 -43.5 -145.5t-72 -154.5t-91 -149t-99.5 -128q-32 -36 -70 -77
t-74.5 -72t-67.5 -44.5t-47 6.5q-17 -10 -31 -14t-25 -4q-20 0 -30 11t-9 26q2 17 14 34.5t37 30.5h1z" />
    <glyph glyph-name="asterisk" unicode="*" horiz-adv-x="568" 
d="M713 690q11 1 22.5 1h23.5q16 0 37 -2.5t40 -8.5t31 -16t10 -26q-2 -12 -16.5 -23.5t-34 -21t-42 -16.5t-41.5 -10q-60 -14 -119 -30t-94 -32q18 -20 38.5 -43.5t40.5 -48t38 -49.5t32 -46q1 -3 1.5 -6.5t-0.5 -5.5q-2 -10 -9.5 -13.5t-18.5 -3.5q-23 0 -38.5 7.5
t-31.5 18.5q-23 15 -48.5 33.5t-46.5 35.5l-8 -20l-8 -20q-1 -2 -2 -5t-1 -5q-6 -23 -13.5 -48t-18.5 -36q-36 -36 -86 -36q-21 0 -39.5 6.5t-32.5 17.5t-21.5 27t-4.5 35q2 18 14 40t26 42l10 24l-61 -14q-12 0 -27 2.5t-28 7.5t-21.5 12t-7.5 16q1 10 15.5 21.5t34.5 23
t43 22t41 18.5l22 11l-28 10q-13 5 -29.5 10t-32.5 12q-32 10 -42 26t-8 32q2 15 12 26t21 11q5 0 13 -9q17 33 40.5 46.5t48.5 13.5q19 0 38 -6t35 -17t27.5 -28t15.5 -38q45 69 85 119t82 96q23 27 53 27q17 0 29 -9.5t9 -27.5q-1 -13 -9 -25v1q-12 -19 -22 -34.5
t-19 -30.5t-17.5 -32t-17.5 -39q27 11 48 16.5t40 8.5l29 5h-1z" />
    <glyph glyph-name="plus" unicode="+" horiz-adv-x="507" 
d="M366 330q-23 -54 -40 -84.5t-30 -46.5t-24 -21.5t-23 -8.5q-8 -2 -15 -4.5t-14 -5.5q-30 -12 -52 -12q-27 0 -45.5 15t-16.5 43q2 23 20 56q5 11 10 19.5t8 14.5l14 26q-1 0 -5.5 1t-6.5 1l-4 4t-4 7q-6 4 -8.5 9t-4.5 10l-16 9q-15 8 -29.5 16t-25.5 18q-12 16 -11 27
q0 11 16.5 21.5t36.5 17.5q8 2 16 2t19.5 -1.5t28 -4t42.5 -5.5q8 -2 18.5 -3t23.5 -2q26 45 48.5 86.5t39.5 78.5q-2 6 -1 14.5t3 16.5q13 15 30.5 27t37.5 21t41 13.5t42 3.5q16 2 31.5 1t26 -6.5t14 -16t-4.5 -25.5l9 -12q2 -5 5 -9t3 -6q-14 -26 -35.5 -51t-41.5 -48
l-30 -34t-26 -32q-2 -8 -11 -20q2 0 7.5 0.5t7.5 0.5q24 2 49.5 4t54.5 7h-1q15 1 30 -1t27.5 -6.5t20 -11.5t7.5 -15q-2 -16 -45 -35q-17 -2 -48 -9t-60 -15l-64 -16q-1 0 -2 -0.5t-2 -0.5q-7 -2 -16 -5.5t-23 -14.5z" />
    <glyph glyph-name="comma" unicode="," horiz-adv-x="298" 
d="M138 96q37 4 69.5 -13.5t49.5 -52.5q2 -5 2.5 -9.5t0.5 -10.5q0 -5 -0.5 -11.5t-1.5 -11.5q-8 -22 -27.5 -44t-42.5 -39q-32 -31 -70.5 -53t-73.5 -22q-14 0 -29 5.5t-26 16.5q-4 11 -2 18t9 19v1q4 9 16 23.5t25 28.5v-1l11 14l-8 10h-1l-18 18l1 -4l-2 7q-3 8 -4 15.5
t-1 13.5q1 19 12 34t28 25.5t38.5 16t44.5 6.5zM32 -39l5 2zM39 -36q0 -1 -2 -1h3z" />
    <glyph glyph-name="hyphen" unicode="-" horiz-adv-x="598" 
d="M282 250q-7 0 -23 -0.5t-35.5 -1t-40 1t-37.5 6t-27.5 13t-9.5 22.5q1 11 17 24.5t47 24.5l20 2q12 26 50 49.5t104 31.5h-1q9 1 34 1.5t57 0.5h31t32 -1q8 2 16.5 3.5t22.5 1.5q49 1 84 -15.5t34 -45.5q-1 -14 -11.5 -31t-35.5 -37l1 1q-4 -2 -9.5 -4t-20.5 -10v1
q-11 -5 -21 -9t-20 -7q-45 -14 -90.5 -19t-91.5 -5q-19 0 -38 0.5t-38 1.5z" />
    <glyph glyph-name="period" unicode="." horiz-adv-x="245" 
d="M33 -109q-21 11 -29.5 24t-6.5 29q1 18 13.5 37t31.5 35.5t41.5 28.5t43.5 17q10 2 17 2.5t13 0t12.5 -2t14.5 -3.5q2 0 4 -1q0 -2 5 -4q13 -13 18 -26.5t5 -26.5q-1 -18 -11.5 -35t-26 -31.5t-35 -25.5t-38.5 -17q-21 -5 -31 -5.5t-24 1.5l-15 2l-1 1h-1z" />
    <glyph glyph-name="slash" unicode="/" horiz-adv-x="577" 
d="M502 649q21 30 42.5 60t47.5 58q2 23 30.5 44t85.5 32h6q21 -1 39.5 -4.5t33 -11t24.5 -21t15 -34.5q-2 -16 -14.5 -31t-25.5 -28q-2 -1 -3 -2q-2 -1 -2.5 -2t-1.5 -2q2 -13 -4 -30t-23 -35q-42 -34 -78 -71t-71 -75l-16 -18l-16 -18q-59 -64 -118.5 -136.5
t-118.5 -144.5q-80 -97 -162 -195t-165 -180v1q-11 -12 -23 -12q-10 0 -20 5t-18 13.5t-12.5 20.5t-3.5 27q1 14 7 30.5t20 33.5q75 121 155.5 227t165.5 212q47 57 94 116t94 123l36 48v0z" />
    <glyph glyph-name="zero" unicode="0" horiz-adv-x="679" 
d="M295 671q16 23 44 46t61 41t69.5 29.5t71.5 11.5q37 0 66 -13q14 -7 21.5 -11.5t11 -8t3.5 -7.5t-1 -9q-1 -3 -2 -9.5t-2 -17.5q35 13 55 13q41 0 57 -35t14 -90q-2 -42 -13.5 -90.5t-30 -97.5t-43 -96t-51.5 -84q-33 -61 -74.5 -112.5t-80 -88t-69 -56.5t-40.5 -18
q-12 -2 -20.5 -4.5t-16.5 -4.5q-12 -3 -21 -4t-24 -2q1 2 -1.5 -0.5l-3.5 -3.5l-3 -3l-32 -9q-5 -12 -21.5 -18.5t-39.5 -6.5q-17 0 -34 3.5t-33 10t-28.5 17t-18.5 24.5q-8 26 -12 56.5t-2 62.5q1 40 15 96q19 81 40.5 143.5t48 118.5t61 110t79.5 117zM454 563
q-26 -38 -56.5 -92t-58 -114t-48 -121t-25.5 -114q2 0 5.5 0.5t4.5 0.5q27 32 55.5 69.5t55.5 77.5t51.5 79.5t44.5 75.5q9 17 20 40t21 48t17 49t8 42q1 11 -1 20t-9 16q-6 -6 -5 -6l-4.5 4.5t-10.5 1.5q-17 -17 -30 -33t-24 -30z" />
    <glyph glyph-name="one" unicode="1" horiz-adv-x="410" 
d="M494 796q33 0 56.5 -16.5t24.5 -51.5q-5 -15 -15.5 -32t-24.5 -37q2 -13 7 -24.5t4 -25.5q0 -7 -3 -16l-51 -73q-23 -36 -48 -71.5t-47 -71.5l-22 -37q-15 -26 -32.5 -54.5l-35 -57t-33.5 -55.5t-28 -49l-18 -39q-20 -42 -40 -80.5t-45 -75.5v-2q-13 -18 -35.5 -28.5
t-45.5 -10.5q-25 0 -44.5 11.5t-17.5 33.5q0 19 9.5 38.5t15.5 36.5l15 43v-1q40 106 87 215t101 222q-42 6 -61.5 26.5t-18.5 37.5q1 22 15.5 36t34.5 24t41 18.5t35 18.5q26 19 52 44.5t52.5 48.5t55 39t60.5 16z" />
    <glyph glyph-name="two" unicode="2" horiz-adv-x="555" 
d="M421 546q-7 -17 -23.5 -29.5t-37.5 -21.5t-45 -13.5t-46 -4.5q-18 0 -34 3t-27.5 9.5t-18 16.5t-5.5 24q1 9 4.5 18t8.5 20v-1q36 49 75 92.5t83 76.5t95.5 52t113.5 19q35 0 68.5 -10t59.5 -29t41 -45.5t13 -59.5q-2 -38 -23 -79.5t-51.5 -82t-66 -78.5t-66.5 -69
q-50 -51 -109.5 -98t-120.5 -95l-38 -29q26 2 46 3.5t34 1.5q74 0 108.5 -12.5t32.5 -41.5q-1 -15 -7.5 -33.5t-17 -37.5t-25 -35.5t-30.5 -27.5q-12 -10 -40 -18.5t-64.5 -14.5t-78 -9.5t-80.5 -3.5q-32 0 -61 2t-50 7t-33.5 13t-11.5 19q0 7 3.5 15t3.5 14q0 7 -2.5 13
t-5.5 12t-5 12.5t-2 15.5q1 16 13 36t28.5 39t33.5 35.5t28 26.5l35 31q32 29 64 59.5t64 57.5q39 34 83.5 72t83.5 79.5t67 86.5t34 93q-24 -23 -38 -33.5t-23 -18t-16.5 -16.5t-19.5 -28h-1z" />
    <glyph glyph-name="three" unicode="3" horiz-adv-x="607" 
d="M244 286q-26 8 -24 29q1 19 18 42.5t46 45.5q23 21 58 47t71 55t66.5 60.5t44.5 61.5q-65 -15 -106.5 -29.5t-64.5 -14.5q-8 0 -16.5 2.5t-14.5 9t-10 17.5t-3 28q1 19 11 37.5t34 23.5q12 2 18.5 9t13.5 15.5t16.5 16t27.5 11.5l33 12q38 14 82.5 26.5t83.5 13.5
q25 0 47 -8t38.5 -23.5t25.5 -38t8 -50.5q-2 -29 -15 -66t-41 -79q-28 -33 -61.5 -59.5t-81.5 -56.5l-32 -20q55 -6 78 -36t21 -73q-2 -49 -29.5 -108.5t-71.5 -115.5q-30 -38 -76.5 -66.5t-99 -47.5t-106 -28.5t-96.5 -9.5q-70 0 -104 22.5t-32 61.5q1 19 10.5 37.5
t23.5 33.5t31 24.5t33 9.5q11 0 22 -6q16 0 33 -2.5t30 -2.5q23 0 49.5 7t72.5 28q16 7 35.5 21t36 30.5t28 33t11.5 28.5q1 11 -6.5 18t-27.5 7h-16q-21 0 -53 2t-70 14z" />
    <glyph glyph-name="four" unicode="4" horiz-adv-x="624" 
d="M365 -17q-21 -50 -51.5 -72.5t-62.5 -22.5q-25 0 -45.5 13.5t-31.5 42.5q0 3 2 10.5t5 16t5 16t2 9.5q-5 6 -13.5 8t-16.5 4.5t-13.5 5.5t-5.5 11q20 38 36 78.5t44 75.5l22 40l-36 -2q-17 -1 -31 -3t-27 -1q-25 0 -44.5 9t-33 23t-20 32t-5.5 35q1 23 21 52t63 74
q53 55 98.5 99.5t92 84.5t98 79t117.5 83q17 12 44 19.5t47 7.5q35 0 60 -13t30 -46l-3 -9q15 -14 15 -33q-1 -15 -11.5 -32.5t-24.5 -35.5t-27.5 -34.5t-19.5 -27.5l-37 -81q-14 -29 -23 -52t-22 -49q4 -1 11 -1q23 0 45 8t34 8q4 0 5.5 -6.5t0.5 -16.5q-3 -59 -16 -84.5
t-33.5 -33.5t-47.5 -6.5t-58 -3.5q-10 -25 -25 -55.5t-29 -59.5l-38 -82q-8 -17 -15.5 -32.5t-14.5 -26.5zM378 497q-53 -42 -89.5 -72t-59.5 -50.5t-34 -32.5t-12 -18q0 -10 12 -10q14 0 42 9.5t60 15.5q7 20 21 44t28 45.5t25.5 39t13.5 23.5z" />
    <glyph glyph-name="five" unicode="5" horiz-adv-x="613" 
d="M424 755q22 1 55.5 4t70 7t73.5 7t67 3q28 0 46.5 -3.5t17.5 -11.5q0 -2 -0.5 -4t-0.5 -4q-1 -8 0.5 -15t0.5 -15q-6 -34 -29 -55.5t-53 -34t-62 -17t-57 -4.5q-17 0 -32.5 2t-35.5 2q-17 -23 -35 -44t-38 -44l-44 -51l-29 -48l8 -5q7 9 21 15.5t33 11t40 7t42 2.5
q48 0 78.5 -14t48 -35.5t23.5 -47t5 -48.5q-1 -18 -7 -37.5t-14.5 -39.5t-18.5 -38.5t-18 -33.5q-34 -61 -82.5 -105.5t-103 -74t-110 -43.5t-101.5 -14q-35 0 -69.5 5t-62 17t-44.5 32t-15 50q1 16 7.5 31t19 27t31 19.5t42.5 7.5q23 0 52 -7t55 -7q38 0 71.5 19t73.5 70
q2 4 6.5 11t9 15t8.5 17t4 17q1 14 -4.5 23.5t-25.5 9.5q-15 0 -35.5 -6.5t-43.5 -14t-46.5 -13.5t-44.5 -6q-25 0 -49 12t-34 26t-3 38.5t24 55t41 65t48.5 68.5t46 65.5t34.5 56.5q-2 2 -2 4q0 6 9.5 16.5t14.5 18.5q-1 2 -1 8q1 21 14 35t31 23t39 13t39 4z" />
    <glyph glyph-name="six" unicode="6" horiz-adv-x="592" 
d="M597 788q18 5 32 5q26 0 45 -9t18 -22q0 -2 -2 -8v1q-2 -5 -4 -8.5t-2 -6.5q0 -8 4.5 -14t10.5 -11t11 -9.5t5 -10.5q-1 -7 -10.5 -16t-35.5 -23v1q-11 -4 -29.5 -12t-38.5 -17l-24 -12v1q-39 -18 -75.5 -45t-70 -59.5t-63.5 -68.5t-55 -71l7 -7q30 23 66.5 36.5
t68.5 13.5q25 0 48.5 -11t40.5 -31t26.5 -47.5t7.5 -59.5q0 -11 -2 -24.5t-7 -25.5q-28 -72 -67.5 -126.5t-87.5 -90.5t-102.5 -54.5t-111.5 -19.5q-94 8 -138 53.5t-40 120.5q2 33 12 73t26 83q40 90 92 171.5t118 150t147.5 122t180.5 88.5h-1zM283 88q28 25 46.5 44.5
t29 34t15 24.5t4.5 18q1 7 -1.5 12.5t-5.5 10.5t-5.5 9.5t-2.5 10.5q0 4 1 8t5 9q-8 2 -12 2q-18 0 -41 -14.5t-44 -36t-36 -47t-16 -47.5q-2 -22 15 -36z" />
    <glyph glyph-name="seven" unicode="7" horiz-adv-x="558" 
d="M466 585q-55 4 -111.5 4t-112.5 2l-17 4q-14 0 -22 10t-8 24q1 15 10 33.5t25 35.5t37.5 29t47.5 14q107 7 178.5 19.5t125.5 21.5l16 2q15 2 30 4.5t26 2.5q20 0 33.5 -9t17.5 -33l-14 -29q25 -8 41 -24t14 -38q-1 -14 -9.5 -29.5t-26.5 -33.5h1q-65 -57 -128 -129
t-126 -150t-126.5 -158t-129.5 -154q-21 -21 -38 -39t-34.5 -31.5t-36.5 -21t-44 -7.5q-15 0 -30.5 3t-28 9.5t-20 17t-6.5 26.5q0 12 7 22t16.5 20t20 20.5t18.5 23.5q44 49 87.5 114t89 134t93.5 136t101 121v-1z" />
    <glyph glyph-name="eight" unicode="8" horiz-adv-x="668" 
d="M609 809q12 0 27 -1t29 -7.5t25.5 -19.5t17.5 -37q8 1 14 2t8 1q19 0 32.5 -9t21 -25t10 -36.5t-0.5 -42.5q-6 -47 -30 -88.5t-57.5 -77.5t-74.5 -66t-81 -54q15 -12 25.5 -30t16.5 -39t8 -43t-1 -43q-13 -62 -50 -111t-82 -84.5t-90.5 -56.5t-76.5 -26
q-26 -3 -54.5 -5.5t-54.5 -2.5q-35 0 -68.5 7t-58 26.5t-37 54t-4.5 90.5q7 48 25.5 86t44.5 68.5t57.5 54t63.5 41.5h-1l77 41q-24 38 -39.5 78.5t-8.5 85.5q7 54 41.5 102.5t84 85.5t107.5 59t112 22h22zM388 141q2 5 4 11.5t2 12.5q4 23 -4 43.5t-21 45.5l-30 -10
q-11 -5 -24.5 -14t-26 -20t-21.5 -22t-10 -20q-1 -13 5.5 -24t17.5 -19.5t25.5 -13.5t28.5 -5q17 0 32 8t22 27zM570 613q-4 18 -21 18q-12 0 -28.5 -10.5t-32.5 -28t-29 -39.5t-16 -46q-2 -12 -0.5 -24.5t7.5 -23.5v-16q11 9 19 15t15 11q20 14 43 32t53 54q5 7 5 11
q1 7 -1 14t-4 13q-2 5 -4.5 9t-2.5 7z" />
    <glyph glyph-name="nine" unicode="9" horiz-adv-x="613" 
d="M330 -32q-23 -26 -59.5 -40t-70.5 -14q-28 0 -48 11.5t-18 37.5q0 19 16 49v-1l13 15q21 27 39 51t38.5 49.5t45 54t57.5 64.5q-34 -8 -63.5 -11.5t-48.5 -0.5q-61 8 -93 50.5t-29 104.5q3 58 38 120q33 60 79.5 112.5t101 90.5t113.5 58t118 14q4 0 7.5 -0.5t8.5 -0.5
q22 -2 49.5 -5t51.5 -10t39.5 -19t14.5 -32q0 -10 -8 -26q-11 -20 -6 -29.5t13 -17.5q6 -5 11 -12t4 -22q0 -5 -2 -13.5t-4 -16.5q-28 -80 -70 -163.5t-94.5 -163t-114 -152t-128.5 -131.5zM527 569q8 15 10 27t-18 18v2q-27 3 -55 -11.5t-51 -38t-38 -49.5t-16 -45
q0 -11 4.5 -19t15.5 -11q13 -5 31 -1t37 17t37.5 36t33.5 56z" />
    <glyph glyph-name="colon" unicode=":" horiz-adv-x="349" 
d="M441 410q-23 -28 -63.5 -42.5t-82.5 -14.5q-20 0 -37 3.5t-30 10.5t-20.5 17.5t-6.5 25.5q2 17 11 36l3 6v-1q24 33 64 48t80 15q21 0 39.5 -4t33 -11.5t22.5 -18.5t7 -25q0 -17 -14 -36l-6 -10v1zM321 192q-8 -26 -27 -47t-43.5 -36t-52 -23.5t-52.5 -8.5
q-46 0 -62 12.5t-11.5 31.5t26 41.5t50.5 41.5t61 31.5t59 12.5q25 0 41.5 -8.5t15.5 -25.5q-1 -4 -2 -8.5t-3 -9.5v-4z" />
    <glyph glyph-name="semicolon" unicode=";" horiz-adv-x="349" 
d="M443 420q-23 -28 -64 -42.5t-82 -14.5q-40 0 -68 14t-26 45q0 12 4 20t11 20v-1q23 33 63.5 48.5t80.5 15.5q21 0 39.5 -4t32.5 -12t22 -19t7 -26q-1 -8 -3.5 -17t-9.5 -18l-8 -10zM325 244q9 -4 19 -14t10 -20l-2 -36q-3 -24 -24.5 -47t-46.5 -42q-32 -30 -70.5 -52.5
t-75.5 -22.5q-8 0 -18 2t-19.5 6t-16 11t-5.5 18t16.5 29.5t34.5 41.5l23 29q-8 -3 -13 -3q-6 0 -10 3.5t-7.5 8t-5.5 8t-3 3.5h1q-2 9 -3.5 16t-0.5 14q1 21 14.5 36.5t33.5 25.5t44.5 14.5t47.5 4.5q10 0 18.5 -1t17 -5t18 -10.5t22.5 -16.5z" />
    <glyph glyph-name="less" unicode="&#x3c;" horiz-adv-x="580" 
d="M621 602q9 2 18 3t18 1q16 0 34.5 -5t34.5 -14.5t26.5 -23t9.5 -29.5q0 -14 -14 -33q-2 -21 -20 -42t-49 -38v1q-61 -27 -122.5 -49t-123.5 -42l-109 -36q-1 -2 -1 -6q-1 -14 21 -31t55 -36.5t70.5 -43t67.5 -50.5v-6q-2 -25 -22 -42.5t-41 -21.5q-18 6 -54.5 12
t-81 14.5t-93 21.5t-91 33.5t-74 49.5t-42.5 70q2 9 12.5 21t11.5 26q0 10 -5 18q4 17 20 31t36 26t41 22t36 20l-1 -1q54 25 105 50t101.5 48.5t102 43.5t106.5 34z" />
    <glyph glyph-name="equal" unicode="=" horiz-adv-x="577" 
d="M105 147q-5 -1 -8.5 -1h-6.5q-33 0 -49.5 16t-14.5 37q2 33 32 52t76.5 29.5t103 14.5t110.5 6t101 7.5t73 5.5q31 0 45 -11t13 -28q-2 -32 -25 -52.5t-61 -34t-86.5 -20.5t-100.5 -11t-104 -5.5t-97 -4.5h-1zM369 507q52 11 106.5 20t104.5 11q48 -5 70 -22t21 -37
q-2 -27 -37.5 -50t-101.5 -23h-29q-8 0 -16 0.5t-14 0.5q-14 -15 -34 -25t-43.5 -16t-49 -8.5t-49.5 -2.5q-61 0 -98.5 14t-35.5 41q1 34 43 53t110 33z" />
    <glyph glyph-name="greater" unicode="&#x3e;" horiz-adv-x="755" 
d="M560 306l-46 32q-19 13 -37 26t-37 25q-16 10 -37 22.5t-39 26.5t-30 29.5t-11 31.5q1 20 21.5 47.5t68.5 58.5l-1 -1l4.5 1.5t5 2t12.5 5t29 11.5h-1q36 10 63 10q34 0 58 -12.5t44 -32.5h-1l10 -8q19 -15 51 -43t63 -60t53 -64t21 -54q0 -8 -3.5 -12.5t-8.5 -9
t-10.5 -10.5t-9.5 -16q0 -6 -1 -10q-1 -13 -5 -27t-13 -31l1 1q-14 -20 -26.5 -29.5t-34.5 -21.5v1q-41 -13 -78.5 -19.5t-74.5 -12.5q-2 0 -4 -0.5t-4 -0.5q-55 -8 -120 -23.5t-130.5 -31t-126 -28t-107.5 -14.5l-3 11q-2 6 -3 12.5t0 12.5q0 3 1 6t5 8.5t12.5 14.5
t23.5 24q23 21 68 40.5t96.5 35.5t103 29t87.5 22l37 9z" />
    <glyph glyph-name="question" unicode="?" horiz-adv-x="580" 
d="M732 639q1 -5 1 -10v-10q-2 -40 -25.5 -81t-58.5 -80.5t-75 -76t-75 -68t-59 -56t-27 -40.5q-2 -20 -15.5 -36t-32.5 -28t-40.5 -18.5t-38.5 -6.5q-13 0 -19.5 4.5t-9 11t-2.5 15v16.5q1 32 19.5 69t46 76.5t60 79t62 77.5t52 71.5t29.5 61.5l2 18q-8 -4 -16 -12
t-20.5 -19t-30.5 -25t-44 -30q-12 -8 -19 -13t-12 -9.5t-11 -8.5t-17 -9v1q-23 -10 -41 -15t-32 -5q-9 0 -21.5 4.5t-24 13.5t-18.5 23.5t-6 35.5q1 20 9 43t20 44.5t26 39.5t27 28q31 24 69.5 45t79.5 36.5t81.5 25t75.5 9.5q22 0 44.5 -4t41 -13t30 -23.5t10.5 -35.5
q-1 -16 -6 -34.5t-7 -35.5q2 -10 8.5 -21t9.5 -25zM288 -18q-29 -42 -67 -61.5t-69 -19.5q-24 0 -40 12t-14 36q1 31 17 49.5t35.5 28.5t38 13t26.5 3q15 0 29.5 -3t26 -8.5t18.5 -13.5t7 -17q-2 -10 -8 -19z" />
    <glyph glyph-name="at" unicode="@" horiz-adv-x="825" 
d="M446 131q-2 8 -2 17t2 17q-22 -15 -42 -24t-38 -9q-50 0 -76 24t-24 69q2 33 23.5 76.5t61.5 91.5q27 29 62 57t72.5 50.5t74 36t64.5 13.5q20 0 35 -8t24 -25q1 -1 1 -3q0 -5 -3 -9h1q-3 -5 -5.5 -10.5t-2.5 -10.5t2.5 -9.5t10.5 -7.5q11 -23 10 -51q-1 -23 -10.5 -46.5
t-23.5 -36.5q-21 -23 -31.5 -37.5t-10.5 -26.5q-1 -12 9 -21t31 -19q34 13 57.5 36t38.5 50t22 55t9 52q2 37 -7 70t-27 58t-44.5 39.5t-60.5 14.5q-17 0 -36.5 -4t-40.5 -11q-39 -13 -72 -29t-65.5 -39t-67 -54.5t-76.5 -74.5q-14 -14 -31 -38.5t-32 -53.5t-26.5 -61
t-12.5 -62q-1 -22 4.5 -42.5t19.5 -36.5t37 -27.5t56 -15.5q34 -5 42.5 -13.5t8.5 -19.5q-2 -10 -2 -16q-1 -12 7 -24t7 -22q0 -11 -12.5 -21.5t-32.5 -18t-46.5 -12t-54.5 -4.5q-38 0 -76 9t-68 29.5t-47.5 53.5t-15.5 80q3 57 30 130t72.5 149t105.5 148t129 128
q92 75 188.5 112t183.5 37q59 0 107 -17t85 -49q22 -19 33 -55t8 -87q-2 -42 -15 -91.5t-39 -104t-66 -113t-95 -118.5q-23 -24 -49.5 -42.5t-54.5 -31t-55.5 -18.5t-52.5 -6q-39 0 -64.5 16t-23.5 48q1 4 1.5 8zM359 215q31 14 57.5 36t52.5 47h-1l36 32q-6 8 -10.5 10.5
t-8.5 3.5q-21 0 -43.5 -10t-41 -27.5t-32 -40t-16.5 -46.5z" />
    <glyph glyph-name="A" unicode="A" horiz-adv-x="574" 
d="M545 751q19 8 37.5 14.5t33.5 6.5q16 0 31.5 -3.5t27.5 -10.5t19 -17t6 -22q0 -15 -19 -38q30 -16 36 -51q-29 -76 -55.5 -151t-52.5 -149.5t-53 -149.5t-57 -151l-10 -22q-4 -11 -7 -20t-8 -20q-16 -14 -38 -22t-43 -8q-13 0 -26.5 2.5t-25 8t-18.5 13.5t-7 19
q1 14 12.5 39.5t17.5 54.5l14 47q-17 -4 -32.5 -11t-28 -14.5t-22 -13.5t-14.5 -9q-14 -8 -24.5 -10.5t-19 -3t-16 -2t-14.5 -6.5q-38 -53 -78 -88t-86 -35q-10 0 -20.5 3.5t-18.5 10.5t-13.5 18t-4.5 27q1 19 10.5 46t21.5 52.5t23 46t16 28.5q48 79 102 158t114 153.5
t126 143t140 127.5l-1 -1zM294 209l94 3q14 44 28.5 89.5t30.5 89.5l29 83l-8 4l-53 -62q-8 -16 -18.5 -34.5t-19.5 -34.5z" />
    <glyph glyph-name="B" unicode="B" horiz-adv-x="595" 
d="M205 -49q-15 0 -19.5 1.5t-6.5 3.5t-4.5 4t-12.5 3q-20 -14 -41.5 -20.5t-41.5 -6.5q-35 0 -60 21.5t-23 61.5q2 18 7 33t11 25q-1 2 -1 7q0 6 3 14q26 71 58 148.5t70.5 153t82.5 144.5t95 124q51 56 117 84.5t128 28.5q30 0 58 -7t51 -21h2q15 -10 30.5 -26t27 -35.5
t18.5 -42t6 -44.5q-2 -36 -23.5 -72.5t-54.5 -70t-73 -63.5t-79 -52q8 -8 16.5 -11.5t18.5 -8.5l24 -14q11 -7 17 -22t5 -33q-2 -27 -15 -60t-37 -67.5t-57 -67t-73.5 -58t-88.5 -41t-101 -15.5q-8 0 -16.5 0.5t-17.5 1.5zM214 47q16 2 24 2h21q-1 0 10 2t27 7t35.5 14
t36.5 22.5t28.5 32.5t13.5 45q1 19 -10 26t-29 7q-20 0 -42 -5.5t-51 -7.5l-23 -49q-9 -20 -19.5 -42t-21.5 -54zM467 563q-17 -15 -29.5 -29.5t-22 -30.5t-18.5 -35.5t-19 -44.5l59 21q19 7 42.5 16.5t44.5 22t36 29.5t16 38q1 11 -13 21.5t-28 17.5q-5 -5 -10.5 -6
t-10.5 -1q-27 0 -48 -19h1z" />
    <glyph glyph-name="C" unicode="C" horiz-adv-x="583" 
d="M448 2q-47 -25 -103.5 -43t-110.5 -18q-40 0 -75 8.5t-61 29.5t-40.5 55.5t-11.5 85.5q4 69 24.5 137t53 130.5t74 117.5t86 98.5t89.5 74.5t84 45q42 20 85 30.5t84 10.5q9 0 17 -0.5t16 -1.5h-1q66 -9 97 -43.5t29 -87.5q-2 -30 -15.5 -67.5t-35.5 -74.5
q-12 -20 -29.5 -34.5t-37.5 -24t-40.5 -14.5t-37.5 -5q-27 0 -38.5 11t-10.5 30q1 11 7 24.5t7 29.5q1 17 -4.5 23t-15.5 6q-8 -1 -17 -2t-17 -5l-16 -8q-11 -6 -22 -12.5t-23.5 -16t-28.5 -24.5t-38 -39q-30 -33 -52 -66t-36 -63t-20.5 -54t-7.5 -39q-1 -20 5 -34.5
t16 -23.5t22 -13.5t23 -4.5q21 0 35.5 6t27 13.5t25.5 13.5t31 6q6 0 16 -1t19 -4.5t15.5 -9.5t6.5 -16q-1 -11 -6.5 -24t-6.5 -24q0 -6 3.5 -10t8 -6.5t8.5 -5.5t4 -7q0 -8 -6.5 -15.5t-15.5 -15t-19.5 -15t-19.5 -13.5h1z" />
    <glyph glyph-name="D" unicode="D" horiz-adv-x="604" 
d="M666 316q-27 -59 -74 -119t-105 -109.5t-121.5 -80.5t-124.5 -31q-16 0 -39 4q-20 -30 -45 -43.5t-51 -13.5q-20 0 -38 8t-31.5 21.5t-21 32.5t-6.5 40v8q18 86 48 162t65 144.5t71.5 132.5t67.5 126q4 13 10 30t13 35t16.5 34.5t21.5 27.5q13 12 29.5 20.5t33.5 13.5
t33.5 7.5t29.5 2.5q35 0 67.5 -12.5t61 -32.5t52.5 -44t43 -47q25 -31 35 -67t8 -74q-2 -39 -15 -83t-34 -93zM241 93l56 30q29 16 58 34.5t55.5 40.5t48.5 48t37 56h-1q33 58 36 107q2 46 -23.5 76.5t-69.5 62.5q-28 -44 -40.5 -77t-28.5 -65l-45 -89l-41 -95
q-3 -12 -5.5 -20.5t-6 -17t-7.5 -18.5t-9 -24z" />
    <glyph glyph-name="E" unicode="E" horiz-adv-x="534" 
d="M688 770q27 -1 39 -14t10 -32q-1 -20 -12.5 -42t-31 -42t-46 -35t-57.5 -19q-27 -7 -46.5 -12.5t-33.5 -11.5t-24.5 -14t-19.5 -19l-6 -7q-18 -21 -31 -40.5t-22 -40.5l-12 -26q19 -8 37 -8q25 0 50 4.5t42 4.5t17 -10q0 -2 -4 -10q-8 -15 -18.5 -31.5t-25 -31.5
t-32.5 -27.5t-40 -19.5h1q-20 -4 -27 -6t-13 -3.5t-17 -3t-37 -2.5q-9 -11 -23.5 -30.5t-28.5 -41.5t-24 -41.5t-11 -30.5q0 -6 12 -9.5t28 -5t31 -1.5h20q20 0 40.5 2t51.5 6q8 -4 11 -9t3 -10q-1 -5 -2.5 -10.5t-1.5 -10.5q-2 -17 19 -27q2 -2 2 -6q0 -8 -10 -20.5
t-25.5 -27t-36 -27.5t-41.5 -20h1q-48 -12 -84.5 -17.5t-76.5 -5.5h-45.5t-58.5 5.5t-50.5 19.5t-19.5 41q0 3 2 9q15 78 39 148.5t58 139t77.5 138t97.5 146.5q11 16 16.5 35.5t10 38.5t12 34t22.5 22q78 28 155.5 48.5t139.5 20.5q12 0 24.5 -1t24.5 -3h1z" />
    <glyph glyph-name="F" unicode="F" horiz-adv-x="434" 
d="M143 6q-16 -33 -47.5 -49t-60.5 -16q-27 0 -46.5 13t-17.5 39q0 6 2.5 13.5t6.5 16.5q9 22 27 61.5t41 87.5t49 101t50 104t44.5 95t32.5 74q25 49 42 79.5t30.5 49t25.5 28.5t27 18q43 22 75.5 27.5t67.5 7.5q15 1 35 4t40 6.5t39.5 6t33.5 2.5q33 0 48 -16.5t13 -39.5
q-1 -23 -14.5 -50t-35.5 -52.5t-51 -47t-61 -32.5h1q-23 -7 -37 -9.5t-23 -2.5q-10 0 -14.5 2t-7 4t-3 4t-3.5 2t-7 -5t-8.5 -12t-9 -14.5t-6.5 -11.5q-29 -52 -55 -78.5t-35 -34.5l104 8h5q23 0 34.5 -14t10.5 -31q-2 -22 -22 -31q-18 -8 -24.5 -15.5t-10 -15t-8 -14.5
t-20.5 -13.5t-48 -12.5t-88 -11l-38 -70q-15 -25 -30.5 -49.5t-23.5 -41.5q-2 -2 -4.5 -8.5t-6 -16t-8 -20t-9.5 -18.5z" />
    <glyph glyph-name="G" unicode="G" 
d="M759 721q36 -35 33 -100q-3 -55 -37 -121q-20 -36 -53 -52.5t-64 -16.5q-23 0 -38 9t-14 23l-5 22q-15 22 -42 22q-28 0 -66 -20t-76.5 -51t-71 -67t-49.5 -68q-14 -26 -24 -47.5t-11 -43.5q-2 -22 7 -37.5t23.5 -25.5t32.5 -14.5t36 -4.5q30 0 59.5 10.5t54 25t41.5 30
t22 24.5l3 4l-5 8q-22 -11 -40 -11q-17 -1 -28.5 7.5t-22.5 18.5q-6 6 -13.5 9.5t-13.5 6.5t-9.5 7.5t-3.5 11.5q1 22 22 39.5t51.5 29.5t65 18.5t63.5 6.5q58 0 80.5 -21t20.5 -59q-1 -21 -8.5 -44.5t-19 -47t-25.5 -44.5t-29 -37q-21 -22 -58 -53.5t-87.5 -61
t-112.5 -50.5t-131 -21q-57 0 -96.5 12t-63 35t-32.5 56.5t-7 77.5q3 56 24.5 122.5t57 133t82.5 129t101 110.5q33 28 61 49.5t57.5 38.5t64.5 30t81 25q20 5 44.5 7.5t40.5 2.5q45 0 76.5 -11.5t51.5 -31.5z" />
    <glyph glyph-name="H" unicode="H" horiz-adv-x="598" 
d="M269 222l-76 -128l-23 -47q-9 -18 -17 -35t-19 -33q-15 -27 -49 -41t-67 -14q-28 0 -48 11.5t-18 34.5q0 5 2 10.5t4 12.5q45 110 84.5 195.5t76.5 157.5t73.5 136t75.5 133l30 53q7 24 27.5 44.5t47 35.5t56 23t53.5 8q23 0 38 -8.5t13 -27.5q0 -6 -2.5 -13.5
t-7.5 -17.5h1q-22 -39 -41.5 -73t-39 -66.5t-39.5 -65.5t-43 -70q3 0 6 -0.5t5 -0.5q31 0 59 8.5t60 8.5h10.5t10.5 -1l10 18q0 2 2 4v-1q38 87 64 146.5t51.5 96t56.5 52.5t79 18q26 -1 44.5 -10.5t17.5 -29.5q-2 -15 -11 -31l-31 -56q-23 -42 -57 -106t-74 -144t-83 -175
t-84 -198q-11 -28 -23 -38t-23 -14.5t-22 -9.5t-21 -23v1q-12 -16 -37 -25t-49 -9q-23 0 -40 9.5t-16 31.5q1 6 2.5 12.5t5.5 14.5q13 40 33.5 80.5t42 80t43 76.5t37.5 70l-29 -7l-17 -8q-15 -7 -26 -10.5t-22.5 -7.5t-24.5 -9.5t-32 -15.5z" />
    <glyph glyph-name="I" unicode="I" horiz-adv-x="377" 
d="M551 682q-57 -110 -103.5 -199.5t-85.5 -164t-72 -137.5t-63 -120q-14 -39 -36.5 -61t-46.5 -32.5t-45 -13t-31 -2.5q-49 0 -67 11.5t-17 31.5q1 16 11 39t24 51q32 58 73 135.5t83.5 157t83 151.5t73.5 119q20 28 36.5 37t31.5 13.5t29 11.5t29 31q11 18 29.5 27.5
t35.5 9.5q20 0 34.5 -11t12.5 -34q-2 -21 -18 -51h-1z" />
    <glyph glyph-name="J" unicode="J" horiz-adv-x="571" 
d="M442 410q19 36 34 69t29.5 66t29.5 67.5t33 73.5q13 24 34 43.5t46 34t51 22.5t48 8q29 0 47 -13.5t16 -42.5q-2 -21 -16 -55q-36 -69 -73 -146t-78.5 -154t-88.5 -150.5t-101.5 -136t-118 -110t-138.5 -71.5q-19 -9 -39.5 -10.5t-40.5 -1.5q-62 0 -96.5 24.5t-31.5 89.5
q1 27 12 55.5t29 52.5t43.5 39t57.5 15q15 0 25.5 -7t13.5 -20q-5 -29 -11.5 -55t-8.5 -49q7 -10 15 -10t17.5 5.5t18.5 12.5l11 7h-1l8 6q30 34 60 75t59 85.5t55.5 90.5t49.5 90z" />
    <glyph glyph-name="K" unicode="K" horiz-adv-x="589" 
d="M321 712q19 31 42 31q7 0 16 -3q9 15 19 26t25 18.5t37 11t57 3.5q17 0 33.5 -2t29 -7t20.5 -14t7 -23q-1 -8 -3.5 -17.5t-9.5 -20.5l-23 -26q-12 -11 -21.5 -28t-22.5 -36v1l-21 -30q-24 -33 -48 -65.5t-47 -66.5v1l-5 -6l5 -8q34 17 74 43.5t77.5 51t69 42.5t49.5 18
q8 0 16.5 -3.5t20.5 -9.5l9 -4q8 -2 11 -12.5t2 -25.5q-1 -23 -10.5 -48.5t-23.5 -38.5q-42 -44 -81.5 -74.5t-78.5 -51t-77.5 -33t-77.5 -21.5l1 -11q27 -3 48.5 -22.5t37 -47t24.5 -59t12 -56.5l7 -50q3 -18 5 -30.5t2 -21.5q-1 -17 -18.5 -30t-54.5 -13q-13 1 -30.5 14.5
t-37.5 33t-42 42t-44 42t-42 32.5t-36 14l-30 -44l-17 -29q-16 -28 -34 -56.5t-41 -54.5q-11 -7 -28 -11.5t-34 -4.5q-10 0 -22.5 1.5t-22.5 5.5t-14.5 10.5t1.5 16.5q1 14 9 38.5t18.5 52.5t22.5 55.5t21 47.5l15 30q33 75 68.5 151t70.5 149q16 34 28.5 64.5t25 58.5
t27 55t34.5 55z" />
    <glyph glyph-name="L" unicode="L" horiz-adv-x="477" 
d="M11 5q0 17 -3.5 27.5t-6.5 17.5h1q-3 7 -3 17q0 11 13 41t33.5 71.5t48 90.5t56.5 98.5t58.5 96t54.5 82.5q25 37 44 67q17 26 31 47.5t16 25.5l-1 -1q7 16 26 30t44 25t53 17.5t52 6.5q31 0 51.5 -12t18.5 -41q-1 -5 -1.5 -11t-2.5 -12v1q-26 -64 -66 -127t-88.5 -131.5
t-104.5 -145.5t-113 -167q-1 -2 -1 -4q-1 -4 2 -9q14 0 31 4t36 9t38 9t37 4q11 0 21.5 -3t18.5 -7q-1 -3 -1 -5t-1 -4q0 -11 5 -19t11 -15t11 -14.5t5 -17.5q-1 -8 -5 -17.5t-13 -22.5q-16 -23 -35.5 -35.5t-39 -18.5t-37 -7.5t-30.5 -1.5q-15 0 -30 -1t-32 -1q-18 0 -41 1
t-56 1h-15q-6 -1 -12.5 -1h-12.5q-26 0 -44.5 11t-20.5 51z" />
    <glyph glyph-name="M" unicode="M" horiz-adv-x="701" 
d="M468 746q20 0 36 -4.5t27 -10.5q2 -8 3 -15.5t0 -14.5q-1 -11 -6 -17.5t-18 -18.5v-9t-1 -9q-2 -43 -14 -80.5t-26 -72.5l8 -5q27 35 57.5 72.5t63.5 73t68.5 66.5t72.5 53h-1q17 9 39.5 14t42.5 5q26 0 44 -11.5t16 -37.5q0 -10 -1 -15q-64 -195 -131 -366.5
t-148 -326.5q-15 -29 -48.5 -43.5t-67.5 -14.5q-27 0 -46 10t-18 30q1 2 1 4t1 4l18 69q0 -1 5 11.5t13.5 33t19 45t20.5 47.5l-10 4q-24 -26 -40 -41t-28 -23.5t-21.5 -12t-20.5 -6.5l-10 -3q-6 -1 -16.5 -2.5t-21.5 -1.5q-14 0 -24.5 2.5t-10.5 8.5q-4 19 -6.5 25t-4 9
t-2 7.5t-0.5 19.5l-9 3q-31 -73 -56 -121.5t-50 -77.5t-53.5 -41t-66.5 -12q-29 0 -50.5 12t-20.5 36q1 15 11.5 45.5t27 69.5t36.5 83.5t40.5 87.5t39 81.5t32.5 65.5q13 26 32 59t40.5 66t44 63t42.5 50q30 44 70 61t76 17zM532 730q-2 0 -2 3z" />
    <glyph glyph-name="N" unicode="N" horiz-adv-x="640" 
d="M206 502q15 31 37.5 67.5t49.5 68t56 52t57 20.5q23 0 42 -15q7 -34 12 -61t7.5 -51.5t3 -47t-0.5 -47.5q-1 -15 -2 -33.5t-3 -38.5l8 -2q14 24 31.5 50t34.5 52.5t33 52.5t27 50q17 31 42 54.5t52.5 39t55 23.5t49.5 8q21 0 34 -7t12 -19q0 -5 -2.5 -9.5t-5.5 -9.5
q-8 -8 -8.5 -21t-1.5 -30t-7 -38.5t-25 -46.5q-26 -35 -57 -88.5t-63.5 -113.5t-64.5 -120.5t-60 -110.5t-50.5 -84t-35.5 -39q-37 -19 -57.5 -26.5t-42.5 -7.5q-8 -1 -17 0t-20 3q-14 1 -20.5 20t-8.5 47.5t-1 63t2 66.5t0.5 58.5t-4.5 39.5q-34 -68 -55.5 -108t-36 -64
t-24.5 -36t-19 -22l-17 -19q-9 -16 -23.5 -28t-31 -20t-34 -12t-32.5 -4q-18 0 -30 6.5t-11 19.5q0 9 7 20q12 43 37.5 108.5t57 136t64 138t59.5 115.5h1z" />
    <glyph glyph-name="O" unicode="O" horiz-adv-x="689" 
d="M385 705q35 25 74 38t76 13q14 0 28 -2.5t28 -7.5q20 17 39.5 25t38.5 8q31 0 57 -16.5t43 -44.5q0 -5 2.5 -13t4.5 -17l4 -23q8 -33 6 -72q-3 -55 -22 -116.5t-47.5 -123t-63.5 -118t-69 -100.5q-31 -39 -67.5 -77.5t-79 -68.5t-90.5 -48.5t-100 -18.5q-58 0 -97.5 18.5
t-63 47.5t-33 66t-7.5 73q2 44 16 92t35 96t46 94t49 85v-1q16 24 39 53.5t48.5 59t53 55.5t52.5 44zM315 71q42 42 81.5 101.5t70.5 126.5t52 136t27 130q-38 -39 -85 -90t-92 -108.5t-81.5 -118.5t-54.5 -119l-3 -19q1 -5 2.5 -15.5t5.5 -22t11 -22t18 -15.5l18 13
q7 5 15.5 10.5t14.5 12.5z" />
    <glyph glyph-name="P" unicode="P" horiz-adv-x="616" 
d="M636 290q-23 -29 -51.5 -52.5t-59.5 -40t-62.5 -25.5t-59.5 -9q-29 0 -53.5 10.5t-44.5 33.5q-23 -47 -41.5 -93t-32.5 -94v1q-28 -50 -68 -77t-91 -27q-41 0 -70.5 19t-27.5 58q0 3 0.5 6t1.5 7v-1q47 101 100 204.5t108 192.5q21 34 34 55t23.5 36t21 28.5t25.5 32.5
q36 46 60.5 74.5t44 47.5t39.5 32t47 28q45 23 79.5 39.5t72.5 16.5q32 0 58.5 -11.5t45.5 -33t28.5 -52t7.5 -68.5q-2 -40 -14.5 -86.5t-31 -92t-42 -87t-47.5 -72.5zM363 297q48 10 82 40t56 70.5t33.5 87t13.5 90.5q0 3 0.5 6t0.5 6q-62 -84 -103 -151l-14 -23
q-17 -31 -36.5 -60t-37.5 -59z" />
    <glyph glyph-name="Q" unicode="Q" horiz-adv-x="734" 
d="M727 259q-32 -44 -72.5 -87.5t-87.5 -81.5l10 -16q0 -3 0.5 -5.5t0.5 -5.5q-2 -27 -17.5 -45t-38.5 -29q-2 -3 -2.5 -5t-1.5 -4q-1 -23 4 -40t3 -36q-2 -33 -23.5 -49t-47.5 -16q-16 0 -31.5 8.5t-24.5 24.5q-2 0 -6 18t-9 41l-16 46q-26 -8 -46.5 -11t-38.5 -3
q-40 0 -78.5 12t-68 37t-47 61.5t-14.5 86.5q2 32 10.5 67t22.5 74q17 62 47 130t70.5 129t91 108.5t108.5 69.5q42 20 82 32.5t75 12.5h10t10 -1l22 6q19 24 49 35t62 11q86 0 124.5 -47.5t33.5 -132.5q-2 -45 -15.5 -95.5t-35.5 -102.5t-51 -102.5t-63 -94.5zM577 75l1 -2
zM537 276q42 64 73 133.5t35 138.5q1 13 0.5 26.5t-2.5 30.5q-29 -17 -60 -25.5t-58 -8.5h-13.5t-11.5 2q-12 -9 -25 -21.5t-24.5 -23.5t-20 -19.5t-10.5 -11.5q-21 -23 -49.5 -61t-55 -83t-46 -91t-21.5 -84q-2 -29 10 -52t44 -37q-1 13 -1.5 26t0.5 24q1 28 12.5 47.5
t29 31.5t38 17.5t40.5 5.5t39 -6t33 -18q14 17 25.5 33t18.5 27v-1z" />
    <glyph glyph-name="R" unicode="R" horiz-adv-x="592" 
d="M167 -6q-11 -26 -38 -37.5t-56 -11.5q-18 0 -35 4t-29.5 11t-20 17t-7.5 23l3 12q2 25 26.5 82.5t62.5 131t85.5 154.5t96.5 152.5t95 124.5t81 72q21 10 53.5 19t64.5 16t57 11.5t33 4.5q68 0 98 -36.5t28 -93.5q-3 -53 -30 -115.5t-72 -120t-104.5 -102.5t-126.5 -63
l11 -23v1q11 -22 26.5 -48.5t29.5 -54.5t23.5 -54.5t8.5 -48.5q-1 -14 -8.5 -25.5t-18.5 -20.5t-23.5 -14t-23.5 -5q-7 0 -11.5 3t-9 7.5t-10.5 9.5t-16 9q-18 -5 -32 -5q-29 0 -43.5 23t-24 55t-18.5 66.5t-25 57.5q-20 -36 -37.5 -67t-31.5 -58zM487 583
q-13 -20 -20.5 -32l-12.5 -20t-8.5 -14t-7.5 -13q-17 -29 -26 -47l-14 -28q-6 -11 -8 -16l6 -5l31 20q23 11 41.5 20.5t33.5 22t28.5 30.5t27.5 47q1 12 11 25.5t11 27.5q0 7 -5.5 16.5t-19.5 9.5q-16 0 -29 -10t-23 -21h1l-13 -10z" />
    <glyph glyph-name="S" unicode="S" horiz-adv-x="562" 
d="M138 -59q-72 0 -114 32.5t-40 79.5q1 16 7.5 32t17.5 29t26.5 21t33.5 8q29 0 63.5 -9t64.5 -9q22 0 37 6q52 17 75 34.5t24 33.5q1 17 -11.5 32t-29.5 30q-20 19 -38.5 38.5t-32 41t-21.5 46t-6 53.5q0 20 8 49q14 46 35.5 83.5t47 66.5t54 49.5t56.5 34.5
q46 22 96.5 38.5t112.5 16.5q17 0 36 -2t39 -5q23 -4 38 -15.5t30 -24.5l9 -8q15 -19 13 -37q0 -12 -6.5 -23.5t-17 -20t-23.5 -13.5t-26 -6q-1 -23 -22.5 -43.5t-78.5 -27.5q-13 1 -24 1.5t-22 0.5q-56 0 -82 -19t-29 -76q-1 -19 17.5 -37.5t41 -42t40.5 -54.5t16 -76
q-1 -22 -12.5 -53.5t-34 -66t-55 -68t-77 -60.5t-100 -43.5t-122.5 -16.5h-14z" />
    <glyph glyph-name="T" unicode="T" horiz-adv-x="512" 
d="M234 -15q-28 -41 -51 -52.5t-44 -11.5q-34 0 -55.5 13t-19.5 41q1 25 21 63q38 89 62 145.5t40.5 94t27.5 61.5t23 47.5t28 53t43 77.5q-7 -1 -13.5 -1.5t-13.5 -0.5q-30 0 -51 12.5t-19 38.5q2 37 23 62t61 54q28 16 76.5 33.5t104.5 32.5t113.5 25t102.5 10
q14 0 27.5 -5t23.5 -13t16 -18.5t6 -20.5q-2 -20 -30 -36q-17 -9 -26 -28.5t-18.5 -39.5t-23.5 -36.5t-39 -19.5q-12 -6 -25 -8t-25 -3.5t-21 -3.5t-12 -8l-51 -94q-31 -57 -66 -123t-70 -129.5t-67.5 -119t-57.5 -92.5z" />
    <glyph glyph-name="U" unicode="U" horiz-adv-x="695" 
d="M425 767q25 0 41.5 -19.5t15.5 -45.5q-1 -16 -14 -43.5t-33.5 -63t-44 -76.5t-45 -84t-38.5 -85t-22 -80q-2 -23 13 -23q11 0 34 21.5t52 56.5t62.5 79t66 90t62 89t51.5 76q11 18 22.5 37t25 34t29.5 25t34 10q14 0 30 -8q17 17 35 24.5t35 7.5q22 0 36 -12t12 -37v-8
q-3 -20 -35.5 -83t-80.5 -156.5t-103.5 -210.5t-104.5 -246q-4 -19 -17.5 -34.5t-32 -26t-39 -16.5t-39.5 -6q-32 0 -43.5 13t-9.5 43q0 5 0.5 9t1.5 9h-10q-3 -20 -20.5 -34.5t-41 -23.5t-46.5 -13t-36 -4q-39 0 -71.5 11t-55 32t-34 52t-9.5 71q3 63 27 134t58 141.5
t73 137t72 120.5q10 19 24 39.5t31 37.5t37.5 28t44.5 11z" />
    <glyph glyph-name="V" unicode="V" horiz-adv-x="525" 
d="M344 723q10 -31 5 -96q-2 -49 -9.5 -108.5t-19.5 -119.5q5 -9 10.5 -14t16.5 -5h5q21 36 47 75.5t54.5 80t57 80t53.5 74.5l21 30q19 22 47.5 33.5t57.5 11.5q16 0 34.5 -3.5t34.5 -12.5t26.5 -23.5t9.5 -36.5q-2 -17 -14 -38.5t-39 -45.5q-53 -64 -105.5 -134.5
t-104 -142t-102 -140.5t-99.5 -131l-7 -9q-14 -17 -28.5 -34t-32 -30.5t-37 -22t-42.5 -8.5q-33 0 -52.5 7.5t-30 18.5t-13.5 24t-2 24q16 78 31 161t30 167.5t29.5 167t29.5 159.5q3 15 13.5 27t25.5 21t32 14t32 5t25 -5.5t10 -18.5v-2z" />
    <glyph glyph-name="W" unicode="W" horiz-adv-x="783" 
d="M1031 706q-4 -11 -5 -12.5t-3 -3.5l-9 -15h1q-20 -21 -38.5 -47.5t-36 -53.5t-34.5 -53.5t-33 -47.5q-43 -60 -83 -122t-83 -122.5t-90.5 -118.5t-104.5 -111q-21 -20 -49 -31.5t-54 -11.5q-28 0 -50 13t-30 38l-10 71l-46 -36q-15 -13 -31 -26t-31.5 -24t-31 -18.5
t-28.5 -8.5h1h-12q-15 0 -29 2t-25.5 8t-19.5 16.5t-10 27.5q14 126 45 243t64 220l34 107v-1q15 42 34 70.5t39 46t39 25.5t35 8q18 0 29.5 -10t10.5 -27q0 -4 -0.5 -7t-1.5 -7q-6 -35 -11 -58.5t-9.5 -43t-9 -38.5t-8.5 -45q-1 -6 -4 -16.5t-6 -21.5t-5.5 -21.5
t-2.5 -17.5q-2 -11 5 -11q5 0 11 5q11 16 20.5 29t20 26t24 28t33.5 36q23 17 47 17q18 0 33.5 -10t26 -26t16 -36.5t4.5 -41.5q-1 -5 -1 -9.5t-1 -9.5l8 -3q43 83 76 141.5t57 96t39.5 54.5t24.5 17q3 0 5.5 -0.5t6.5 -0.5q5 1 13 2.5t22 11.5q29 20 60.5 31.5t62.5 11.5
q36 0 61.5 -18t27.5 -60z" />
    <glyph glyph-name="X" unicode="X" horiz-adv-x="610" 
d="M302 142q-26 -29 -47.5 -57.5t-43.5 -55t-45 -49.5t-51 -40l1 1q-46 -22 -88 -22q-21 0 -42 6l1 -1q-14 8 -18.5 19.5t-3.5 26.5q1 16 7 32.5t14 31t16 25t12 13.5t7.5 6.5t15.5 17.5t36.5 43t71.5 82l54 51q23 23 46.5 45t33.5 29q-8 30 -13.5 54t-8.5 46t-4.5 44
t0.5 47q1 23 4 50.5t9 62.5q-1 2 -1 8q1 15 14 32.5t31.5 32.5t39.5 25t38 10q16 0 24 -21t11 -50.5t3 -61.5v-55l2 -64l138 146q-2 10 -2 15q1 26 23 50t53.5 42t67.5 29t66 11q17 0 33.5 -3t29.5 -10t20 -18t6 -27q0 -11 -8 -32l1 1q-23 -33 -56.5 -66.5t-70 -66.5
t-73 -64.5t-63.5 -58.5v1q-21 -19 -47 -51t-55 -61q3 -41 10.5 -82t15.5 -82.5t13 -82.5t3 -81q0 -8 -0.5 -15.5t-1.5 -15.5q-7 -14 -16 -17t-17.5 -3t-16 -0.5t-11.5 -10.5q1 -2 1 -7q-1 -11 -17 -18t-36 -7q-19 0 -35 6q-17 14 -29 38t-20.5 52.5t-14 60.5t-8.5 62z" />
    <glyph glyph-name="Y" unicode="Y" horiz-adv-x="501" 
d="M400 671q3 -26 6.5 -63t6.5 -70l9 9l44 53q19 23 40 47.5t43 48t44 43t43 33.5l-1 -1q23 10 51 10q20 0 36.5 -9t14.5 -32q-2 -30 -24 -67t-51.5 -74.5t-60 -71.5t-49.5 -59q-42 -58 -81.5 -108.5t-76.5 -101t-72.5 -104.5t-69.5 -117l8 -6q2 0 7.5 -11.5t4.5 -25.5
q0 -13 -14 -27h1q-34 -30 -73 -43t-74 -13q-24 0 -44.5 5t-35.5 13.5t-23.5 20t-8.5 25.5q2 12 7 21q24 48 58 94.5t69 93.5l88 118q-2 -1 -6 -1q-14 0 -20 13t-4 32q0 7 1 15.5t3 16.5q5 53 11 113t21 126q3 22 17.5 43.5t34 38.5t41 27.5t39.5 10.5q15 0 25 -10t12 -33z
" />
    <glyph glyph-name="Z" unicode="Z" horiz-adv-x="571" 
d="M480 117q31 0 44 -10.5t12 -28.5q-2 -39 -34 -67.5t-81.5 -47t-110.5 -27.5t-122 -9q-30 0 -62 1t-59 9t-44 27t-15 54q1 22 5.5 37.5t14 30.5t23.5 32t35 41l13 15q47 53 90 94t85 79.5t86 79t92 91.5l5 6q5 6 12.5 16t25.5 39q-55 -11 -98 -11q-18 0 -41.5 1.5t-44 7.5
t-34 19t-11.5 37q2 36 37.5 64.5t87.5 49t110 31.5t105 11h19t18 -1h-1q25 -7 37 -23l-4 -23l16 -4q9 -2 17.5 -4.5t14.5 -8.5t9.5 -17.5t2.5 -31.5q0 -5 -0.5 -10t-1.5 -10q-14 -55 -46 -109.5t-73 -106t-85 -98t-80.5 -85t-60.5 -67t-25 -43.5q0 -11 6 -18z" />
    <glyph glyph-name="bracketleft" unicode="[" horiz-adv-x="546" 
d="M506 686q-18 -29 -35 -57.5t-31 -59.5l-17 -46q-11 -29 -25 -61l-28 -64q-23 -53 -43 -104.5l-40 -103t-40 -103.5t-43 -106q26 4 50 5.5t47 1.5q24 0 44 -7t33.5 -17.5t20.5 -23.5t6 -25q-2 -23 -25 -45t-72 -36q-23 3 -50 3q-29 0 -59 -3.5t-59 -7t-57.5 -7t-53.5 -3.5
q-14 0 -30.5 1t-30.5 5.5t-23 14t-8 27.5q2 24 17 41t39 28q35 90 74.5 183.5t80 189t79 191t71.5 188.5l9.5 28.5t10.5 32.5t10.5 29.5t9.5 19.5q6 17 23 29t38 19t42.5 10t37.5 3t35.5 -3.5t36 -7.5t28 -7.5t13.5 -2.5q11 0 30.5 1t35.5 1q14 0 27.5 -1.5t24 -6.5
t16.5 -15t5 -28q-1 -21 -10 -32t-22 -16.5t-27.5 -6.5t-26.5 -1l-38 -3l-32.5 -2.5t-26.5 -8.5l1 1l-20 -18h2z" />
    <glyph glyph-name="backslash" unicode="\" horiz-adv-x="577" 
d="M394 769q4 -25 5 -52.5t3 -53.5l4 -55q7 -99 18.5 -190.5t22 -181.5t17.5 -182t6 -192q1 -6 1 -11.5v-10.5q-1 -23 -11 -41t-24 -30.5t-30 -19t-29 -6.5q-11 0 -18 4t-9 12q-24 85 -40.5 180t-29.5 191.5t-25.5 191t-30.5 178.5l-10 43q-10 43 -19.5 85t-29.5 84h1
q-3 7 -3.5 14t-0.5 13q2 21 16 39q-3 11 -6 23t-2 25q1 19 9.5 32.5t22 22t29.5 12.5t32 4q24 0 47.5 -7t42.5 -19t31 -27.5t11 -32.5q0 -8 -5 -18q0 -4 1 -7t1 -5l2 -11v-1z" />
    <glyph glyph-name="bracketright" unicode="]" horiz-adv-x="555" 
d="M466 606l36 95q0 3 1 4.5t2 3.5l2 13q-17 -3 -30.5 -4t-25.5 -1q-20 0 -41.5 1.5t-41.5 3.5q-27 3 -51 5.5t-41 7t-27 13.5t-9 25q1 14 15 32.5t44 41.5l-1 -1q40 14 80.5 19t79.5 5h40q48 0 91.5 4.5t79.5 4.5q31 0 49 -8t17 -31q-1 -6 -2.5 -13.5t-4.5 -15.5
q0 -6 5.5 -12t12 -11.5t12.5 -9.5t6 -5v-1q-95 -180 -189 -374.5t-188 -395.5q-13 -27 -21 -52v1q-17 -44 -34 -79t-40 -46v1q-12 -5 -32 -9t-44 -8t-51 -6t-54 -2q-49 0 -87.5 8.5t-49.5 30.5h1q-3 7 -3 14q1 14 14 24.5t32.5 17t42 11t42 7t32.5 3.5t14 2q15 17 31.5 44.5
t33 58.5t31.5 62t26 55l177 416z" />
    <glyph glyph-name="asciicircum" unicode="^" horiz-adv-x="549" 
d="M348 494q-56 -29 -102 -29q-4 0 -7.5 0.5t-6.5 0.5t-6 -0.5t-6 -0.5q-20 0 -38.5 4.5t-32 13t-21 20.5t-6.5 27q1 11 6.5 22.5t14.5 25.5q68 66 136.5 124.5t149.5 112.5q3 2 9.5 7t6.5 4q32 22 56.5 32.5t57.5 10.5q23 0 40.5 -7.5t28.5 -27.5l-1 1q3 -8 2 -15
q0 -12 -8 -22.5t-20 -20.5v-8q0 -2 -0.5 -4.5t-0.5 -4.5q-1 -3 -1 -5q8 -44 11.5 -87.5t4.5 -88.5q5 -22 10 -49t4 -52q-2 -27 -17.5 -48.5t-50.5 -28.5q-20 0 -42 6.5t-30 24.5q1 11 3.5 20t3.5 23q-2 21 -10.5 42.5t-17.5 42.5l-14 32q-24 -26 -51 -50.5t-56 -47.5h1z" />
    <glyph glyph-name="underscore" unicode="_" horiz-adv-x="843" 
d="M749 3q23 -6 37 -26t12 -45t-23.5 -48.5t-66.5 -32.5q-27 -4 -46.5 -10t-43.5 -6q-5 0 -10 0.5t-10 1.5h-137q-46 0 -85.5 -1t-89.5 -2.5t-119 -4t-173 -4.5q-38 8 -57 21.5t-18 28.5q1 21 27 43t68 38q-1 5 -1.5 9.5t-0.5 9.5q1 27 21 39.5t77 12.5q32 0 72.5 -2
t76.5 -4t60.5 -5t24.5 -4q19 1 42 1.5t45 0.5q39 0 81 -1t83.5 -2.5t81 -3.5t73.5 -4h-1z" />
    <glyph glyph-name="grave" unicode="`" horiz-adv-x="292" 
d="M201 804q1 22 11 38t26 26t35 15t38 5q35 0 63 -11.5t36 -40.5q-10 -19 -13 -39t-7 -40q-4 -23 -8 -40t-10.5 -28t-17 -16.5t-26.5 -5.5q-11 0 -21 3t-17 7l-3 12q-5 2 -6.5 3.5t-1.5 3.5l-9 18q-9 13 -20 25.5t-20.5 23t-17 18.5t-9.5 13v-1l-3 10z" />
    <glyph glyph-name="a" unicode="a" horiz-adv-x="546" 
d="M463 483q9 -2 23 -5t26.5 -8t21 -13.5t7.5 -20.5q0 -10 10 -10q5 1 9 1.5t6 0.5q10 0 16 -6.5t9 -16t3.5 -21t0.5 -21.5q-5 -31 -19 -78t-29.5 -96.5t-31 -95t-23.5 -75.5q-3 -26 -29.5 -38.5t-56.5 -12.5q-26 0 -46.5 9t-18.5 26l3 10l-8 5q-9 -13 -27 -24.5
t-42.5 -20.5t-54 -14t-62.5 -5q-31 0 -56.5 5.5t-43.5 17.5t-27 32.5t-7 50.5q1 20 7 47.5t16.5 57t25 59t31.5 55.5q28 36 71.5 73t92 66.5t97 48.5t85.5 19q5 0 10.5 -0.5t10.5 -1.5zM220 75q22 0 40 15t32.5 37.5t26.5 48t22 46.5l15 32q-34 -13 -67 -30.5t-59 -36
t-43 -37t-19 -33.5q-1 -14 13.5 -28t38.5 -14z" />
    <glyph glyph-name="b" unicode="b" horiz-adv-x="540" 
d="M110 -49q-5 -1 -9.5 -1h-8.5q-43 0 -66.5 20.5t-21.5 55.5q1 11 4 23.5t13 29.5q26 72 59.5 150.5t69.5 154.5t73.5 144.5t72 120.5t64 82.5t51.5 30.5q4 0 17 -5q12 28 31.5 42.5t38.5 14.5q20 0 33.5 -15.5t11.5 -42.5q-2 -28 -16.5 -51.5t-31.5 -48.5l-23 -34
q-37 -60 -71.5 -118t-67.5 -117l6 -5l13 7q31 19 66.5 29t65.5 10q51 0 77 -23.5t24 -69.5q-2 -35 -16 -76t-36.5 -82.5t-52 -79.5t-63 -67.5t-68.5 -47.5t-68 -18q-46 0 -94 49q-1 -14 -8 -24t-18.5 -16.5t-25 -11.5t-26.5 -10h1zM257 144q-18 -35 -24 -57t-9 -36
q5 5 18 17t29 28t34 34.5t32.5 36.5t24.5 33.5t12 26.5q1 10 -3.5 25t-17.5 15q-12 0 -27 -17t-29.5 -38.5t-25.5 -41.5t-14 -26z" />
    <glyph glyph-name="c" unicode="c" horiz-adv-x="455" 
d="M507 490q29 -3 40.5 -17.5t10.5 -33.5q-1 -15 -7.5 -29.5t-16.5 -26.5t-21.5 -19.5t-23.5 -8.5q-14 -26 -33 -33t-41 -10q-38 -5 -65.5 -21t-46.5 -36.5t-30.5 -41t-18.5 -35.5q-2 -6 -2 -10q-1 -21 18 -40.5t55 -19.5q6 0 12.5 0.5t11.5 0.5q29 0 43.5 -9.5t13.5 -23.5
q0 -13 -15 -28q-21 -26 -50 -45t-62 -32t-67 -19t-64 -6q-27 0 -50 10t-39.5 29t-25.5 47t-7 63q3 45 20 92.5t46.5 91.5t69 83t86.5 68t99.5 46t108.5 17q25 0 51 -3z" />
    <glyph glyph-name="d" unicode="d" horiz-adv-x="552" 
d="M284 408q14 8 30.5 12t32.5 4q27 0 47.5 -15.5t19.5 -42.5q12 22 17.5 32.5t8 15.5t3.5 8.5t4 11.5l34 75q12 27 32 67t43.5 80.5t47 75t42.5 50.5q14 8 29.5 11.5t28.5 3.5q31 0 51.5 -15.5t19.5 -34.5q-1 -5 -2 -9.5t-1 -9.5q0 -8 2.5 -14.5t6 -12.5t6 -11t2.5 -11
q0 -4 -2 -8q-39 -88 -91.5 -176t-104 -172.5t-95 -164.5t-64.5 -153q-3 -14 -14 -25.5t-26.5 -19.5t-34 -13t-37.5 -5q-9 0 -21 2.5t-22.5 6t-17.5 7t-7 5.5q-6 4 -6 11q0 3 1.5 15t2.5 24q-25 -29 -46 -42.5t-52 -13.5t-58 4t-47 15t-31 30t-9 48q1 28 21 77t56 102
t86.5 101t112.5 73zM214 72q9 -4 20 -4q20 0 32 18t29 51l23 44l7 19q-15 9 -29 9q-17 0 -33 -9.5t-28.5 -24.5t-20 -33.5t-8.5 -35.5q-2 -17 6 -32z" />
    <glyph glyph-name="e" unicode="e" horiz-adv-x="492" 
d="M364 144q-6 -3 -25.5 -7.5t-45 -10t-52.5 -10t-47 -5.5q1 -19 14.5 -27.5t23.5 -8.5q14 0 30.5 5t33.5 11t33.5 11t31.5 5q10 0 20.5 -4.5t18.5 -11.5q5 -20 10.5 -23t11.5 -3q-1 0 1.5 -0.5t5.5 -3.5t5.5 -9.5t1.5 -18.5q-1 -21 -26 -37t-62.5 -27.5t-82 -17.5t-84.5 -6
q-49 0 -82 9t-52.5 26t-27 40.5t-5.5 53.5q2 31 12 64t26 65.5t36 63t43 55.5q30 34 62.5 64t70 53t81 36.5t96.5 13.5q21 0 40.5 -4.5t34.5 -15.5t23 -29.5t7 -47.5q-2 -27 -13 -66v1q-16 -41 -31 -68.5t-34 -47t-44 -35t-60 -31.5v-1zM357 305q1 5 -6 7t-12 2
q-18 0 -34.5 -10t-30.5 -26t-26 -36t-21 -41h4q20 0 42 12t40.5 28.5t31 34.5t12.5 29z" />
    <glyph glyph-name="f" unicode="f" horiz-adv-x="446" 
d="M56 -20q1 11 6.5 33t13.5 49.5t16.5 58t16.5 57.5t14.5 49t8.5 32q-2 2 -6.5 4t-7.5 4q-9 5 -12 9t-4.5 8t-5 9t-14.5 11h-4q-13 0 -19.5 8.5t-5.5 20.5q1 17 16 35.5t47 29.5h-1l112 34q12 32 28 62t34 57t36.5 50t34.5 43l17 21q25 28 56 50.5t63.5 38t63.5 23.5t57 8
q40 0 63 -10t35 -25t14.5 -32t2.5 -30q-1 -17 -8.5 -32.5t-19.5 -26.5t-27 -17.5t-31 -6.5q-23 0 -29 27q-2 -15 -15 -37.5t-32.5 -46t-42.5 -45t-43 -34.5q17 3 36 4t36 2q8 -7 7 -20q-1 -15 -10.5 -32.5t-24.5 -28.5q-14 -17 -27 -27.5t-27.5 -18t-32.5 -13t-42 -11.5
l-28 -6q-13 -23 -29.5 -58.5t-35 -75.5t-37 -80.5t-35 -73t-29 -54t-18.5 -23.5q-22 -27 -44 -38.5t-40 -11.5q-24 0 -39.5 15t-14.5 37q2 13 7 23v2z" />
    <glyph glyph-name="g" unicode="g" horiz-adv-x="552" 
d="M440 453q10 -4 15.5 -11t9 -16t6 -19.5t7.5 -21.5q4 6 13 13t19.5 13.5t22 11.5t19.5 5q21 -2 29 -10.5t9.5 -20t-1 -25t-2.5 -26.5q-3 -44 -21 -104.5t-43 -121t-51 -113t-45 -81.5l-20 -30q-33 -49 -72 -89t-82 -69t-89.5 -45t-95.5 -16q-20 0 -42 2.5t-44 8.5l1 -1
l-8 4q-7 4 -17 10t-19 15t-15 21t-5 28q2 23 17.5 44t41.5 21q14 0 31 -9t39 -9q23 0 41 7t38 16l21 10q27 13 51 33.5t45 44.5t38 48.5t31 45.5l-8 6q-29 -28 -60.5 -36t-66.5 -8q-9 0 -19.5 0.5t-28.5 0.5q-46 2 -65.5 37.5t-16.5 87.5q3 56 28.5 118.5t67.5 111.5
q56 65 120.5 96t121.5 31q15 0 28.5 -2t25.5 -7zM375 203q0 4 -4 8t-10 6.5t-12.5 4t-10.5 1.5q-20 0 -44 -15t-44.5 -35t-35 -40t-14.5 -30q-1 -10 6.5 -14t15.5 -4q32 0 54.5 12.5t40 30.5t31 37.5t26.5 34.5z" />
    <glyph glyph-name="h" unicode="h" horiz-adv-x="601" 
d="M363 369q-3 -8 -8.5 -19.5t-12 -24.5t-12.5 -26.5t-10 -24.5q20 14 29.5 23t17.5 17v-1l19 20h-1q31 27 67 45t71 18q17 0 36 -7.5t34 -20.5t24.5 -31t8.5 -38q-2 -24 -12 -51.5t-21 -54.5q-17 -40 -25.5 -76t-10.5 -65v-20t2 -23q-6 -31 -23.5 -43t-38.5 -12
q-18 0 -35.5 6.5t-31 16.5t-23.5 21.5t-13 20.5l-6 13q2 20 0.5 36.5t-0.5 31.5q1 20 5.5 40.5t15.5 48.5q-26 -12 -49 -25t-43.5 -30t-40 -40t-39.5 -55q-11 -27 -16 -35.5t-10 -10.5t-12 -1.5t-20 -8.5h1l-9 -3q-29 -18 -49.5 -23t-36.5 -5q-19 0 -36 6t-30 17t-20 26
t-6 32q2 13 7 25q32 80 75.5 167.5t89 168.5t89 147.5t75.5 105.5l56 68q-1 5 -1 8.5v7.5q1 19 12.5 34t29.5 24.5t39.5 14.5t42.5 5q30 0 53 -11.5t24 -33.5q-10 -18 -25 -43.5t-31 -51t-30 -47.5t-21 -34q-6 -9 -20 -35t-29.5 -56t-29 -56t-17.5 -35h1z" />
    <glyph glyph-name="i" unicode="i" horiz-adv-x="331" 
d="M219 434q14 24 46 36t62 12t52 -11t20 -34q0 -6 -1 -10v1q-18 -35 -44 -86t-52.5 -105.5t-49.5 -106.5t-36 -91q-14 -36 -26 -55.5t-23 -29t-20.5 -11.5t-18.5 -2.5t-17.5 -2.5t-15.5 -12q-6 -10 -19 -15t-27 -5q-12 0 -24 4t-21 11.5t-14.5 19.5t-4.5 29q1 21 15 51
q9 31 33 86t55.5 116t66 118t64.5 92v1zM515 672q-1 -17 -12 -31.5t-26.5 -25t-34 -17t-35.5 -6.5q-38 0 -56 13t-17 33t25 42.5t72 35.5q8 1 13.5 1.5t10.5 0.5q21 0 33 -5t18 -12t7.5 -15t1.5 -14z" />
    <glyph glyph-name="j" unicode="j" horiz-adv-x="368" 
d="M143 197q14 32 28.5 64t34 62t46 55.5t64.5 43.5q14 10 30.5 15t30.5 5q12 0 19.5 -3t7.5 -11q-1 -20 4 -27t11.5 -11t11.5 -11.5t4 -29.5q-23 -50 -53 -110t-64.5 -122.5t-73 -123.5t-78.5 -113t-81 -90.5t-81 -55.5q-27 -12 -54 -17t-53 -5q-33 0 -62.5 8t-51.5 22
t-34 34t-11 43q0 10 7 26.5t19 33t28.5 28.5t36.5 12q13 0 25 -5t22 -10v1q18 -13 19 -25.5t7 -28.5l17 -15q10 2 18 9l23 23q20 28 38 58.5t26 43.5q22 37 36.5 62t24.5 44.5t17.5 35t15.5 32.5zM364 632q1 18 11 34.5t26 29.5t34.5 21t36.5 8q34 0 56.5 -24t20.5 -56
q-1 -21 -10.5 -37t-23 -27t-30 -17t-31.5 -6q-18 0 -34.5 5.5t-29.5 15.5t-20 23.5t-6 29.5z" />
    <glyph glyph-name="k" unicode="k" horiz-adv-x="486" 
d="M355 793q16 15 33 21.5t36 6.5q20 0 38 -7t31.5 -20t21 -30t6.5 -37q-1 -2 -1 -6l-17 -31l9 -13q5 -8 9.5 -13.5t3.5 -16.5v-5v-2q-1 -13 -19.5 -39t-47.5 -62t-64.5 -82t-70.5 -99l37 8l46 10q21 5 46.5 10t47.5 5q12 0 23.5 -4t21.5 -11.5t16 -18t6 -24.5
q-8 -11 -24.5 -24t-36 -26.5t-40.5 -26t-38 -22.5h1l-24 -13q-41 -27 -64 -43t-34.5 -24.5t-15 -12.5t-4.5 -8q0 -7 6 -10h-1q9 -7 16.5 -9.5t17.5 -6.5q10 -5 26 -12t31 -17.5t25 -25t9 -33.5q0 -11 -4 -22.5t-12.5 -21.5t-21 -16t-29.5 -6q-19 0 -45 10v-1
q-26 14 -60.5 48.5t-69.5 85.5l-72 -148l1 1q-11 -16 -30 -24t-39 -8q-35 0 -45.5 18.5t-9.5 39.5q0 9 5 20t14 28.5t22 44t29 68.5l2 8q-12 9 -18 23.5t-5 31.5q1 15 8.5 32.5t21.5 31.5q23 7 51 19q9 25 21.5 51t26 52t26.5 52.5t23 51.5q32 77 73.5 152.5t74.5 151.5z
" />
    <glyph glyph-name="l" unicode="l" horiz-adv-x="304" 
d="M149 -29q-23 -19 -53.5 -32.5t-50.5 -13.5q-23 0 -22 22q0 11 -5.5 14.5t-12.5 5.5t-13 5t-5 13q0 4 2.5 12t6.5 17l32 76q26 60 61 135t79.5 159t100 174.5t123.5 180.5q3 4 11.5 16t22 25t32 23.5t42.5 10.5q13 0 28 -4q0 -2 -0.5 -3.5t-0.5 -3.5q-1 -10 3.5 -18.5
t10.5 -17.5t10.5 -18t4.5 -20q0 -3 -2 -9l1 1q-88 -146 -164 -288.5t-142 -282.5q-17 -36 -28.5 -63.5t-22 -49t-22 -38t-27.5 -28.5z" />
    <glyph glyph-name="m" unicode="m" horiz-adv-x="777" 
d="M226 437q6 19 29 29.5t50 10.5q25 0 47 -14t26 -46q36 26 77 45.5t73 19.5q38 0 58 -34q30 23 63 41t68 27q25 -1 53.5 -8t43.5 -21h-1q14 -14 22 -30t6 -38q-1 -25 -9.5 -61t-21.5 -76.5t-29 -82.5t-32.5 -80t-31 -68t-25.5 -47q-8 -10 -15 -13.5t-14 -3.5q-6 0 -11.5 2
t-10.5 2q-12 0 -17 -16q-11 -12 -27.5 -17.5t-34.5 -5.5q-15 0 -28.5 4t-24 11.5t-17 18.5t-5.5 25q0 13 9 28q14 32 34 71t41.5 79.5t43 78.5t38.5 68l-8 5q-15 -15 -34 -38.5t-38 -49t-36.5 -49t-29.5 -37.5l-13 -17q-23 -38 -50.5 -61t-65.5 -23q-20 0 -32 9.5t-17 26.5
v-1l-2 10t0 12q1 14 7 38.5t22 69.5l-3 -3q-35 -23 -62 -59.5t-61 -94.5v1q-9 -12 -20 -36t-30.5 -47.5t-51.5 -41.5t-83 -18q-14 0 -27.5 1t-24 4t-17 8t-6.5 13q0 2 2 6q13 36 35 82.5t47 97.5t49.5 102t42.5 95q11 19 19.5 36.5t16 30.5t14.5 20.5t15 7.5q2 0 8 -2z" />
    <glyph glyph-name="n" unicode="n" horiz-adv-x="662" 
d="M190 388q23 28 33 37.5t16 9.5q3 0 10 -5q22 8 36 11t24 3q22 0 27 -15t4 -29q0 -11 -2 -19q21 19 54.5 37t72.5 32t79.5 23t73.5 9q60 0 84.5 -27.5t21.5 -75.5q-2 -42 -21.5 -93.5t-49.5 -106.5v1q-11 -17 -19.5 -31.5t-15.5 -25.5q-11 -18 -30.5 -45t-45.5 -52.5
t-59.5 -43.5t-72.5 -18q-21 0 -35.5 7t-13.5 21q0 3 2 7t4 9l58 107q32 59 51 95.5t21 57.5q0 20 -16 20q-20 0 -48.5 -26t-61.5 -66t-69 -89t-71 -94q-12 -16 -19.5 -20t-12.5 -5.5t-8.5 -4t-8.5 -14.5q-3 -9 -13.5 -16t-25.5 -12t-32.5 -7.5t-35.5 -2.5q-8 0 -23.5 1.5
t-31 6t-26.5 13t-10 21.5q1 20 15 56.5t35.5 80.5t46.5 90.5t47.5 86t39.5 67t22 34.5z" />
    <glyph glyph-name="o" unicode="o" horiz-adv-x="534" 
d="M225 426q15 8 32 8q10 0 16 -1.5t17 -1.5q23 33 48.5 41.5t46.5 8.5q14 0 29 2t27 2q41 0 69.5 -11t46 -30t24.5 -46t5 -58q-2 -40 -16.5 -86.5t-39.5 -93t-60 -90t-77 -77.5q-41 -29 -83.5 -39t-77.5 -12q-32 0 -68.5 1.5t-66.5 14t-49 40t-16 79.5q2 45 20.5 98.5
t46 103t61 89t65.5 58.5zM360 230q-11 -3 -21.5 -5t-20.5 -2h-6q-8 -9 -27.5 -24t-40 -35t-37 -43t-17.5 -48q-1 -19 10 -20t28 -1q34 0 59.5 17t42 43t25.5 56.5t11 56.5z" />
    <glyph glyph-name="p" unicode="p" horiz-adv-x="598" 
d="M323 406q51 57 106.5 78t126.5 21q31 0 51.5 -10t32.5 -26.5t16 -37.5t3 -44q-3 -50 -22 -97t-45 -104.5t-65 -113.5t-94 -104t-132 -76q-17 -6 -34.5 -9.5t-33.5 -3.5q-26 0 -45.5 12.5t-24.5 40.5q-32 -62 -64.5 -126.5t-72.5 -118.5q-17 -9 -38 -15t-40 -6
q-17 0 -29 6.5t-19.5 17t-10.5 22.5t-2 23q1 16 6.5 34.5t17 43.5t28 57t39.5 75q10 18 20.5 37t19.5 37h-1q5 9 14 24t17.5 30.5t16 28.5t9.5 18h-1q14 27 29 56t32 64q6 12 16.5 32t23 42t25 41.5t21.5 30.5q19 17 37.5 21t41.5 5zM437 289q0 13 -8 12.5t-21 -9t-28 -22.5
t-29 -27.5t-24.5 -24.5t-12.5 -13l-19 -32q-6 -10 -9 -16t-9 -15h1q-10 -17 -20.5 -36t-20.5 -36q9 -9 14 -25q26 19 57 47t58.5 60t47.5 67.5t23 69.5z" />
    <glyph glyph-name="q" unicode="q" horiz-adv-x="586" 
d="M199 383q27 18 58.5 33t64 26.5t63 18t55.5 6.5q29 0 44.5 -10.5t18.5 -39.5q31 20 59 37t43 17q12 0 24 -5.5t22 -14t16.5 -19.5t5.5 -23q-3 -5 -3 -7q-41 -77 -72 -133.5t-56.5 -100.5t-46 -79t-39.5 -69t-38 -71.5t-40 -85.5q29 12 46.5 16.5t28.5 4.5q32 0 30 -28
q-1 -18 -14.5 -42.5t-34.5 -49t-48 -46t-55 -33.5h1q-32 -9 -52 -9q-29 0 -53 8t-41 21.5t-26.5 32t-8.5 40.5q1 27 5.5 47t11 37t15.5 32.5t20 32.5l20 33q-6 -10 -19.5 -17t-31 -11t-37 -6t-37.5 -2q-65 0 -89 25.5t-21 76.5q3 53 20.5 105.5t46 100t66 86.5t78.5 65z
M234 89q74 38 109 151q-34 -4 -57 -9t-41 -14.5t-33.5 -25.5t-34.5 -43q-3 -5 -9 -18.5t-7 -27.5q-2 -23 26 -23q14 0 28 4t19 6z" />
    <glyph glyph-name="r" unicode="r" horiz-adv-x="407" 
d="M187 415q12 20 26.5 34.5t30 24t30.5 14t27 4.5q25 0 23 -26q0 -5 -2 -11t-4 -13q15 12 38.5 25t49 24.5t49 18.5t38.5 7q17 0 17 -13q0 -9 -9 -22q25 -5 23 -33q-1 -13 -8 -27.5t-20.5 -28.5t-33 -26t-46.5 -18q-32 -10 -62.5 -40.5t-58 -74t-51.5 -96t-45 -105.5
q-9 -21 -27 -39t-39.5 -31.5t-45 -21t-43.5 -7.5q-24 0 -39 11t-13 37q1 14 9 38t21 52.5t28.5 60t30.5 61t28 54.5t21 41z" />
    <glyph glyph-name="s" unicode="s" horiz-adv-x="516" 
d="M355 -25q-47 -33 -105.5 -50t-115.5 -17q-33 0 -63.5 6.5t-53.5 19.5t-36 31.5t-12 41.5q1 20 12 33t28 13q3 0 6.5 -0.5t6.5 -0.5q13 0 20.5 8t13 17.5t11 17.5t15.5 8h34q30 0 58 1.5t50.5 6t37.5 11.5t20 19q-11 13 -24 20t-27 14q-17 8 -32.5 17t-27 21.5t-18 30
t-5.5 41.5q2 31 15 53q4 34 37 64.5t80 53t102 36t104 13.5q27 0 42 -6.5t22.5 -16t9.5 -21.5t1 -23q-1 -24 -23.5 -46.5t-64.5 -33.5q-41 -7 -58 -11.5t-23 -7.5t-8.5 -5.5t-14.5 -6.5q21 -17 40.5 -36t34.5 -40t23 -45.5t7 -51.5q-2 -21 -8 -43.5t-20 -48.5
q-1 -10 -8.5 -20.5t-18.5 -21t-24 -19.5t-24 -16l-16 -10v0z" />
    <glyph glyph-name="t" unicode="t" horiz-adv-x="446" 
d="M607 738q-8 -16 -13.5 -26.5t-10 -18t-9.5 -14.5t-11 -16l-71 -106q-5 -5 -8.5 -9.5t-7.5 -7.5l-18 -17q15 3 25.5 5t19 3.5t16 2.5t18.5 2q9 -2 22.5 -2.5t25.5 -3t20 -9.5t7 -22q-2 -20 -17.5 -41t-40.5 -23l-25 -6q-29 -7 -54 -13t-53 -7l-8 -7q-15 -25 -34.5 -63
t-41.5 -82t-46 -91t-47 -90t-44 -79t-38 -57q-11 -15 -20.5 -16.5t-25.5 -8.5q-13 1 -27 4.5t-26 9.5t-19 13.5t-7 17.5l1.5 7.5t2.5 7.5q10 36 27 82.5t37.5 98t44 106t46.5 105.5q-22 0 -31.5 -2t-14.5 -4t-10.5 -4t-18.5 -3q-15 2 -24.5 14t-8.5 30q1 16 12.5 33t40.5 29
h-1q32 8 45 12.5t20.5 7.5t16.5 6.5t34 9.5l15 4q2 2 5.5 2.5t13.5 0.5l13 32q12 29 25 59.5t29 60.5t34.5 58t40.5 52q12 18 18.5 24t14 8.5t18.5 5.5t32 15q10 13 26 13q12 0 25 -5.5t23.5 -15t17 -22.5t5.5 -28q0 -7 -1.5 -13t-3.5 -9h-1z" />
    <glyph glyph-name="u" unicode="u" horiz-adv-x="616" 
d="M19 67q13 80 62.5 174t134.5 197q42 33 85 33q31 0 52 -17t19 -43q-1 -9 -4.5 -20t-10.5 -22q-44 -50 -80 -116t-65 -129q43 24 76 50t60 53.5t49.5 56t45.5 58.5l49 67l41 51q9 17 24 21.5t32 4.5h13q27 0 49 8.5t40 8.5q12 0 22.5 -4.5t19 -11t13 -15.5t3.5 -18
q0 -8 -4 -15q-32 -48 -64 -108.5t-62.5 -121t-57.5 -115t-49 -91.5v1q-26 -26 -58.5 -37.5t-62.5 -11.5q-32 0 -54 12t-20 33q0 11 8 22l-6 6q-40 -29 -84 -50t-95 -21q-25 0 -48 6t-40 18t-26.5 31t-8.5 45q2 6 2 11v-1v0z" />
    <glyph glyph-name="v" unicode="v" horiz-adv-x="519" 
d="M302 447q-5 -58 -13.5 -127.5t-13.5 -136.5q16 24 33 52.5t34 54.5q22 36 48.5 78.5t59.5 79.5t72 62t86 25q17 0 29 -6.5t11 -20.5q0 -9 -10 -27q14 -11 19.5 -21.5t5.5 -19.5q-2 -16 -13.5 -31t-25.5 -28q-34 -44 -64.5 -83.5t-60 -77t-59.5 -75t-63 -76.5
q-18 -20 -45 -43.5t-57 -44t-60.5 -34.5t-55.5 -14q-11 0 -20.5 3t-17.5 10q-31 4 -54.5 19t-31.5 41v-1q-2 5 -2 11.5v14.5q1 22 7 50t15 59t19.5 62.5t19.5 59.5q7 18 11.5 32.5t8.5 27l8 25t10 27.5l10 30q1 14 7 30.5t18 30.5t30 23.5t42 9.5q26 0 45.5 -11.5
t17.5 -39.5z" />
    <glyph glyph-name="w" unicode="w" horiz-adv-x="719" 
d="M520 291q-3 -7 -9 -17t-6 -20q0 -2 2 -2t13 9.5t26 25t32 34.5t31.5 38t24 36t10.5 29v9q0 4 1 6q2 32 24 54.5t58 22.5q21 0 37 -1.5t29 -8t23 -19.5t18 -35v1q1 -3 1 -10q-1 -17 -12.5 -47t-30 -67t-42 -78.5t-48 -80.5t-48 -73.5t-41.5 -58.5q-15 -17 -35 -30.5
t-42.5 -22.5t-46 -14t-45.5 -5q-67 0 -97 39.5t-27 108.5q1 7 1.5 15.5t1.5 16.5l-9 2q-16 -35 -41 -69t-57 -61.5t-69.5 -44.5t-78.5 -17q-20 0 -32.5 4.5t-20 12t-10 17t-2.5 19.5q8 31 21.5 68t29.5 71q14 30 31.5 71t34 81.5t30 74.5t20.5 50q11 16 31 24.5t38 8.5
q21 0 33.5 -13.5t19 -33t8.5 -40.5t1 -37q-1 -11 -3 -22.5t-3 -23.5q40 42 67 62.5t55 30.5l10 3q9 3 16 5.5t16 3.5l17 2q11 2 23.5 3.5t23.5 1.5t19 -3t8 -13q-1 -2 -1.5 -5.5t-2.5 -7.5z" />
    <glyph glyph-name="x" unicode="x" horiz-adv-x="477" 
d="M395 398q7 7 28 25t45 36.5t46 32.5t33 14q24 0 42.5 -17t16.5 -43q-1 -13 -22 -40.5t-51 -59.5t-62.5 -63t-55.5 -49q1 -11 0.5 -23.5t-1.5 -26.5q-2 -36 -6 -75t-6 -71q0 -13 0.5 -24t3.5 -18q-1 -11 -11.5 -19t-25.5 -13.5t-32.5 -8t-32.5 -2.5q-17 0 -26 4.5t-14 15
t-7.5 29t-5.5 45.5l-4 36l-59 -59l-31 -31q-12 -12 -25.5 -27t-41.5 -27v1q-11 -4 -24 -6.5t-27 -2.5q-13 0 -23.5 5.5t-18 13t-11.5 15.5t-4 13q2 32 26.5 68.5t58.5 72.5t71 70.5t64 63.5q-6 13 -7 28.5t-1 31.5t-0.5 31.5t-5.5 29.5q-16 5 -24.5 12.5t-7.5 21.5
q1 24 16.5 42.5t36 31t41 18.5t32.5 6q19 0 35 -6t27 -17q6 -4 14.5 -14t16.5 -22t13.5 -25.5t6.5 -23.5z" />
    <glyph glyph-name="y" unicode="y" horiz-adv-x="526" 
d="M103 373q-2 6 0 12q2 32 20.5 45.5t42.5 13.5q16 0 33 -6t32.5 -16.5t28 -25t18.5 -32.5q-2 -24 -17 -55t-33 -64.5t-33.5 -68.5t-18.5 -66q34 19 61.5 51.5t51.5 69.5t46 73.5t46 65.5q5 7 16 21.5t24 29t26 25.5t23 11q7 0 17.5 -2t22 -5t23 -5t20.5 -2q10 0 15 3
q18 11 27 13.5t17 2.5q23 0 43 -13t18 -36q-1 -12 -10.5 -21.5t-26.5 -20.5q-31 -29 -65.5 -70.5t-68 -88t-64.5 -94t-56 -87.5l-20 -32q17 -12 27.5 -28t9.5 -34q0 -9 -3.5 -18.5t-8.5 -18.5q-36 -26 -58.5 -47t-36 -39t-20.5 -32.5t-11 -27.5q-4 -9 -11 -22.5t-18 -25.5
t-26.5 -20.5t-36.5 -8.5q-15 0 -31 6.5t-29 18t-21 27t-7 32.5q2 23 16 46t32 46l20 27q14 20 27.5 41t29.5 41l17 26l-5 6q-23 -11 -44.5 -18.5t-43.5 -7.5q-16 0 -32.5 5t-29.5 16.5t-21 30t-6 46.5q1 31 10.5 68t21 75.5t20.5 74.5t11 65v12.5t-1 11.5z" />
    <glyph glyph-name="z" unicode="z" horiz-adv-x="528" 
d="M293 89q11 3 21 4t21 1q20 0 39 -4.5t33.5 -13t23.5 -21.5t8 -31q-1 -23 -22 -55l-34 -6q-27 -5 -65.5 -10.5t-80.5 -11t-84 -9.5t-76 -4q-27 0 -44 2.5t-26 8t-12 14.5t-2 23q2 33 23 66.5t51.5 65t66 60.5t65.5 54t50 44.5t21 31.5q0 1 -0.5 2t-0.5 3q-13 2 -17 3.5
t-6 3.5q-18 7 -33 10.5t-25 7t-15.5 9.5t-4.5 20q2 35 41 62.5t96 46.5t121 30t117 14q7 0 9.5 -7t5 -15.5t8 -15.5t19.5 -7q3 0 7 0.5t7 0.5q11 0 16 -8t4 -22q-1 -15 -7.5 -34.5t-17.5 -38.5t-26 -36t-33 -28q-55 -47 -89.5 -76t-59.5 -49t-46 -37t-50 -39z" />
    <glyph glyph-name="braceleft" unicode="{" horiz-adv-x="516" 
d="M456 783q6 6 20.5 14t34.5 15.5t44 13t49 5.5q22 0 41.5 -5.5t33 -14.5t21 -19t7.5 -19q-1 -14 -15 -29t-48 -30h1l-17 -5q-4 0 -9 -1q-30 -24 -42 -52.5t-18 -57t-12.5 -56t-24.5 -50.5q-23 -30 -41.5 -50.5t-37 -35.5t-41 -26t-54.5 -21q8 -5 10.5 -8t2.5 -5
q0 -4 -4.5 -9.5t-9.5 -13t-9.5 -16.5t-4.5 -18l-1 -8q-3 -24 -14.5 -48.5t-25.5 -48.5h1q-13 -23 -23.5 -45.5t-12.5 -43.5q-1 -26 17.5 -46t41.5 -39t41.5 -38t17.5 -43q-1 -7 -2.5 -13.5t-5.5 -13.5v2l-6 -8h1q-28 -25 -56.5 -34.5t-60.5 -9.5q-23 0 -47.5 3.5t-44.5 14.5
q-17 9 -35.5 28.5t-33.5 42.5t-25 45.5t-9 39.5q2 29 19.5 58t34.5 54l5 8q-1 -1 -1 -2t-1 -1l13 17t29.5 41t30.5 50t15 44q1 9 -3 17.5t-13 13.5q-5 0 -18 4t-27 10t-24.5 13.5t-10.5 14.5q0 8 8.5 15t19.5 11.5t23.5 7t20.5 2.5h7q36 6 72 16t66.5 25t51 36t24.5 50h-10
v-1q-1 0 -2 12.5t-1.5 30t-1 37.5t0.5 35q1 25 6.5 43t15 33.5t23.5 30t33 31.5z" />
    <glyph glyph-name="bar" unicode="|" horiz-adv-x="431" 
d="M329 707q16 45 28 73.5t35 51.5q12 12 26.5 22.5t29 18.5t28 13t23.5 5q9 0 15 -5.5t5 -19.5q-1 -12 5.5 -15t14.5 -5t14.5 -6t6.5 -16q-1 -5 -2.5 -13t-5.5 -19v1q-8 -21 -17.5 -48t-19.5 -54q-24 -69 -56.5 -155t-74.5 -182t-94 -199t-115 -205l-12 -15
q-8 -10 -16.5 -22.5t-19.5 -23.5t-25 -18t-32 -7q-5 0 -10.5 1t-12.5 3q1 14 -4.5 25t-12 21t-12 20.5t-4.5 23.5q0 3 2 9v-1q42 84 79 165.5t71.5 163t67 163.5t65.5 168l30 81v0z" />
    <glyph glyph-name="braceright" unicode="}" horiz-adv-x="592" 
d="M268 -98q-9 -9 -27 -19.5t-40 -19t-44.5 -14t-39.5 -5.5q-23 0 -41.5 6t-32 15t-21 19.5t-7.5 18.5q1 13 15 28t45 32l-1 -1l27 7q26 22 34 45.5t10 47.5q1 14 0.5 27t0.5 27q2 47 28.5 82t65.5 60t84.5 41.5t85.5 26.5q-44 28 -43 74q2 32 17 65t30 67l22 47q-1 7 0 13
q0 14 3.5 23t4.5 20q0 5 -1.5 12t-6.5 15q-9 5 -13 9q-2 2 -3 2v1v1l-25 22q-18 1 -34 5t-28 11t-18.5 18t-5.5 25q0 8 5 21l8 8q29 28 61 38.5t67 10.5q11 0 22.5 -2t25.5 -2q36 -8 59 -28.5t36 -46.5t17.5 -55.5t3.5 -56.5q-2 -26 -9 -52t-19 -43l-15 -22
q-9 -13 -20 -29.5t-21 -33.5t-16.5 -33.5t-7.5 -29.5q0 -10 4 -18t15 -14q5 0 18.5 -4.5t28 -10.5t26 -12.5t11.5 -10.5q-1 -5 -6 -11.5t-18 -14.5h1q-15 -8 -28 -10.5t-26 -2.5q-30 -7 -64 -17.5t-64 -25t-52 -33t-28 -41.5q3 6 4 6l3 -10.5t5.5 -28.5t4 -43.5t0.5 -55.5
q-2 -45 -20.5 -75.5t-52.5 -64.5z" />
    <glyph glyph-name="asciitilde" unicode="~" horiz-adv-x="474" 
d="M317 273q-9 2 -17.5 12t-18 21.5t-20.5 20.5t-25 9q-3 0 -5.5 -0.5t-5.5 -1.5q-12 -9 -26 -20.5t-28 -22t-26.5 -17.5t-22.5 -7q-12 0 -22 6.5t-17 16.5t-11 21t-4 19q2 30 27.5 64.5t66.5 59.5h-1l40 23q22 12 42.5 20.5t38.5 8.5q24 0 40.5 -13.5t18.5 -39.5
q2 -17 12 -35t23 -33q28 1 56 14l42 34q11 6 22 10.5t19 4.5q22 0 21 -33q-1 -20 -19.5 -39.5t-41.5 -35.5q-39 -36 -66.5 -54t-56.5 -18q-13 0 -35 5z" />
    <glyph glyph-name="Aring" horiz-adv-x="574" 
d="M545 751q19 8 37.5 14.5t33.5 6.5q16 0 31.5 -3.5t27.5 -10.5t19 -17t6 -22q0 -15 -19 -38q30 -16 36 -51q-29 -76 -55.5 -151t-52.5 -149.5t-53 -149.5t-57 -151l-10 -22q-4 -11 -7 -20t-8 -20q-16 -14 -38 -22t-43 -8q-13 0 -26.5 2.5t-25 8t-18.5 13.5t-7 19
q1 14 12.5 39.5t17.5 54.5l14 47q-17 -4 -32.5 -11t-28 -14.5t-22 -13.5t-14.5 -9q-14 -8 -24.5 -10.5t-19 -3t-16 -2t-14.5 -6.5q-38 -53 -78 -88t-86 -35q-10 0 -20.5 3.5t-18.5 10.5t-13.5 18t-4.5 27q1 19 10.5 46t21.5 52.5t23 46t16 28.5q48 79 102 158t114 153.5
t126 143t140 127.5l-1 -1zM294 209l94 3q14 44 28.5 89.5t30.5 89.5l29 83l-8 4l-53 -62q-8 -16 -18.5 -34.5t-19.5 -34.5zM575 1032q25 21 64.5 35t73.5 19q18 8 42 13t49 5.5t49 -2.5t41 -12q40 -21 58.5 -51.5t16.5 -65.5t-24.5 -72t-68.5 -69q-21 -15 -49 -25t-57.5 -16
t-58 -7.5t-50.5 -0.5q-19 2 -38.5 4t-39.5 5q-5 1 -12.5 6l-15 10t-13.5 10t-8 7q-17 14 -24 32t-5 39q2 36 21.5 73t48.5 63zM786 936q0 -1 1.5 1t3.5 7q-33 -7 -59 -9q-5 1 -11.5 1.5t-14.5 0.5q-4 0 -9.5 0.5t-8.5 0.5q-17 -16 -24.5 -38.5t9.5 -33.5q14 -9 33.5 -6.5
t37.5 12.5t30.5 26t12.5 34z" />
    <glyph glyph-name="ccedilla" horiz-adv-x="440" 
d="M-43 -325q-14 2 -24 12.5t-8 34.5q0 5 1 10l2 10v-1q7 14 13.5 26.5t16 22.5t23 15.5t33.5 5.5q8 0 12.5 -3.5t12.5 -9.5l14 -13q6 2 9 2h6q59 3 89 13.5t31 23.5q1 8 -11 16h-19q-16 0 -32.5 1t-30 5.5t-21.5 12.5t-7 22q1 12 5.5 23t22.5 32v-1l12 16q-38 14 -60.5 52
t-20.5 92q4 69 40.5 139.5t95.5 128t135.5 94t159.5 36.5q55 0 79.5 -12.5t22.5 -41.5q-1 -15 -8 -29.5t-16.5 -26.5t-21.5 -19.5t-23 -8.5q-14 -26 -33 -33t-42 -10q-39 -5 -66 -21t-45.5 -36.5t-30.5 -41t-19 -35.5q-1 -2 -1 -4.5t-1 -5.5q-1 -21 18.5 -40.5t54.5 -19.5
q6 0 12.5 0.5t12.5 0.5q29 0 43 -9.5t13 -23.5q0 -13 -15 -28q-19 -24 -44.5 -42t-54.5 -31t-60 -20t-60 -9l-21 -32q17 -2 28.5 -6.5t33.5 -9.5h-1l10 -3q25 -9 41.5 -20.5t14.5 -40.5q-1 -23 -12.5 -43t-28.5 -36.5t-39 -30t-44 -25.5q-14 -8 -32 -13.5t-37.5 -9
t-39.5 -5.5t-38 -2q-28 0 -49 6h-1z" />
    <glyph glyph-name="eacute" horiz-adv-x="468" 
d="M364 144q-6 -3 -25.5 -7.5t-45 -10t-52.5 -10t-47 -5.5q1 -19 14.5 -27.5t23.5 -8.5q14 0 30.5 5t33.5 11t33.5 11t31.5 5q10 0 20.5 -4.5t18.5 -11.5q5 -20 10.5 -23t11.5 -3q-1 0 1.5 -0.5t5.5 -3.5t5.5 -9.5t1.5 -18.5q-1 -21 -26 -37t-62.5 -27.5t-82 -17.5t-84.5 -6
q-49 0 -82 9t-52.5 26t-27 40.5t-5.5 53.5q2 31 12 64t26 65.5t36 63t43 55.5q30 34 62.5 64t70 53t81 36.5t96.5 13.5q21 0 40.5 -4.5t34.5 -15.5t23 -29.5t7 -47.5q-2 -27 -13 -66v1q-16 -41 -31 -68.5t-34 -47t-44 -35t-60 -31.5v-1zM357 305q1 5 -6 7t-12 2
q-18 0 -34.5 -10t-30.5 -26t-26 -36t-21 -41h4q20 0 42 12t40.5 28.5t31 34.5t12.5 29zM536 771q15 7 38 7q14 0 28 -3t24.5 -8.5t16.5 -13.5t6 -19q-1 -9 -9.5 -25.5t-22.5 -31.5q-126 -105 -191 -105q-14 0 -24 5t-10 18q1 6 3.5 14.5t9.5 18.5v-1l7 7q8 24 24.5 47.5
t35.5 43t36.5 32t26.5 14.5h1z" />
    <glyph glyph-name="egrave" horiz-adv-x="468" 
d="M364 144q-6 -3 -25.5 -7.5t-45 -10t-52.5 -10t-47 -5.5q1 -19 14.5 -27.5t23.5 -8.5q14 0 30.5 5t33.5 11t33.5 11t31.5 5q10 0 20.5 -4.5t18.5 -11.5q5 -20 10.5 -23t11.5 -3q-1 0 1.5 -0.5t5.5 -3.5t5.5 -9.5t1.5 -18.5q-1 -21 -26 -37t-62.5 -27.5t-82 -17.5t-84.5 -6
q-49 0 -82 9t-52.5 26t-27 40.5t-5.5 53.5q2 31 12 64t26 65.5t36 63t43 55.5q30 34 62.5 64t70 53t81 36.5t96.5 13.5q21 0 40.5 -4.5t34.5 -15.5t23 -29.5t7 -47.5q-2 -27 -13 -66v1q-16 -41 -31 -68.5t-34 -47t-44 -35t-60 -31.5v-1zM357 305q1 5 -6 7t-12 2
q-18 0 -34.5 -10t-30.5 -26t-26 -36t-21 -41h4q20 0 42 12t40.5 28.5t31 34.5t12.5 29zM387 717q1 22 11 38t26 26t35 15t38 5q35 0 63 -11.5t36 -40.5q-10 -19 -13 -39t-7 -40q-4 -23 -8 -40t-10.5 -28t-17 -16.5t-26.5 -5.5q-11 0 -21 3t-17 7l-3 12q-5 2 -6.5 3.5
t-1.5 3.5l-9 18q-9 13 -20 25.5t-20.5 23t-17 18.5t-9.5 13v-1l-3 10z" />
    <glyph glyph-name="ecircumflex" horiz-adv-x="468" 
d="M364 144q-6 -3 -25.5 -7.5t-45 -10t-52.5 -10t-47 -5.5q1 -19 14.5 -27.5t23.5 -8.5q14 0 30.5 5t33.5 11t33.5 11t31.5 5q10 0 20.5 -4.5t18.5 -11.5q5 -20 10.5 -23t11.5 -3q-1 0 1.5 -0.5t5.5 -3.5t5.5 -9.5t1.5 -18.5q-1 -21 -26 -37t-62.5 -27.5t-82 -17.5t-84.5 -6
q-49 0 -82 9t-52.5 26t-27 40.5t-5.5 53.5q2 31 12 64t26 65.5t36 63t43 55.5q30 34 62.5 64t70 53t81 36.5t96.5 13.5q21 0 40.5 -4.5t34.5 -15.5t23 -29.5t7 -47.5q-2 -27 -13 -66v1q-16 -41 -31 -68.5t-34 -47t-44 -35t-60 -31.5v-1zM357 305q1 5 -6 7t-12 2
q-18 0 -34.5 -10t-30.5 -26t-26 -36t-21 -41h4q20 0 42 12t40.5 28.5t31 34.5t12.5 29zM438 553q-37 -26 -73 -38t-57 -12q-13 0 -21.5 4.5t-7.5 14.5q0 15 22 43q59 58 117 110t129 107q3 3 5 4t6 4h-1q32 26 61 40.5t51 14.5q12 0 21 -9q0 -3 -5 -12.5t-11 -19.5
q-7 -11 -16 -25q1 -8 0.5 -18.5t-1.5 -20.5q-1 -19 -3.5 -37.5t-5.5 -37.5q2 -9 2.5 -20t-0.5 -22t-6 -26.5t-15.5 -30.5t-28.5 -25.5t-44 -10.5q-14 0 -18 8q2 7 4.5 13t6.5 14q0 17 -2.5 30t-6.5 24l-9 23l-46 -46t-47 -43z" />
    <glyph glyph-name="ugrave" horiz-adv-x="616" 
d="M19 67q13 80 62.5 174t134.5 197q42 33 85 33q31 0 52 -17t19 -43q-1 -9 -4.5 -20t-10.5 -22q-44 -50 -80 -116t-65 -129q43 24 76 50t60 53.5t49.5 56t45.5 58.5l49 67l41 51q9 17 24 21.5t32 4.5h13q27 0 49 8.5t40 8.5q12 0 22.5 -4.5t19 -11t13 -15.5t3.5 -18
q0 -8 -4 -15q-32 -48 -64 -108.5t-62.5 -121t-57.5 -115t-49 -91.5v1q-26 -26 -58.5 -37.5t-62.5 -11.5q-32 0 -54 12t-20 33q0 11 8 22l-6 6q-40 -29 -84 -50t-95 -21q-25 0 -48 6t-40 18t-26.5 31t-8.5 45q2 6 2 11v-1v0zM437 720q1 22 11 38t26 26t35 15t38 5
q35 0 63 -11.5t36 -40.5q-10 -19 -13 -39t-7 -40q-4 -23 -8 -40t-10.5 -28t-17 -16.5t-26.5 -5.5q-11 0 -21 3t-17 7l-3 12q-5 2 -6.5 3.5t-1.5 3.5l-9 18q-9 13 -20 25.5t-20.5 23t-17 18.5t-9.5 13v-1l-3 10z" />
    <glyph glyph-name="ucircumflex" horiz-adv-x="616" 
d="M19 67q13 80 62.5 174t134.5 197q42 33 85 33q31 0 52 -17t19 -43q-1 -9 -4.5 -20t-10.5 -22q-44 -50 -80 -116t-65 -129q43 24 76 50t60 53.5t49.5 56t45.5 58.5l49 67l41 51q9 17 24 21.5t32 4.5h13q27 0 49 8.5t40 8.5q12 0 22.5 -4.5t19 -11t13 -15.5t3.5 -18
q0 -8 -4 -15q-32 -48 -64 -108.5t-62.5 -121t-57.5 -115t-49 -91.5v1q-26 -26 -58.5 -37.5t-62.5 -11.5q-32 0 -54 12t-20 33q0 11 8 22l-6 6q-40 -29 -84 -50t-95 -21q-25 0 -48 6t-40 18t-26.5 31t-8.5 45q2 6 2 11v-1v0zM525 562q-37 -26 -73 -38t-57 -12
q-13 0 -21.5 4.5t-7.5 14.5q0 15 22 43q59 58 117 110t129 107q3 3 5 4t6 4h-1q32 26 61 40.5t51 14.5q12 0 21 -9q0 -3 -5 -12.5t-11 -19.5q-7 -11 -16 -25q1 -8 0.5 -18.5t-1.5 -20.5q-1 -19 -3.5 -37.5t-5.5 -37.5q2 -9 2.5 -20t-0.5 -22t-6 -26.5t-15.5 -30.5
t-28.5 -25.5t-44 -10.5q-14 0 -18 8q2 7 4.5 13t6.5 14q0 17 -2.5 30t-6.5 24l-9 23l-46 -46t-47 -43z" />
    <glyph glyph-name="dagger" unicode="&#xa0;" horiz-adv-x="404" 
d="M58 343q-35 0 -55.5 13t-19.5 32q1 14 16.5 27.5t48.5 26.5l19 2q10 23 42.5 40.5t89.5 26.5q9 28 19 57t21 58l30 81q16 45 28.5 73.5t34.5 51.5q12 12 26.5 22.5t29 18.5t28 13t23.5 5q22 0 21 -25q-1 -12 5.5 -15.5t14 -5t14 -5.5t6.5 -16q-1 -5 -2.5 -13t-5.5 -19v1
q-12 -32 -23 -71.5t-25 -86.5l-34 -114l22 2t16 1q22 0 43 -5t37 -14t25 -21.5t8 -28.5q-1 -13 -11 -30t-26 -33q-8 -2 -33 -14v1q-32 -15 -64 -23t-72 -11q-35 -95 -80.5 -195t-108.5 -201v1l-12 -15q-8 -10 -16.5 -22.5t-19.5 -23.5t-25 -18t-32 -7q-5 0 -10.5 1t-12.5 3
q1 14 -4.5 25t-12 21.5t-11.5 21t-5 23.5q2 6 2 8v-1q48 96 79.5 189t60.5 187q-11 0 -24 0.5t-24 0.5h-33l-9 -2z" />
    <glyph glyph-name="degree" unicode="&#xa1;" horiz-adv-x="474" 
d="M252 836q27 12 45 17.5t37 7.5q12 5 28.5 10t36.5 8h27.5t31.5 -1.5t31 -4t26 -8.5q40 -21 58.5 -51.5t16.5 -65.5t-24.5 -72t-68.5 -69q-20 -14 -44.5 -23.5t-51 -15.5t-52.5 -8.5t-48 -2.5q-18 0 -38 1t-39.5 5.5t-37 13t-31.5 23.5q-17 14 -24 32t-5 39q1 22 10 46.5
t23.5 46.5t33 39t38.5 25zM407 711q2 0 5 8q-33 -7 -59 -9q-8 1 -20.5 2t-23.5 1q-11 -10 -18.5 -23.5t-8.5 -25.5q-1 -14 10.5 -22t27.5 -8q15 0 30.5 6t28 16t20.5 23t9 28z" />
    <glyph glyph-name="cent" unicode="&#xa2;" horiz-adv-x="501" 
d="M402 594q20 19 36 33.5t37 15.5q10 -6 23 -8.5t25 -5.5t20 -9.5t7 -19.5q0 -7 -5.5 -14t-12.5 -14.5t-14.5 -14.5t-13.5 -13l-53 -57q11 -2 20 -2.5t17 -2.5q15 0 25.5 -7t17 -17t9 -21t1.5 -18q-1 -25 -17.5 -46t-36.5 -21q-7 0 -11 2q-8 -18 -17.5 -29t-20.5 -17
t-23 -9.5t-24 -6.5q-39 -10 -65 -24.5t-42.5 -30t-26 -31.5t-15.5 -29q-2 -6 -2 -9q-1 -22 18.5 -41.5t54.5 -19.5q7 0 13 0.5t12 0.5q29 0 43 -9t13 -23q0 -13 -15 -28q-32 -40 -79 -64t-98 -34q0 -2 0.5 -6t0.5 -6q-6 -9 -18 -23.5t-27.5 -28.5t-33.5 -24.5t-36 -10.5
q-8 0 -15 3q-13 -7 -21 -7q-7 0 -8.5 5.5t-1.5 13.5q1 9 3.5 19.5t5.5 20.5l3 13q1 15 3.5 18.5t4.5 10.5l5 20q-26 19 -39 51.5t-11 75.5q3 46 25 100.5t60 106t89 95t111 67.5q23 41 39.5 65t39.5 45z" />
    <glyph glyph-name="sterling" unicode="&#xa3;" horiz-adv-x="589" 
d="M622 463q28 -19 28 -42q-2 -18 -26.5 -39.5t-65.5 -37.5l-16 -6q-2 0 -5 -0.5t-4 -0.5q1 -4 1 -12q-1 -20 -18.5 -31t-44 -15.5t-58 -5t-60.5 -0.5h-15q-2 -2 -3.5 -4t-1.5 -4l-10 -23v1q-14 -36 -34 -84t-51 -93l74 -4q23 2 47 3.5t47 1.5q34 0 64.5 -4t53.5 -15l-1 1
q33 -24 33 -46q-2 -17 -24.5 -34t-54.5 -26q-11 2 -23.5 3t-24.5 1q-41 0 -84.5 -8.5t-88 -19t-88 -19t-82.5 -8.5q-17 0 -33 1.5t-31 6.5h1q-58 19 -56 59q1 2 1 5t1 5q-2 4 -3 7.5t0 8.5q1 23 21 37t44.5 22t45 11t23.5 3q18 10 33 33t27 52.5t21.5 61t16.5 60.5
q-14 -1 -30.5 -1.5t-30.5 -0.5q-11 0 -22 0.5t-22 1.5h1q-20 4 -35.5 13t-14.5 22q1 7 6.5 15t19.5 18l-1 -1q43 17 83.5 30t80.5 25q15 50 36.5 104.5t49.5 107t62.5 99.5t76.5 82t92.5 56t109.5 21q35 0 70 -9t62 -27.5t43 -47t14 -67.5q-1 -21 -10 -37t-23.5 -26.5
t-33 -16t-36.5 -5.5q-24 0 -46.5 10.5t-35.5 29.5q0 6 -9 11.5t-19.5 11t-18.5 11.5t-8 15q-73 -53 -121 -121t-83 -143q35 11 69.5 22.5t65.5 11.5q22 0 42.5 -5.5t40.5 -12.5z" />
    <glyph glyph-name="bullet" unicode="&#xa5;" horiz-adv-x="434" 
d="M438 536q25 -15 33.5 -30.5t7.5 -31.5q-1 -17 -10.5 -41t-43.5 -47l-1 -1q-3 -6 -6 -11.5t-10 -11.5q-2 -13 -2 -28t-4 -32q0 -11 -10.5 -20t-27 -15t-38.5 -9t-45 -3q-30 0 -60 5t-54 16t-38.5 27t-13.5 39q0 7 3 17t6.5 19.5t6.5 17.5t3 12q12 37 36.5 63.5t56.5 43.5
t67.5 24.5t68.5 7.5q17 0 34 -5.5t34 -5.5h7v0z" />
    <glyph glyph-name="germandbls" unicode="&#xa7;" horiz-adv-x="722" 
d="M193 -69q-26 -26 -56 -38t-59 -12q-36 0 -60.5 20t-22.5 63q0 6 1 15t3 17q39 56 75 125t65 133l39 87q26 52 52.5 102t52.5 100l61 118l-1 -1q19 26 44 38.5t48 12.5q20 0 43 -14l18 16h-1l29 27q13 12 30 21.5t35.5 16t37 10.5t34.5 4q6 0 11.5 -0.5t10.5 -1.5l19 -4
q20 -5 41 -11t38 -19t27.5 -35.5t8.5 -58.5t-12.5 -70.5t-26.5 -65.5t-36.5 -57t-41.5 -43l-9 -11q45 -53 41 -134q-2 -41 -16 -86.5t-38.5 -89t-57 -83t-72 -69t-84 -47t-91.5 -17.5q-40 0 -67 25t-24 73q2 26 13 57l-1 -1q30 39 57.5 52.5t67.5 13.5q10 -2 19 -4.5
t20 -7.5q34 33 59.5 77.5t27.5 90.5q3 39 -18 77q-26 11 -41.5 28t-13.5 37q1 17 16 34t50 30h-1q2 0 2 0.5t1 0.5q49 26 80.5 59t48.5 95q1 7 4 16t4 19q1 12 -10.5 16t-21.5 5h1h-5q-21 0 -46.5 -18t-50.5 -43.5t-46.5 -52.5t-33.5 -44v1l-1 -2q-8 -8 -13 -16l-15 -24
l-21 -53q-17 -43 -38.5 -94.5t-42.5 -95.5l-17 -42q-26 -69 -55.5 -139.5t-67.5 -127.5z" />
    <glyph glyph-name="registered" unicode="&#xa8;" horiz-adv-x="983" 
d="M310 586q21 19 46 36t51 34q7 8 15.5 17.5t19.5 17.5h-1l61 31q32 16 58.5 29.5t51 22.5t49 14t52.5 5q68 0 127 -25t101.5 -72t65 -114t18.5 -151q-2 -29 -7 -60t-16 -61q-18 -50 -39 -86.5t-46.5 -67.5t-57 -59t-70.5 -60l-25 -21h1q-17 -14 -47 -27.5t-64 -24.5
t-67 -19.5t-55 -13.5q-40 -9 -93 -15.5t-102 -6.5q-55 0 -105.5 11t-79.5 34q-10 11 -20.5 18.5t-19.5 14.5t-17 15.5t-12 20.5q-11 30 -23.5 60t-10.5 60q1 13 3 27t3 32q2 23 11.5 49t23 52.5t28 52.5t27.5 48q30 52 75 97t90 85zM510 557q-2 0 -3 -1q-40 -17 -89.5 -53.5
t-94 -86t-76.5 -108t-35 -120.5q-2 -36 10 -66.5t41 -56.5h-1l6 -5q25 -22 57.5 -30.5t68.5 -8.5q42 0 85 9t83 20l20 6h-1q12 3 25.5 7t27 9t24.5 10.5t18 12.5l38 35h-1q24 22 47.5 45t42 52t31 67.5t15.5 91.5q3 65 -18.5 119.5t-63.5 86.5q-10 0 -14.5 -2t-11.5 -2
q-11 0 -21.5 0.5t-21.5 0.5q-49 0 -94.5 -6t-93.5 -26zM658 261q-29 -15 -68 -24l22 -33q1 -2 3 -4t3 -3.5t2 -2.5v1q9 -11 17.5 -24t7.5 -30t-15 -25t-25 -12h1q-4 -1 -7 -1.5t-7 -0.5q-22 0 -32 15l-2 2h1l-6 11h-2l-10 13q-5 5 -8 10t-7 11l-15 21q-9 -15 -22.5 -28
t-30 -23t-34 -16t-33.5 -6q-25 0 -44 12t-22 36q3 33 20 73q0 10 3 23.5t11 36.5l-1 -1q2 5 4 9.5t3 9.5l1 1q23 44 60.5 85.5t80.5 73.5t86.5 51t79.5 19q15 0 31.5 -1.5t33.5 -8.5l-1 1q34 -21 42.5 -48t6.5 -59q-1 -18 -9.5 -40t-24.5 -44.5t-39.5 -43.5t-54.5 -35v-1z
M550 131q0 -1 1 -1l4 -6q1 -2 2 -2.5t1 -2.5l-12 3zM649 444q-31 -24 -59 -56t-53 -70q11 2 24.5 6.5t21.5 9.5h-1q9 4 23.5 13.5t28.5 21.5t24 25.5t11 27.5q0 7 -2.5 14t-13.5 9zM550 130l-9 -5l-5 9l1 21zM535 133l-3 4l8 6l2 -2z" />
    <glyph glyph-name="copyright" unicode="&#xa9;" horiz-adv-x="877" 
d="M899 350q-22 -74 -54 -128.5t-72 -93.5t-86 -64t-94.5 -39.5t-98 -20t-96.5 -5.5q-11 0 -21 0.5t-21 0.5q-45 0 -88.5 13.5t-79.5 36t-62 51.5t-37 59v-1q-4 22 -4.5 42.5t0.5 40.5q2 41 12.5 83.5t26.5 91.5q11 29 29.5 63.5t41.5 67.5t49 61t53 44q32 18 67.5 36
t72.5 32.5t74 23.5t72 9q50 0 94.5 -3.5t84.5 -15t75 -33t66 -56.5q24 -26 32.5 -59t6.5 -70q-2 -40 -14 -82.5t-29 -83.5v-1zM423 118q4 0 8 -0.5t8 -0.5q47 0 92 15.5t86 41t77 58.5t64 68t47.5 70t27.5 65q5 20 5 40q1 23 -1.5 46.5t-10.5 45.5t-22.5 40t-35.5 29v2l-8 7
q-13 -22 -38 -30.5t-72 -8.5q-14 0 -34.5 3t-39.5 3q-47 0 -100.5 -26.5t-101.5 -69.5t-84 -96t-47 -107v1q-9 -23 -9 -44q-2 -36 15.5 -63.5t45 -46.5t62 -29.5t66.5 -12.5zM683 516q24 -5 42 -14.5t16 -29.5q0 -3 -0.5 -6t-1.5 -7l4 -1q-6 -24 -18 -41.5t-27 -29
t-31.5 -16.5t-29.5 -5q-16 0 -35.5 8t-36.5 16q-13 -8 -21 -16t-15 -16l-4 -8q-9 -15 -18.5 -26.5t-10.5 -29.5q-2 -21 16.5 -28t42.5 -7q7 2 20.5 8t24.5 8q18 -1 34 -7t15 -21q0 -6 -3 -13l1 1q-21 -24 -46 -32l-15 -8q-24 -12 -49.5 -18.5t-51.5 -5.5q-28 0 -54.5 8
t-46.5 23t-32 36.5t-10 49.5q0 8 2.5 17.5t6.5 20.5v-1q15 40 44.5 77t67 65.5t79 45.5t79.5 17q34 0 62 -14zM748 457l-5 1q1 1 1 5zM634 229l7 -8l-4 -5l-8 6zM556 269q20 11 23 11q0 -3 -17 -19z" />
    <glyph glyph-name="trademark" unicode="&#xaa;" horiz-adv-x="562" 
d="M239 537q-11 -12 -19 -16t-16 -4q-32 0 -32 15q0 5 3.5 10.5t8.5 15.5q18 35 27.5 55.5t17.5 35.5t16.5 29.5t24.5 38.5q-2 0 -7.5 -0.5t-6.5 -0.5h-4q-26 0 -25 17q0 10 15.5 22t41.5 22t60.5 16.5t73.5 6.5q11 0 21 -5t11 -11l-4 -4t-6 -4h1q-7 -2 -11 -10t-9.5 -16
t-14.5 -14.5t-25 -6.5q-2 0 -2.5 0.5t-2.5 0.5q-11 0 -15 -6l-9 -14q-11 -19 -25.5 -42.5t-29.5 -47.5t-30 -46t-28 -37zM539 787q8 0 14 -1t10 -2l2 -5q0 -1 0.5 -2t0.5 -2q-1 -2 -9 -8l-1 -19q-2 -10 -6.5 -20.5t-9.5 -21.5l9 -4q13 14 29 30.5t34 31t37 24t38 9.5
q9 0 16 -3.5t7 -11.5q-23 -67 -48.5 -126t-55.5 -109q-5 -8 -18.5 -12.5t-27.5 -4.5q-5 0 -13.5 4t-9.5 15q3 7 5 13t5 12.5t7 15.5t11 21l-8 5q-12 -11 -20.5 -17t-14.5 -9t-12 -3.5t-13 -0.5q-17 0 -20.5 12.5t-5.5 23.5q-12 -26 -22.5 -44t-21 -29t-23 -16.5t-28.5 -5.5
q-12 0 -20.5 3t-7.5 10q0 8 8.5 27t19.5 41t23 43t19 34q10 17 23 35t28.5 33t33 24.5t36.5 9.5zM566 783q-2 0 -3 1v3z" />
    <glyph glyph-name="acute" unicode="&#xab;" horiz-adv-x="331" 
d="M338 861q15 7 38 7q14 0 28 -3t24.5 -8.5t16.5 -13.5t6 -19q-1 -9 -9.5 -25.5t-22.5 -31.5q-126 -105 -191 -105q-14 0 -24 5t-10 18q1 6 3.5 14.5t9.5 18.5v-1l7 7q8 24 24.5 47.5t35.5 43t36.5 32t26.5 14.5h1z" />
    <glyph glyph-name="dieresis" unicode="&#xac;" horiz-adv-x="510" 
d="M233 610q-17 9 -24.5 20.5t-6.5 23.5q1 20 15.5 38t35 32t43 22.5t39.5 8.5q29 0 42 -17t11 -35q-1 -19 -14 -36.5t-32 -31t-40 -22t-37 -8.5q-5 0 -9 0.5t-9 1.5l-12 3h-2zM461 619q-17 11 -24 24t-6 28q1 23 15.5 45t35.5 39t44.5 27.5t41.5 10.5q3 0 8 -1.5t10.5 -4
t9.5 -4t5 -1.5q21 -24 19 -52q-1 -22 -14.5 -43t-33 -37.5t-41.5 -26.5t-40 -10q-8 0 -18 3l-10 3h-2z" />
    <glyph glyph-name="AE" unicode="&#xae;" horiz-adv-x="855" 
d="M1027 785q28 -1 39.5 -13.5t9.5 -32.5q-1 -19 -12.5 -41t-31 -42t-46 -35t-57.5 -19q-27 -7 -46 -12.5t-33 -12t-24 -14t-19 -19.5v1l-2 -3q-21 -23 -36.5 -44t-23.5 -42l-10 -26q17 -8 36 -8q26 0 50.5 4.5t41.5 4.5q18 0 18 -10q-1 -2 -1.5 -4.5t-2.5 -5.5
q-16 -30 -44.5 -62.5t-72.5 -47.5h1q-21 -4 -28.5 -6.5t-13.5 -3.5t-16 -2t-36 -2q-9 -11 -23 -31.5t-28 -42t-24.5 -41.5t-10.5 -30q0 -6 12.5 -9t28 -4.5t30.5 -1.5h19q21 0 41 2t51 6q10 -4 13 -9.5t2 -11.5q0 -5 -1.5 -10.5t-2.5 -11.5q0 -9 10.5 -16.5t10.5 -13.5
q0 -8 -9.5 -20.5t-25.5 -27t-36 -27.5t-42 -20h1q-48 -13 -85 -18.5t-77 -5.5q-17 0 -37 1t-42 3q-26 -10 -50 -10q-13 0 -27 2.5t-25 8t-18 13.5t-7 19q1 14 12.5 39.5t17.5 54.5l14 47q-17 -4 -32.5 -11t-28 -14.5t-22 -13.5t-14.5 -9q-14 -8 -24.5 -10.5t-19.5 -3t-16 -2
t-14 -6.5q-38 -53 -78 -88t-86 -35q-10 0 -20.5 3.5t-19 10.5t-14 18.5t-4.5 26.5q1 19 11 46t22 53t23 46.5t16 27.5q48 79 102 158t114 153.5t126 143t140 127.5l-1 -1l25 10q19 8 37.5 14.5t33.5 6.5q29 0 53.5 -12.5t30.5 -33.5q76 28 148 45.5t131 17.5q12 0 24 -1
t24 -3h1zM292 209l95 3q14 44 28.5 89.5t30.5 89.5l29 83l-9 4l-52 -62q-8 -16 -18 -34.5t-20 -34.5z" />
    <glyph glyph-name="Oslash" unicode="&#xaf;" 
d="M385 705q35 25 74 38t76 13q14 0 28 -2.5t28 -7.5q20 17 40 24.5t41 7.5h11q10 17 32 35t57 35h-3l6 1q10 2 18.5 4t15.5 2q11 0 18 -7t6 -26q-1 -2 -1 -7v1q-3 -14 -16 -31t-26 -31q-1 -8 -5 -19.5t-15 -25.5l10 -44q8 -33 6 -72q-3 -55 -22 -116.5t-47.5 -123
t-63.5 -118t-69 -100.5q-31 -39 -68 -77.5t-79 -68.5t-89.5 -48.5t-99.5 -18.5q-53 0 -96 18l-50 -61q-12 -15 -26 -15q-8 0 -12.5 6.5t-3.5 20.5q1 13 9 32t27 43v-1l7 9q-34 30 -46.5 69t-10.5 84q2 44 16 92t34.5 96t45.5 94t49 85v-1q16 24 39 53.5t49 59t53.5 55.5
t52.5 44zM417 531q-123 -163 -170 -332l8 -4q72 97 142.5 191t145.5 193q-16 -2 -34.5 -6.5t-36.5 -10.5t-32.5 -14t-22.5 -17zM315 71q28 27 56 63.5t54.5 78.5t50.5 88t43 92l-8 5q-67 -86 -133 -174t-133 -170q5 -6 11 -11.5t12 -7.5l17 13q7 5 15.5 10.5t14.5 12.5z" />
    <glyph glyph-name="yen" unicode="&#xb4;" horiz-adv-x="501" 
d="M35 123q-5 -1 -9 -1h-9q-35 0 -53.5 13t-17.5 29q1 18 23 31t55.5 21.5t73.5 13t77 6.5l42 55q-15 0 -33 0.5t-29 1.5h1q-34 5 -54 16.5t-19 23.5q1 8 17 23.5t56 24.5l41 9q4 51 10.5 108.5t20.5 117.5q4 22 18 43.5t33.5 39t41 28t39.5 10.5q15 0 25.5 -10t12.5 -33
l3 -23q3 -26 6 -63t6 -70l9 9l44 53q19 23 40 47.5t43 48t44 43t43 33.5l-1 -1q25 10 51 10q21 0 37 -9t14 -32q-2 -31 -23.5 -68t-51 -74t-60 -71t-49.5 -59l-30 -40q59 -5 84 -17t24 -26q-2 -22 -42 -39.5t-99 -17.5q-8 0 -17.5 0.5t-24.5 2.5l-66 -89q29 2 54 4.5t42 2.5
q34 0 50 -8.5t15 -21.5q-1 -20 -38 -43t-101 -33l-92 -4q-14 -23 -30.5 -50t-30.5 -53l9 -5q2 0 7.5 -11.5t4.5 -25.5q0 -13 -14 -27h1q-34 -30 -73 -43t-74 -13q-23 0 -43 5t-34.5 14.5t-23 22t-7.5 27.5q1 12 9 29t20.5 36.5t27.5 40t29 39.5l-55 -2v0z" />
    <glyph glyph-name="ordmasculine" unicode="&#xbc;" horiz-adv-x="333" 
d="M304 824q35 21 58 30.5t48 17.5h26q32 0 45 -20t11 -48q-2 -23 -11 -49.5t-25.5 -54t-38.5 -55.5t-49 -52q-18 -16 -38.5 -27t-40.5 -18t-38.5 -10t-31.5 -3h-16.5t-16.5 2.5t-15.5 8t-11.5 17.5h1l-5 9q-4 11 -2 26q1 24 14.5 56t33.5 63.5t43 58t43 38.5h-1q5 2 9 4.5
t9 5.5zM353 694q0 1 1 3.5t6 11.5q-14 -7 -24 -9.5l-18 -4.5q-7 2 -15 2h-14q-11 -14 -23 -31.5t-13 -29.5q-2 -20 18 -20q9 0 20.5 6t23.5 16.5t22 24.5t16 29v2z" />
    <glyph glyph-name="ae" unicode="&#xbe;" horiz-adv-x="816" 
d="M686 127q-6 -3 -25.5 -7.5t-45 -9.5t-52.5 -9.5t-47 -5.5q1 -11 5.5 -17.5t10.5 -11t12.5 -6t10.5 -1.5q15 0 31.5 5t33 11t33 11t30.5 5q10 0 20 -4.5t18 -12.5q6 -20 11 -22.5t11 -2.5l2 -0.5t5 -3.5t5 -10t1 -19q-1 -21 -25.5 -37t-61.5 -27t-81.5 -17t-85.5 -6
q-36 0 -67 7t-52.5 18t-33.5 24t-10 26l2 19q-12 -14 -31.5 -26.5t-45 -22.5t-55 -15.5t-60.5 -5.5q-32 0 -57.5 5.5t-43.5 18t-27 33t-7 50.5q1 21 7.5 48t17 56.5t25 59t31.5 54.5q28 36 71.5 73t92 66.5t97 48.5t85.5 19q-2 0 14 -1.5t35 -6.5t35 -14.5t15 -26.5
q0 -10 10 -10q5 1 9 1.5t6 0.5q6 0 17 -7q35 21 83.5 36.5t97.5 15.5q21 0 40.5 -4.5t34.5 -15.5t23 -29.5t7 -46.5q-1 -14 -4.5 -31.5t-9.5 -35.5q-15 -39 -30 -66.5t-34.5 -47.5t-44.5 -36t-59 -32v-1zM219 75q21 0 39.5 15t33.5 37.5t27 48t21 46.5l14 32
q-33 -13 -66 -30.5t-59 -36t-43 -37t-19 -33.5q-1 -14 13 -28t39 -14zM675 296q-10 2 -15 2q-18 0 -34.5 -10t-31 -26t-26.5 -36.5t-22 -41.5h4q21 0 43.5 12t41 28.5t31 34.5t13.5 29v3z" />
    <glyph glyph-name="oslash" unicode="&#xbf;" horiz-adv-x="522" 
d="M225 426q15 8 30 8q11 0 17.5 -1.5t17.5 -1.5q23 33 48.5 41.5t46.5 8.5q13 0 27 2t26 2q15 0 31.5 -2t30.5 -7q6 14 23.5 27t47.5 21h-1q1 0 1.5 0.5t1.5 0.5q21 -1 36 -5.5t14 -29.5q-2 -10 -12 -20.5t-21 -19.5v-6q-2 -6 -5 -12t-11 -14q8 -17 11 -37.5t1 -43.5
q-2 -37 -14.5 -80t-35 -87t-53.5 -85t-70 -73t-84.5 -51t-96.5 -19q-28 0 -55 1t-56 7l-54 -53q-7 -7 -14 -7q-8 0 -13.5 6.5t-4.5 17.5t5 19t12 19l16 24q-40 40 -36 102q2 45 20.5 97.5t46 102t61 89.5t65.5 59zM411 238q0 4 -1.5 7.5t-3.5 8.5l-187 -202q31 0 63.5 18.5
t59.5 45.5t46 58.5t23 57.5v6zM174 180l-4 -16t-3 -17q-1 -11 1 -22.5t4 -22.5q36 41 73.5 83t75.5 84l-7 7q-12 -8 -18 -10t-15 -7v1q-15 -6 -31.5 -14.5t-32 -18.5t-27.5 -22t-16 -25z" />
    <glyph glyph-name="questiondown" unicode="&#xc0;" horiz-adv-x="580" 
d="M20.0449 32.0391q-1 5 -1 9.99902v10q2 39.9971 25.498 80.9951q23.499 40.9971 58.4971 80.4951q34.9971 39.4971 74.9951 75.9951q39.9971 36.498 74.9951 67.9961t58.9971 55.9961q23.998 24.499 26.998 40.498q2 19.998 15.499 35.9971t32.498 27.999
q18.999 11.999 40.4971 18.498q21.499 6.5 38.498 6.5q12.999 0 19.499 -4.5q6.49902 -4.49902 8.99902 -10.999t2.5 -14.999v-16.499q-1 -31.998 -19.499 -68.9961q-18.499 -36.9971 -45.9971 -76.4951t-59.9961 -78.9951q-32.498 -39.498 -61.9961 -77.4951
q-29.498 -37.998 -51.9971 -71.4961t-29.498 -61.4961l-2 -17.999q7.99902 4 15.999 11.999q7.99902 8 20.499 18.999q12.499 11 30.498 24.999t43.9971 29.998q11.999 7.99902 18.999 12.999q6.99902 5 11.999 9.49902q5 4.5 10.999 8.5q6 4 16.999 8.99902v-1
q22.999 10 40.998 14.999q17.999 5 31.998 5q8.99902 0 21.498 -4.5q12.5 -4.49902 23.999 -13.499q11.499 -8.99902 18.499 -23.498q6.99902 -14.499 5.99902 -35.498q-1 -19.999 -8.99902 -42.9971q-8 -22.999 -19.999 -44.498q-11.999 -21.498 -25.998 -39.4971
t-26.999 -27.998q-30.998 -23.999 -69.4951 -44.9971q-38.498 -20.999 -79.4951 -36.498q-40.998 -15.499 -81.4951 -24.999q-40.498 -9.49902 -75.4951 -9.49902q-21.999 0 -44.498 4q-22.498 3.99902 -40.9971 12.999q-18.499 8.99902 -29.998 23.498t-10.5 35.498
q1 15.999 6 34.498t7 35.498q-2 9.99902 -8.5 20.999q-6.49902 10.999 -9.49902 24.998zM464.018 688.999q28.998 41.9971 66.9961 61.4961q37.9971 19.499 68.9961 19.499q23.998 0 39.9971 -11.999q15.999 -12 13.999 -35.998q-1 -30.998 -16.999 -49.4971
t-35.498 -28.498q-19.498 -10 -37.9971 -13q-18.499 -2.99902 -26.499 -2.99902q-14.999 0 -29.498 2.99902q-14.499 3 -25.998 8.5t-18.499 13.499q-7 8 -7 16.999q2 9.99902 8 18.999z" />
    <glyph glyph-name="exclamdown" unicode="&#xc1;" horiz-adv-x="380" 
d="M58.0361 -74.9551q-2 12 -4 15.499q-2 3.5 -3 4.5q-5 4 -5 6t8 9.99902q6.99902 10.999 16.499 24.998q9.49902 14 20.499 26.999q10.999 13.999 22.498 27.498t20.499 30.498v-1q58.9961 87.9951 94.4941 158.49q35.498 70.4961 61.4961 125.493
q25.999 54.9961 47.9971 95.9941q21.999 40.9971 50.9971 69.9951v-1l2 1q11.999 16.999 36.498 25.999q24.498 8.99902 50.4961 8.99902q17.999 0 34.998 -4t28.998 -10.999q12 -7 16.999 -17.499q5 -10.499 -1 -23.499q-11.999 -40.9971 -25.498 -75.9951
t-28.498 -66.9961t-31.498 -62.4961t-34.498 -62.4961q-12.999 -22.998 -26.498 -46.9971q-13.5 -23.998 -26.499 -50.9971q-8.99902 -15.999 -23.998 -40.4971q-14.999 -24.499 -33.998 -52.4971t-40.498 -56.9961q-21.498 -28.999 -42.9971 -53.4971t-41.9971 -42.4971
q-20.499 -17.999 -36.498 -23.999q-33.998 -13.999 -65.9961 -13.999q-23.998 0 -39.9971 8.49902q-15.999 8.5 -13.999 28.499q0 7.99902 2.99902 17.499q3 9.49902 9 18.498zM425.014 701.998q18.999 41.9971 59.4961 61.9961q40.498 19.999 80.4951 19.999
q34.998 0 60.9961 -15.499q25.999 -15.499 26.999 -45.498q0.999023 -15.999 -5 -30.498q-6 -14.499 -15.499 -25.998q-9.5 -11.499 -22.499 -19.499q-12.999 -7.99902 -26.998 -11.999q-16.999 -5 -39.498 -8.5q-22.498 -3.49902 -43.4971 -3.49902
q-17.999 0 -33.998 2.49902q-15.999 2.5 -28.498 8t-19.499 13.999q-6.99902 8.5 -5.99902 20.499q0 7.99902 3.49902 15.999q3.5 7.99902 8.5 17.999h1z" />
    <glyph glyph-name="florin" unicode="&#xc4;" horiz-adv-x="462" 
d="M25 -20q2 16 18.5 52.5t36.5 79t38 83.5t23 65q-5 5 -6 8t-3 7q-12 4 -22 4h-12q-5 0 -17.5 4.5t-25 13t-22 20.5t-8.5 28q0 20 35 33l55 4q30 2 51 4t31 10l27 22q12 36 33 75.5t45.5 76t49 66.5t43.5 47t53 39t72.5 41t78 32t70.5 13q24 0 41 -11t20 -37q1 -14 6.5 -21
t11 -11.5t10 -9t3.5 -14.5v-6.5t-2 -8.5q-11 -24 -24 -39.5t-29 -25.5t-33 -16t-35 -11q-17 -5 -52 -24t-70.5 -43.5t-62.5 -51t-28 -46.5q0 -3 2 -9q16 5 36 11.5t40 11.5t39 9t33 5q19 -12 19 -21q-1 -7 -11 -25l-9 -17q-10 -20 -25.5 -32.5t-35 -21t-42 -14t-47.5 -11.5
l-52 -12q-12 -22 -30 -57.5t-39 -76.5l-42 -82t-40 -75t-33 -56t-20 -24q-21 -25 -41 -35.5t-38 -10.5q-15 0 -28 5.5t-22.5 15t-14.5 22t-4 25.5q1 5 2 10.5t3 10.5v2z" />
    <glyph glyph-name="guillemotleft" unicode="&#xc7;" horiz-adv-x="743" 
d="M380 567q9 3 16 3q8 0 17 -4t16 -11.5t11.5 -18.5t3.5 -24q0 -16 -11 -35q-1 -17 -15 -26.5t-31 -25.5h1l-12 -8q-45 -32 -87 -62.5t-89 -55.5q-1 -2 -1 -6q-1 -12 10 -27t27 -33t34 -38t31 -42q-2 -15 -10.5 -24t-19 -13t-21 -5t-14.5 -1q-20 0 -49 8t-56.5 26t-49 48.5
t-24.5 75.5q0 5 7.5 15t8.5 27q0 4 -0.5 7.5t-0.5 7.5q1 11 7.5 21t15.5 19.5t18.5 18t18.5 16.5l13 11q19 16 45.5 36.5t56.5 41.5t62 40.5t62 34.5zM741 607q6 2 11.5 3t11.5 1q19 0 37.5 -18t17.5 -52q-2 -20 -12 -41q-3 -30 -26 -56.5t-54.5 -48.5t-65.5 -39.5
t-59 -30.5q-8 -4 -20 -9.5t-23.5 -11.5t-20 -12.5t-8.5 -11.5q-1 -15 12.5 -33t32.5 -38.5t39.5 -44t34.5 -48.5q-2 -27 -16 -48t-27 -25q-10 5 -31.5 10.5t-48.5 14.5t-55.5 22.5t-52.5 35t-40.5 51.5t-19.5 73l2.5 5.5t5.5 13.5t6 17t3 16q2 9 -1 17q7 26 30 49.5t44 40.5
l16 13q30 23 62 48t65.5 49.5t68.5 46.5t71 38z" />
    <glyph glyph-name="guillemotright" unicode="&#xc8;" horiz-adv-x="780" 
d="M328 311l-26 30q-13 15 -31.5 33.5t-35 38.5t-28.5 41t-11 41q1 13 12.5 35t29.5 43t41.5 36t47.5 15q21 0 34 -12t25 -30q6 -9 23.5 -34.5t36 -57.5t32.5 -66t13 -59q0 -7 -4 -14t-8.5 -13.5t-8 -11.5t-3.5 -7l-1 -17q-6 -33 -21 -55t-34.5 -36t-41 -21.5t-39.5 -11.5
l-16 -4q-35 -7 -75.5 -21t-81 -29t-78 -27t-65.5 -15q0 8 -1 18.5t0 18.5q5 28 33 53.5t66 47t80.5 39t77.5 30.5l19 7zM676 303l-23 28q-10 12 -26 27t-31 32.5t-25 35.5t-9 36q1 14 11.5 33.5t27 37t36 29.5t38.5 12q17 0 28.5 -10t20.5 -25q5 -6 20.5 -28.5t31.5 -52
t28 -59t11 -48.5q-1 -16 -15 -33l-7 -11v-4v-7q-5 -28 -18 -47t-30 -31t-36 -18.5t-36 -10.5l-11 -2q-23 -5 -48.5 -16t-50.5 -23v1q-23 -11 -43 -20.5t-32 -9.5q-10 0 -15 5q0 5 -4 9.5t-9 8t-9 7t-5 7.5q2 3 5 8.5t6 8.5l9 15q16 18 39.5 34t48.5 29.5t48.5 23.5t38.5 16z
" />
    <glyph glyph-name="ellipsis" unicode="&#xc9;" horiz-adv-x="716" 
d="M31 -109q-38 20 -35 53q1 22 17.5 43.5t40 38.5t50 28t46.5 11q8 0 17.5 -1t18.5 -6q15 -17 22.5 -28.5t6.5 -28.5q-2 -23 -17 -43.5t-37 -36.5t-46.5 -25.5t-45.5 -9.5q-5 0 -9.5 0.5t-10.5 1.5l-17 3h-1zM298 -94q-23 9 -32.5 21t-8.5 25q1 18 17.5 36.5t39.5 34t49 25
t47 9.5q35 0 52.5 -18.5t16.5 -38.5t-16.5 -38t-37 -32t-46 -22t-44.5 -8q-5 0 -10 0.5t-11 1.5l-15 2zM565 -69q-17 7 -23 15.5t-5 18.5q0 13 11.5 26t28 23.5t35.5 17t34 6.5q19 0 35 -11t14 -28q0 -14 -11 -27t-26.5 -23t-33 -16.5t-31.5 -6.5q-6 0 -13 1.5t-15 1.5v2z
" />
    <glyph glyph-name="Agrave" unicode="&#xcb;" horiz-adv-x="574" 
d="M545 751q19 8 37.5 14.5t33.5 6.5q16 0 31.5 -3.5t27.5 -10.5t19 -17t6 -22q0 -15 -19 -38q30 -16 36 -51q-29 -76 -55.5 -151t-52.5 -149.5t-53 -149.5t-57 -151l-10 -22q-4 -11 -7 -20t-8 -20q-16 -14 -38 -22t-43 -8q-13 0 -26.5 2.5t-25 8t-18.5 13.5t-7 19
q1 14 12.5 39.5t17.5 54.5l14 47q-17 -4 -32.5 -11t-28 -14.5t-22 -13.5t-14.5 -9q-14 -8 -24.5 -10.5t-19 -3t-16 -2t-14.5 -6.5q-38 -53 -78 -88t-86 -35q-10 0 -20.5 3.5t-18.5 10.5t-13.5 18t-4.5 27q1 19 10.5 46t21.5 52.5t23 46t16 28.5q48 79 102 158t114 153.5
t126 143t140 127.5l-1 -1zM294 209l94 3q14 44 28.5 89.5t30.5 89.5l29 83l-8 4l-53 -62q-8 -16 -18.5 -34.5t-19.5 -34.5zM579 965q1 22 11 38t26 26t35 15t38 5q35 0 63 -11.5t36 -40.5q-10 -19 -13 -39t-7 -40q-4 -23 -8 -40t-10.5 -28t-17 -16.5t-26.5 -5.5q-11 0 -21 3
t-17 7l-3 12q-5 2 -6.5 3.5t-1.5 3.5l-9 18q-9 13 -20 25.5t-20.5 23t-17 18.5t-9.5 13v-1l-3 10z" />
    <glyph glyph-name="Atilde" unicode="&#xcc;" horiz-adv-x="574" 
d="M545 751q19 8 37.5 14.5t33.5 6.5q16 0 31.5 -3.5t27.5 -10.5t19 -17t6 -22q0 -15 -19 -38q30 -16 36 -51q-29 -76 -55.5 -151t-52.5 -149.5t-53 -149.5t-57 -151l-10 -22q-4 -11 -7 -20t-8 -20q-16 -14 -38 -22t-43 -8q-13 0 -26.5 2.5t-25 8t-18.5 13.5t-7 19
q1 14 12.5 39.5t17.5 54.5l14 47q-17 -4 -32.5 -11t-28 -14.5t-22 -13.5t-14.5 -9q-14 -8 -24.5 -10.5t-19 -3t-16 -2t-14.5 -6.5q-38 -53 -78 -88t-86 -35q-10 0 -20.5 3.5t-18.5 10.5t-13.5 18t-4.5 27q1 19 10.5 46t21.5 52.5t23 46t16 28.5q48 79 102 158t114 153.5
t126 143t140 127.5l-1 -1zM294 209l94 3q14 44 28.5 89.5t30.5 89.5l29 83l-8 4l-53 -62q-8 -16 -18.5 -34.5t-19.5 -34.5zM694 818q-7 1 -13.5 7t-14 13t-16 13t-19.5 6q-4 0 -12 -2l-32 -22q-18 -14 -34.5 -23.5t-27.5 -9.5q-4 0 -6 1l1 -1q-13 8 -21 16.5t-7 19.5
q1 25 29.5 56t69.5 54l3 1.5t3 0.5l28 18h-1q19 11 37.5 17.5t32.5 6.5q16 0 27.5 -7.5t10.5 -25.5q0 -3 -1 -5t-2 -5q0 -3 2 -7l2 -12q2 -8 4.5 -15t9.5 -18q28 5 49 13l9 6h-1q21 17 36.5 25.5t29.5 8.5q9 0 9 -15q-2 -19 -19.5 -35.5t-38.5 -30.5q-37 -30 -57 -42
t-40 -12q-10 0 -30 5z" />
    <glyph glyph-name="Otilde" unicode="&#xcd;" 
d="M385 705q35 25 74 38t76 13q14 0 28 -2.5t28 -7.5q20 17 39.5 25t38.5 8q31 0 57 -16.5t43 -44.5q0 -5 2.5 -13t4.5 -17l4 -23q8 -33 6 -72q-3 -55 -22 -116.5t-47.5 -123t-63.5 -118t-69 -100.5q-31 -39 -67.5 -77.5t-79 -68.5t-90.5 -48.5t-100 -18.5q-58 0 -97.5 18.5
t-63 47.5t-33 66t-7.5 73q2 44 16 92t35 96t46 94t49 85v-1q16 24 39 53.5t48.5 59t53 55.5t52.5 44zM315 71q42 42 81.5 101.5t70.5 126.5t52 136t27 130q-38 -39 -85 -90t-92 -108.5t-81.5 -118.5t-54.5 -119l-3 -19q1 -5 2.5 -15.5t5.5 -22t11 -22t18 -15.5l18 13
q7 5 15.5 10.5t14.5 12.5zM701 824q-7 1 -13.5 7t-14 13t-16 13t-19.5 6q-4 0 -12 -2l-32 -22q-18 -14 -34.5 -23.5t-27.5 -9.5q-4 0 -6 1l1 -1q-13 8 -21 16.5t-7 19.5q1 25 29.5 56t69.5 54l3 1.5t3 0.5l28 18h-1q19 11 37.5 17.5t32.5 6.5q16 0 27.5 -7.5t10.5 -25.5
q0 -3 -1 -5t-2 -5q0 -3 2 -7l2 -12q2 -8 4.5 -15t9.5 -18q28 5 49 13l9 6h-1q21 17 36.5 25.5t29.5 8.5q9 0 9 -15q-2 -19 -19.5 -35.5t-38.5 -30.5q-37 -30 -57 -42t-40 -12q-10 0 -30 5z" />
    <glyph glyph-name="OE" unicode="&#xce;" horiz-adv-x="971" 
d="M1048 770q28 -1 39.5 -14t9.5 -32q-1 -20 -12.5 -42t-31 -42t-46 -35t-57.5 -19q-27 -7 -46.5 -12.5t-33.5 -11.5t-24 -14t-19 -19v1l-6 -8q-18 -21 -32 -40.5t-22 -40.5l-11 -26q17 -8 36 -8q26 0 50.5 4.5t41.5 4.5q18 0 18 -10q0 -2 -4 -10q-8 -15 -19 -31.5
t-25.5 -31.5t-32.5 -27.5t-40 -19.5h1q-20 -4 -27 -6t-13 -3.5t-16.5 -3t-37.5 -2.5q-9 -11 -23 -31t-28 -41.5t-24.5 -41.5t-11.5 -31q0 -6 12.5 -9t28.5 -4.5t30.5 -1.5h19.5q21 0 41 2t51 6q9 -4 12 -9t3 -11q-1 -5 -2.5 -10.5t-1.5 -10.5t3 -9t7 -8l7.5 -7.5t3.5 -6.5
q0 -8 -10 -20.5t-25.5 -27t-36 -27.5t-42.5 -21h1q-47 -12 -84 -17.5t-77 -5.5h-35.5t-42.5 2t-43.5 8.5t-37.5 18.5q-25 -15 -61 -25t-76 -10q-58 0 -97.5 18.5t-63 47.5t-33 66t-7.5 73q2 44 16 92t35 96t46 94t49 85v-1q30 46 69 93t83.5 85t92.5 61.5t98 23.5
q14 0 28 -2.5t28 -7.5q37 33 77 33q27 0 52 -13.5t44 -39.5q65 21 124.5 34.5t111.5 13.5q12 0 24 -1t24 -3h1zM314 71q42 42 81.5 101.5t70.5 126.5t52 136t27 130q-38 -39 -85 -90t-92 -108.5t-81.5 -118.5t-54.5 -119l-3 -19q1 -5 3 -15.5t6 -22t10.5 -22t17.5 -15.5
l18 13q7 5 15.5 10.5t14.5 12.5z" />
    <glyph glyph-name="oe" unicode="&#xcf;" horiz-adv-x="837" 
d="M686 144q-6 -3 -26 -7.5t-45.5 -10t-52.5 -10t-47 -5.5q2 -20 16 -28t22 -8q15 0 31.5 5t33.5 11t33.5 11t31.5 5q10 0 20 -4.5t18 -11.5q6 -20 11.5 -23t11.5 -3l2 -0.5t5 -3.5t5 -9.5t1 -18.5q-1 -21 -25.5 -37t-62 -27.5t-82 -17.5t-85.5 -6q-51 0 -83 10t-49 24
q-38 -23 -73 -29t-67 -8q-32 0 -68 1.5t-66.5 14t-49.5 40t-16 79.5q1 32 12.5 71t29 79t40 77t47 66t49.5 46.5t48 17.5q9 0 15.5 -1.5t17.5 -1.5q22 33 48 41.5t47 8.5q14 0 28 2t27 2q44 0 77 -15t51 -42q40 26 90 43.5t106 17.5q21 0 40.5 -4.5t34.5 -15.5t23 -29.5
t7 -47.5q-2 -27 -13 -66v1q-16 -41 -31 -68.5t-34 -47t-44 -35t-60 -31.5v-1zM358 230q-11 -3 -21 -5t-20 -2h-6q-4 -6 -23 -20t-41 -34.5t-40 -45t-19 -51.5q0 -9 3 -13.5t8.5 -6t12.5 -1t15 0.5q34 0 59.5 17t42 43t25.5 56.5t11 56.5zM675 312q-10 2 -14 2
q-31 0 -56 -26.5t-45 -61.5l-10 -26q21 0 43 12t41 28.5t31.5 34.5t12.5 30q1 1 1 3z" />
    <glyph glyph-name="endash" unicode="&#xd0;" horiz-adv-x="631" 
d="M124 260q-32 0 -51.5 13.5t-18.5 31.5q1 9 10 20t23 19l25 2q5 27 30 42.5t65.5 23t93.5 9t114 1.5h37t38 -1q10 2 20 3.5t27 1.5q29 0 55.5 -3.5t46.5 -11t31.5 -18.5t10.5 -26q-2 -20 -27.5 -43t-75.5 -45q-54 -12 -113.5 -17t-119.5 -5q-54 0 -104 1.5t-95 1.5h-11
t-13 -2z" />
    <glyph glyph-name="emdash" unicode="&#xd1;" horiz-adv-x="752" 
d="M129 244h-9q-32 0 -50 12.5t-17 29.5q1 9 9 19.5t23 19.5l26 4q3 21 17.5 33.5t36.5 21t50 13t59 9.5l27 4q13 1 55 3.5t93.5 4.5t101 4t77.5 2q13 4 30 6t46 2q25 0 47.5 -3.5t39 -10.5t25.5 -17t8 -23q-2 -26 -47 -61q-10 -3 -16.5 -7t-11.5 -8q-17 -12 -48 -20
t-72 -13.5t-89 -9t-97 -6t-97 -3.5t-89 -2q-40 -1 -75 -3.5t-58 -2.5z" />
    <glyph glyph-name="quotedblleft" unicode="&#xd2;" horiz-adv-x="468" 
d="M304 549q-2 -4 -1 -7t0 -6.5t-4.5 -9t-12.5 -14.5q-27 -36 -62 -55t-64 -19q-28 0 -44 20t-14 58q1 20 9 38t24 37.5t40.5 43.5t58.5 56l46 46q14 11 32 19.5t32 8.5q11 0 17.5 -6t5.5 -19q0 -5 -2.5 -12t-4.5 -15q-22 -38 -35 -81.5t-21 -83.5v1zM568 737
q-10 -27 -13.5 -48.5t-5 -38.5t-4.5 -32t-11 -29v1q-16 -25 -46.5 -37t-59.5 -12q-25 0 -43.5 9.5t-17.5 29.5q1 11 8.5 27t11.5 26q8 26 27 48t44 45q10 9 19 19t19 18.5t21.5 14t25.5 5.5q12 0 20 -6.5t7 -23.5q0 -3 -1 -6.5t-2 -8.5zM569 737v-1q0 1 -1 1q1 1 1 2v-2z
" />
    <glyph glyph-name="quotedblright" unicode="&#xd3;" horiz-adv-x="474" 
d="M430 553q25 43 36 70t16.5 47t11 37t21.5 40q29 32 62.5 49.5t61.5 17.5q27 0 45 -16.5t16 -51.5q-1 -5 -1 -10t-1 -10l1 1q-10 -15 -24.5 -38.5t-29.5 -44.5q-8 -9 -21 -21t-29 -26l-37 -34h1l-20 -16l-32 -26h1q-14 -12 -30 -19t-30 -7q-12 0 -20 6t-7 20q0 6 2.5 13.5
t7.5 18.5h-1zM228 583q17 45 21.5 71t5.5 44v8q1 3 1.5 7t2.5 10v-1q3 7 9 8q18 24 46.5 35t54.5 11q27 0 46.5 -10.5t18.5 -31.5q0 -14 -11 -29v-2q-3 -17 -10.5 -31.5t-18 -27.5t-24 -24.5t-26.5 -23.5q-23 -19 -43 -38t-48 -19q-12 0 -21 6t-8 20q0 3 1 7t3 9v2z" />
    <glyph glyph-name="quoteleft" unicode="&#xd4;" horiz-adv-x="249" 
d="M361 713q-4 -8 -11 -34t-15 -56t-17 -57t-17 -36q-14 -22 -31.5 -39t-36.5 -29t-38 -18t-35 -6q-29 0 -45 18.5t-14 57.5q1 5 2 9t1 9q4 16 10.5 28.5t17 26t27 30.5t42.5 42l52 50h-1l13 11q21 17 38 31.5t42 13.5q23 0 22 -25q0 -3 -1.5 -11t-4.5 -16z" />
    <glyph glyph-name="quoteright" unicode="&#xd5;" horiz-adv-x="249" 
d="M138 535q16 41 24.5 68.5t12.5 47.5t6.5 34t7.5 28q0 1 -0.5 3.5t-0.5 3.5q13 23 31 41t37.5 30.5t39 19t36.5 6.5q27 0 47 -17t18 -48q-1 -17 -8 -34.5t-22.5 -39.5t-40 -50.5t-60.5 -66.5l-41 -39q-20 -19 -35.5 -31t-37.5 -11q-11 0 -16.5 8t-5.5 21q2 5 4 13.5
t4 12.5z" />
    <glyph glyph-name="divide" unicode="&#xd6;" horiz-adv-x="631" 
d="M124 260q-32 0 -51.5 13.5t-18.5 31.5q1 9 10 20t23 19l25 2q5 27 30 42.5t65.5 23t93.5 9t114 1.5h37t38 -1q10 2 20 3.5t27 1.5q29 0 55.5 -3.5t46.5 -11t31.5 -18.5t10.5 -26q-2 -20 -27.5 -43t-75.5 -45q-54 -12 -113.5 -17t-119.5 -5q-54 0 -104 1.5t-95 1.5h-11
t-13 -2zM370 490q-29 14 -27 38q1 17 13.5 32.5t29.5 27.5t36.5 19t34.5 7q20 0 33 -14.5t12 -31.5q-1 -16 -12 -31t-27 -27t-34 -19t-33 -7q-12 0 -25 4zM293 78q-23 1 -32.5 11.5t-7.5 25.5q1 18 10.5 36t24 32t32 23.5t34.5 11.5q19 -7 28.5 -19t8.5 -25q-1 -16 -10 -32
t-21.5 -29t-28 -22t-28.5 -11q-6 0 -10 -2z" />
    <glyph glyph-name="ydieresis" unicode="&#xd8;" horiz-adv-x="589" 
d="M103 373q-2 6 0 12q2 32 20.5 45.5t42.5 13.5q16 0 33 -6t32.5 -16.5t28 -25t18.5 -32.5q-2 -24 -17 -55t-33 -64.5t-33.5 -68.5t-18.5 -66q34 19 61.5 51.5t51.5 69.5t46 73.5t46 65.5q5 7 16 21.5t24 29t26 25.5t23 11q7 0 17.5 -2t22 -5t23 -5t20.5 -2q10 0 15 3
q18 11 27 13.5t17 2.5q23 0 43 -13t18 -36q-1 -12 -10.5 -21.5t-26.5 -20.5q-31 -29 -65.5 -70.5t-68 -88t-64.5 -94t-56 -87.5l-20 -32q17 -12 27.5 -28t9.5 -34q0 -9 -3.5 -18.5t-8.5 -18.5q-36 -26 -58.5 -47t-36 -39t-20.5 -32.5t-11 -27.5q-4 -9 -11 -22.5t-18 -25.5
t-26.5 -20.5t-36.5 -8.5q-15 0 -31 6.5t-29 18t-21 27t-7 32.5q2 23 16 46t32 46l20 27q14 20 27.5 41t29.5 41l17 26l-5 6q-23 -11 -44.5 -18.5t-43.5 -7.5q-16 0 -32.5 5t-29.5 16.5t-21 30t-6 46.5q1 31 10.5 68t21 75.5t20.5 74.5t11 65v12.5t-1 11.5zM307 529
q-17 9 -24.5 20.5t-6.5 23.5q1 20 15.5 38t35 32t43 22.5t39.5 8.5q29 0 42 -17t11 -35q-1 -19 -14 -36.5t-32 -31t-40 -22t-37 -8.5q-5 0 -9 0.5t-9 1.5l-12 3h-2zM535 538q-17 11 -24 24t-6 28q1 23 15.5 45t35.5 39t44.5 27.5t41.5 10.5q3 0 8 -1.5t10.5 -4t9.5 -4
t5 -1.5q21 -24 19 -52q-1 -22 -14.5 -43t-33 -37.5t-41.5 -26.5t-40 -10q-8 0 -18 3l-10 3h-2z" />
    <glyph glyph-name="Ydieresis" unicode="&#xd9;" horiz-adv-x="501" 
d="M400 671q3 -26 6.5 -63t6.5 -70l9 9l44 53q19 23 40 47.5t43 48t44 43t43 33.5l-1 -1q23 10 51 10q20 0 36.5 -8.5t14.5 -31.5q-2 -31 -23.5 -68t-51 -74t-60.5 -71.5t-50 -59.5q-42 -58 -81.5 -109t-76.5 -101.5t-72.5 -104t-69.5 -116.5l8 -6q2 0 7.5 -11.5t4.5 -25.5
q0 -13 -14 -27h1q-35 -30 -73.5 -43t-73.5 -13q-24 0 -44.5 5t-35.5 13.5t-23.5 20t-8.5 25.5q2 12 7 21q24 48 58 94.5t69 93.5l88 118q-2 -1 -6 -1q-14 0 -20 13t-4 32q0 7 1 15.5t3 16.5q5 53 11 113t21 126q3 22 17.5 43.5t34 38.5t41 27.5t39.5 10.5q15 0 25 -10
t12 -33zM379 810q-33 16 -31 44q1 17 15 35t34 32.5t42 24t39 9.5q30 0 43.5 -17t12.5 -36q-1 -18 -14.5 -36t-32 -31.5t-39.5 -22t-38 -8.5q-4 0 -8 0.5t-9 1.5l-12 3zM607 818q-17 11 -24.5 24.5t-6.5 27.5q1 22 15.5 44t35 39.5t43.5 28t41 10.5q6 0 14.5 -1.5t16.5 -5.5
q14 -14 19 -25.5t4 -28.5q-1 -23 -14.5 -44t-33 -37.5t-41.5 -26t-40 -9.5q-10 0 -15 1z" />
    <glyph glyph-name="fraction" unicode="&#xda;" horiz-adv-x="577" 
d="M575 748q0 1 3 4t6 8v-2l8 9q2 23 30.5 44t85.5 32h6q21 -1 39.5 -4.5t33 -11t24.5 -21t15 -34.5q-2 -16 -14.5 -31t-25.5 -28q-2 -1 -3 -2q-2 -1 -2.5 -2t-1.5 -2q2 -13 -4 -30t-23 -35q-42 -34 -78 -71t-71 -75l-16 -18l-16 -18q-59 -64 -118.5 -136.5t-118.5 -144.5
q-80 -97 -162 -195t-165 -180v1q-11 -12 -23 -12q-10 0 -20 5t-18 13.5t-12.5 20.5t-3.5 27q1 14 7 30.5t20 33.5q75 121 155.5 227t165.5 212q47 57 94 116t94 123l36 48q17 26 35 50.5t38 47.5v1z" />
    <glyph glyph-name="fraction" unicode="&#x2044;" horiz-adv-x="577" 
d="M575 748q0 1 3 4t6 8v-2l8 9q2 23 30.5 44t85.5 32h6q21 -1 39.5 -4.5t33 -11t24.5 -21t15 -34.5q-2 -16 -14.5 -31t-25.5 -28q-2 -1 -3 -2q-2 -1 -2.5 -2t-1.5 -2q2 -13 -4 -30t-23 -35q-42 -34 -78 -71t-71 -75l-16 -18l-16 -18q-59 -64 -118.5 -136.5t-118.5 -144.5
q-80 -97 -162 -195t-165 -180v1q-11 -12 -23 -12q-10 0 -20 5t-18 13.5t-12.5 20.5t-3.5 27q1 14 7 30.5t20 33.5q75 121 155.5 227t165.5 212q47 57 94 116t94 123l36 48q17 26 35 50.5t38 47.5v1z" />
    <glyph glyph-name="Euro" unicode="&#xdb;" horiz-adv-x="652" 
d="M619 307q8 -2 16 -3.5t7 -15.5q-2 -27 -29 -44.5t-67.5 -29t-88 -19t-89.5 -14.5l-64 -10q-3 -70 14 -106t51 -36q23 0 47.5 9.5t56.5 19.5q11 7 22 16t24 17t28 13.5t34 5.5q17 0 30 -7t12 -22q-1 -4 -1.5 -8t-2.5 -9l1 1q-53 -69 -116 -98t-134 -29q-17 0 -36 1.5
t-36.5 5t-33 9t-25.5 13.5q-56 23 -91 68.5t-39 105.5l1 22q-45 -2 -90.5 -6.5t-88.5 -4.5q-20 4 -34 13.5t-13 20.5q1 15 22 26.5t52 19.5t66.5 14t65.5 10l37 5q9 31 23.5 64.5t32.5 68.5q-11 -4 -14.5 -4.5t-5.5 -0.5l-34 -4q-14 -2 -28 -3.5t-25 -1.5q-10 0 -21.5 1.5
t-21 5t-16 10t-6.5 16.5q1 14 15.5 24t35.5 17t44.5 11.5t41.5 8.5l41 8q5 1 6 2t2.5 2t5.5 2t15 3q18 43 38 80t48.5 69.5t68.5 60t99 50.5q47 20 104.5 31t108.5 11q28 0 52.5 -3.5t42 -11t27.5 -19t9 -28.5q-1 -21 -19 -41t-45.5 -36.5t-61.5 -26.5t-67 -10q-3 0 -6 0.5
t-6 0.5l-117 -58l1 -8h-1q2 0 6 -1q6 -2 11 -2h-1q7 -3 18 -3q14 0 43 3t55 3q17 0 29.5 -2.5t12.5 -8.5q-1 -18 5.5 -24t14.5 -7.5t14.5 -1t6.5 -5.5q0 -3 -1 -6q13 -22 11 -40q-1 -20 -14 -34.5t-33.5 -24.5t-45 -15t-47.5 -5q-24 0 -43 6h-28h-17q-15 0 -31 -0.5
t-31 -0.5q-10 0 -19.5 0.5t-18.5 1.5q-17 -26 -28.5 -48t-19.5 -38q42 8 86.5 19t84.5 14q48 -3 85 -22h1q2 0 8.5 -1.5t10.5 -1.5zM643 301q-1 0 -1.5 0.5t-1.5 0.5v2z" />
    <glyph glyph-name="guilsinglleft" unicode="&#xdc;" horiz-adv-x="437" 
d="M449 607q6 2 11.5 3t10.5 1q19 0 38 -18t18 -52q-1 -18 -13 -41q-3 -30 -26 -56t-54.5 -48t-65.5 -40t-59 -31q-7 -4 -19 -9.5t-23.5 -11.5t-20.5 -12.5t-9 -11.5q-1 -15 12 -32.5t32 -38t40 -44t36 -49.5q-2 -27 -16.5 -48t-27.5 -25q-11 5 -32.5 11t-48 14.5t-55 22.5
t-52.5 35t-40.5 51.5t-19.5 72.5l2.5 5.5t5.5 13.5t6 17t3 16q2 9 -1 17q3 13 11.5 25.5t19 24t22 21.5t21.5 19l16 13q31 23 63 48.5t66 49.5t68.5 46t69.5 38z" />
    <glyph glyph-name="guilsinglright" unicode="&#xdd;" horiz-adv-x="486" 
d="M329 311l-26 30q-26 32 -53.5 61.5t-47.5 58.5l1 -1q-6 16 -6 31q1 12 7 28.5t18 33.5t29 33.5t40 28.5v-1q21 10 38 10q20 0 33.5 -11.5t24.5 -30.5q8 -9 26 -35.5t36 -59.5t31 -66.5t12 -55.5q-2 -12 -4 -18l1 1l-21 -30v-6q-1 -25 -14 -61l1 1q-10 -17 -18 -26
t-25 -20l1 1q-26 -13 -47 -19.5t-42 -11.5h1l-10 -2q-35 -7 -75.5 -21t-81 -29t-78 -27t-65.5 -15q0 7 -1 16.5t0 17.5q0 12 9 26t18 25q15 19 44.5 37.5t63 34.5t67 28.5t56.5 21.5l18 7z" />
    <glyph glyph-name="daggerdbl" unicode="&#xe0;" horiz-adv-x="322" 
d="M0 114q-4 -1 -8 -1h-9q-32 0 -48.5 16t-15.5 37q1 23 19 39.5t46 28.5t61.5 19.5t66.5 11.5q10 26 21.5 57t19.5 57q-15 0 -26.5 0.5t-19.5 1.5h1q-30 6 -47.5 19.5t-16.5 30.5q2 24 32 46t103 39l25 6l33 99q12 36 20.5 67t17.5 57t19.5 47.5t26.5 36.5q24 24 54 43
t51 19q22 0 22 -27q2 -12 9 -14.5t14 -3.5t12.5 -4.5t4.5 -17.5q-1 -5 -2 -13t-4 -17q-15 -47 -32 -104.5t-39 -123.5l45 4q51 -3 73.5 -19.5t20.5 -37.5q-1 -26 -36 -49t-101 -26q-14 0 -26.5 3t-14.5 5q-14 -36 -31 -81t-34 -83q33 4 61 9t48 5q29 0 42 -11t12 -28
q-2 -26 -36 -57t-93 -48q-27 -5 -51 -9t-46 -7q-26 -54 -50.5 -101.5t-47.5 -89.5v1l-11 -16q-8 -11 -16.5 -23.5t-20 -24t-26 -19t-33.5 -7.5q-11 0 -21 3q1 14 -4 25.5t-11 22.5t-11 22.5t-4 25.5l68 164q-11 -1 -27 -2t-29 -3z" />
    <glyph glyph-name="periodcentered" unicode="&#xe1;" horiz-adv-x="245" 
d="M91 192q-21 11 -30 25t-8 29q1 23 18 45t41 39t51 27t49 10q8 0 14.5 -1.5t15.5 -4.5q1 0 1.5 -1t1.5 -1l4 -3q13 -12 19 -26t5 -27q-1 -23 -16 -44t-37 -37t-46.5 -26t-45.5 -10q-8 0 -23 3l-12 3h-2zM249 358q-3 0 -4 1z" />
    <glyph glyph-name="quotesinglbase" unicode="&#xe2;" horiz-adv-x="298" 
d="M242 62l8 -14t11 -15q-1 -1 -1 -5l-2 -35q-4 -24 -24 -47.5t-46 -41.5q-31 -32 -70 -53.5t-74 -21.5q-8 0 -17.5 2t-18.5 6t-15 11t-6 17q1 12 15.5 31t34.5 45l11 13l-10 12q-1 -1 -2 -1q-3 0 -12 15.5t-8 32.5q1 22 14 38t33.5 26.5t44.5 15t48 4.5q20 0 37.5 -6.5
t42.5 -29.5l4 3l-1 4zM261 33l1 1z" />
    <glyph glyph-name="quotedblbase" unicode="&#xe3;" horiz-adv-x="455" 
d="M262 52q6 28 18 48.5t28.5 34t34.5 20t36 6.5q31 0 53.5 -19.5t20.5 -57.5q-3 -55 -28.5 -96.5t-57.5 -78.5q-21 -24 -40 -43.5t-47 -19.5q-15 0 -25 10t-8 33v6.5t1 8.5q6 32 7.5 67t6.5 82v-1zM14 -114q-5 19 -7 36.5t-1 34.5q2 41 16.5 76t35.5 61t46 40.5t48 14.5
q26 0 45.5 -21.5t22.5 -72.5l-17 -27q0 -1 0.5 -2t0.5 -2t-1 -2q0 -1 1 -1q-20 -31 -30.5 -61.5t-18.5 -43.5v1l-49 -57q-11 -15 -28 -23.5t-33 -8.5q-14 0 -24.5 9.5t-8.5 31.5v6.5t1 7.5z" />
    <glyph glyph-name="Acircumflex" unicode="&#xe5;" horiz-adv-x="574" 
d="M545 751q19 8 37.5 14.5t33.5 6.5q16 0 31.5 -3.5t27.5 -10.5t19 -17t6 -22q0 -15 -19 -38q30 -16 36 -51q-29 -76 -55.5 -151t-52.5 -149.5t-53 -149.5t-57 -151l-10 -22q-4 -11 -7 -20t-8 -20q-16 -14 -38 -22t-43 -8q-13 0 -26.5 2.5t-25 8t-18.5 13.5t-7 19
q1 14 12.5 39.5t17.5 54.5l14 47q-17 -4 -32.5 -11t-28 -14.5t-22 -13.5t-14.5 -9q-14 -8 -24.5 -10.5t-19 -3t-16 -2t-14.5 -6.5q-38 -53 -78 -88t-86 -35q-10 0 -20.5 3.5t-18.5 10.5t-13.5 18t-4.5 27q1 19 10.5 46t21.5 52.5t23 46t16 28.5q48 79 102 158t114 153.5
t126 143t140 127.5l-1 -1zM294 209l94 3q14 44 28.5 89.5t30.5 89.5l29 83l-8 4l-53 -62q-8 -16 -18.5 -34.5t-19.5 -34.5zM640 827q-37 -26 -73 -38t-57 -12q-13 0 -21.5 4.5t-7.5 14.5q0 15 22 43q59 58 117 110t129 107q3 3 5 4t6 4h-1q32 26 61 40.5t51 14.5q12 0 21 -9
q0 -3 -5 -12.5t-11 -19.5q-7 -11 -16 -25q1 -8 0.5 -18.5t-1.5 -20.5q-1 -19 -3.5 -37.5t-5.5 -37.5q2 -9 2.5 -20t-0.5 -22t-6 -26.5t-15.5 -30.5t-28.5 -25.5t-44 -10.5q-14 0 -18 8q2 7 4.5 13t6.5 14q0 17 -2.5 30t-6.5 24l-9 23l-46 -46t-47 -43z" />
    <glyph glyph-name="Ecircumflex" unicode="&#xe6;" horiz-adv-x="534" 
d="M688 770q27 -1 39 -14t10 -32q-1 -20 -12.5 -42t-31 -42t-46 -35t-57.5 -19q-27 -7 -46.5 -12.5t-33.5 -11.5t-24.5 -14t-19.5 -19l-6 -7q-18 -21 -31 -40.5t-22 -40.5l-12 -26q19 -8 37 -8q25 0 50 4.5t42 4.5t17 -10q0 -2 -4 -10q-8 -15 -18.5 -31.5t-25 -31.5
t-32.5 -27.5t-40 -19.5h1q-20 -4 -27 -6t-13 -3.5t-17 -3t-37 -2.5q-9 -11 -23.5 -30.5t-28.5 -41.5t-24 -41.5t-11 -30.5q0 -6 12 -9.5t28 -5t31 -1.5h20q20 0 40.5 2t51.5 6q8 -4 11 -9t3 -10q-1 -5 -2.5 -10.5t-1.5 -10.5q-2 -17 19 -27q2 -2 2 -6q0 -8 -10 -20.5
t-25.5 -27t-36 -27.5t-41.5 -20h1q-48 -12 -84.5 -17.5t-76.5 -5.5h-45.5t-58.5 5.5t-50.5 19.5t-19.5 41q0 3 2 9q15 78 39 148.5t58 139t77.5 138t97.5 146.5q11 16 16.5 35.5t10 38.5t12 34t22.5 22q78 28 155.5 48.5t139.5 20.5q12 0 24.5 -1t24.5 -3h1zM586 838
q-37 -26 -73 -38t-57 -12q-13 0 -21.5 4.5t-7.5 14.5q0 15 22 43q59 58 117 110t129 107q3 3 5 4t6 4h-1q32 26 61 40.5t51 14.5q12 0 21 -9q0 -3 -5 -12.5t-11 -19.5q-7 -11 -16 -25q1 -8 0.5 -18.5t-1.5 -20.5q-1 -19 -3.5 -37.5t-5.5 -37.5q2 -9 2.5 -20t-0.5 -22
t-6 -26.5t-15.5 -30.5t-28.5 -25.5t-44 -10.5q-14 0 -18 8q2 7 4.5 13t6.5 14q0 17 -2.5 30t-6.5 24l-9 23l-46 -46t-47 -43z" />
    <glyph glyph-name="Aacute" unicode="&#xe7;" horiz-adv-x="574" 
d="M545 751q19 8 37.5 14.5t33.5 6.5q16 0 31.5 -3.5t27.5 -10.5t19 -17t6 -22q0 -15 -19 -38q30 -16 36 -51q-29 -76 -55.5 -151t-52.5 -149.5t-53 -149.5t-57 -151l-10 -22q-4 -11 -7 -20t-8 -20q-16 -14 -38 -22t-43 -8q-13 0 -26.5 2.5t-25 8t-18.5 13.5t-7 19
q1 14 12.5 39.5t17.5 54.5l14 47q-17 -4 -32.5 -11t-28 -14.5t-22 -13.5t-14.5 -9q-14 -8 -24.5 -10.5t-19 -3t-16 -2t-14.5 -6.5q-38 -53 -78 -88t-86 -35q-10 0 -20.5 3.5t-18.5 10.5t-13.5 18t-4.5 27q1 19 10.5 46t21.5 52.5t23 46t16 28.5q48 79 102 158t114 153.5
t126 143t140 127.5l-1 -1zM294 209l94 3q14 44 28.5 89.5t30.5 89.5l29 83l-8 4l-53 -62q-8 -16 -18.5 -34.5t-19.5 -34.5zM738 1064q15 7 38 7q14 0 28 -3t24.5 -8.5t16.5 -13.5t6 -19q-1 -9 -9.5 -25.5t-22.5 -31.5q-126 -105 -191 -105q-14 0 -24 5t-10 18q1 6 3.5 14.5
t9.5 18.5v-1l7 7q8 24 24.5 47.5t35.5 43t36.5 32t26.5 14.5h1z" />
    <glyph glyph-name="Edieresis" unicode="&#xe8;" horiz-adv-x="534" 
d="M688 770q27 -1 39 -14t10 -32q-1 -20 -12.5 -42t-31 -42t-46 -35t-57.5 -19q-27 -7 -46.5 -12.5t-33.5 -11.5t-24.5 -14t-19.5 -19l-6 -7q-18 -21 -31 -40.5t-22 -40.5l-12 -26q19 -8 37 -8q25 0 50 4.5t42 4.5t17 -10q0 -2 -4 -10q-8 -15 -18.5 -31.5t-25 -31.5
t-32.5 -27.5t-40 -19.5h1q-20 -4 -27 -6t-13 -3.5t-17 -3t-37 -2.5q-9 -11 -23.5 -30.5t-28.5 -41.5t-24 -41.5t-11 -30.5q0 -6 12 -9.5t28 -5t31 -1.5h20q20 0 40.5 2t51.5 6q8 -4 11 -9t3 -10q-1 -5 -2.5 -10.5t-1.5 -10.5q-2 -17 19 -27q2 -2 2 -6q0 -8 -10 -20.5
t-25.5 -27t-36 -27.5t-41.5 -20h1q-48 -12 -84.5 -17.5t-76.5 -5.5h-45.5t-58.5 5.5t-50.5 19.5t-19.5 41q0 3 2 9q15 78 39 148.5t58 139t77.5 138t97.5 146.5q11 16 16.5 35.5t10 38.5t12 34t22.5 22q78 28 155.5 48.5t139.5 20.5q12 0 24.5 -1t24.5 -3h1zM452 803
q-17 9 -24.5 20.5t-6.5 23.5q1 20 15.5 38t35 32t43 22.5t39.5 8.5q29 0 42 -17t11 -35q-1 -19 -14 -36.5t-32 -31t-40 -22t-37 -8.5q-5 0 -9 0.5t-9 1.5l-12 3h-2zM680 812q-17 11 -24 24t-6 28q1 23 15.5 45t35.5 39t44.5 27.5t41.5 10.5q3 0 8 -1.5t10.5 -4t9.5 -4
t5 -1.5q21 -24 19 -52q-1 -22 -14.5 -43t-33 -37.5t-41.5 -26.5t-40 -10q-8 0 -18 3l-10 3h-2z" />
    <glyph glyph-name="Egrave" unicode="&#xe9;" horiz-adv-x="534" 
d="M688 770q27 -1 39 -14t10 -32q-1 -20 -12.5 -42t-31 -42t-46 -35t-57.5 -19q-27 -7 -46.5 -12.5t-33.5 -11.5t-24.5 -14t-19.5 -19l-6 -7q-18 -21 -31 -40.5t-22 -40.5l-12 -26q19 -8 37 -8q25 0 50 4.5t42 4.5t17 -10q0 -2 -4 -10q-8 -15 -18.5 -31.5t-25 -31.5
t-32.5 -27.5t-40 -19.5h1q-20 -4 -27 -6t-13 -3.5t-17 -3t-37 -2.5q-9 -11 -23.5 -30.5t-28.5 -41.5t-24 -41.5t-11 -30.5q0 -6 12 -9.5t28 -5t31 -1.5h20q20 0 40.5 2t51.5 6q8 -4 11 -9t3 -10q-1 -5 -2.5 -10.5t-1.5 -10.5q-2 -17 19 -27q2 -2 2 -6q0 -8 -10 -20.5
t-25.5 -27t-36 -27.5t-41.5 -20h1q-48 -12 -84.5 -17.5t-76.5 -5.5h-45.5t-58.5 5.5t-50.5 19.5t-19.5 41q0 3 2 9q15 78 39 148.5t58 139t77.5 138t97.5 146.5q11 16 16.5 35.5t10 38.5t12 34t22.5 22q78 28 155.5 48.5t139.5 20.5q12 0 24.5 -1t24.5 -3h1zM498 968
q1 22 11 38t26 26t35 15t38 5q35 0 63 -11.5t36 -40.5q-10 -19 -13 -39t-7 -40q-4 -23 -8 -40t-10.5 -28t-17 -16.5t-26.5 -5.5q-11 0 -21 3t-17 7l-3 12q-5 2 -6.5 3.5t-1.5 3.5l-9 18q-9 13 -20 25.5t-20.5 23t-17 18.5t-9.5 13v-1l-3 10z" />
    <glyph glyph-name="Iacute" unicode="&#xea;" horiz-adv-x="349" 
d="M551 682q-57 -110 -103.5 -199.5t-85.5 -164t-72 -137.5t-63 -120q-14 -39 -36.5 -61t-46.5 -32.5t-45 -13t-31 -2.5q-49 0 -67 11.5t-17 31.5q1 16 11 39t24 51q32 58 73 135.5t83.5 157t83 151.5t73.5 119q20 28 36.5 37t31.5 13.5t29 11.5t29 31q11 18 29.5 27.5
t35.5 9.5q20 0 34.5 -11t12.5 -34q-2 -21 -18 -51h-1zM632 1058q15 7 38 7q14 0 28 -3t24.5 -8.5t16.5 -13.5t6 -19q-1 -9 -9.5 -25.5t-22.5 -31.5q-126 -105 -191 -105q-14 0 -24 5t-10 18q1 6 3.5 14.5t9.5 18.5v-1l7 7q8 24 24.5 47.5t35.5 43t36.5 32t26.5 14.5h1z" />
    <glyph glyph-name="Icircumflex" unicode="&#xeb;" horiz-adv-x="349" 
d="M551 682q-57 -110 -103.5 -199.5t-85.5 -164t-72 -137.5t-63 -120q-14 -39 -36.5 -61t-46.5 -32.5t-45 -13t-31 -2.5q-49 0 -67 11.5t-17 31.5q1 16 11 39t24 51q32 58 73 135.5t83.5 157t83 151.5t73.5 119q20 28 36.5 37t31.5 13.5t29 11.5t29 31q11 18 29.5 27.5
t35.5 9.5q20 0 34.5 -11t12.5 -34q-2 -21 -18 -51h-1zM495 811q-37 -26 -73 -38t-57 -12q-13 0 -21.5 4.5t-7.5 14.5q0 15 22 43q59 58 117 110t129 107q3 3 5 4t6 4h-1q32 26 61 40.5t51 14.5q12 0 21 -9q0 -3 -5 -12.5t-11 -19.5q-7 -11 -16 -25q1 -8 0.5 -18.5
t-1.5 -20.5q-1 -19 -3.5 -37.5t-5.5 -37.5q2 -9 2.5 -20t-0.5 -22t-6 -26.5t-15.5 -30.5t-28.5 -25.5t-44 -10.5q-14 0 -18 8q2 7 4.5 13t6.5 14q0 17 -2.5 30t-6.5 24l-9 23l-46 -46t-47 -43z" />
    <glyph glyph-name="Idieresis" unicode="&#xec;" horiz-adv-x="349" 
d="M551 682q-57 -110 -103.5 -199.5t-85.5 -164t-72 -137.5t-63 -120q-14 -39 -36.5 -61t-46.5 -32.5t-45 -13t-31 -2.5q-49 0 -67 11.5t-17 31.5q1 16 11 39t24 51q32 58 73 135.5t83.5 157t83 151.5t73.5 119q20 28 36.5 37t31.5 13.5t29 11.5t29 31q11 18 29.5 27.5
t35.5 9.5q20 0 34.5 -11t12.5 -34q-2 -21 -18 -51h-1zM380 804q-17 9 -24.5 20.5t-6.5 23.5q1 20 15.5 38t35 32t43 22.5t39.5 8.5q29 0 42 -17t11 -35q-1 -19 -14 -36.5t-32 -31t-40 -22t-37 -8.5q-5 0 -9 0.5t-9 1.5l-12 3h-2zM608 813q-17 11 -24 24t-6 28q1 23 15.5 45
t35.5 39t44.5 27.5t41.5 10.5q3 0 8 -1.5t10.5 -4t9.5 -4t5 -1.5q21 -24 19 -52q-1 -22 -14.5 -43t-33 -37.5t-41.5 -26.5t-40 -10q-8 0 -18 3l-10 3h-2z" />
    <glyph glyph-name="Igrave" unicode="&#xed;" horiz-adv-x="349" 
d="M551 682q-57 -110 -103.5 -199.5t-85.5 -164t-72 -137.5t-63 -120q-14 -39 -36.5 -61t-46.5 -32.5t-45 -13t-31 -2.5q-49 0 -67 11.5t-17 31.5q1 16 11 39t24 51q32 58 73 135.5t83.5 157t83 151.5t73.5 119q20 28 36.5 37t31.5 13.5t29 11.5t29 31q11 18 29.5 27.5
t35.5 9.5q20 0 34.5 -11t12.5 -34q-2 -21 -18 -51h-1zM469 979q1 22 11 38t26 26t35 15t38 5q35 0 63 -11.5t36 -40.5q-10 -19 -13 -39t-7 -40q-4 -23 -8 -40t-10.5 -28t-17 -16.5t-26.5 -5.5q-11 0 -21 3t-17 7l-3 12q-5 2 -6.5 3.5t-1.5 3.5l-9 18q-9 13 -20 25.5
t-20.5 23t-17 18.5t-9.5 13v-1l-3 10z" />
    <glyph glyph-name="Oacute" unicode="&#xee;" 
d="M385 705q35 25 74 38t76 13q14 0 28 -2.5t28 -7.5q20 17 39.5 25t38.5 8q31 0 57 -16.5t43 -44.5q0 -5 2.5 -13t4.5 -17l4 -23q8 -33 6 -72q-3 -55 -22 -116.5t-47.5 -123t-63.5 -118t-69 -100.5q-31 -39 -67.5 -77.5t-79 -68.5t-90.5 -48.5t-100 -18.5q-58 0 -97.5 18.5
t-63 47.5t-33 66t-7.5 73q2 44 16 92t35 96t46 94t49 85v-1q16 24 39 53.5t48.5 59t53 55.5t52.5 44zM315 71q42 42 81.5 101.5t70.5 126.5t52 136t27 130q-38 -39 -85 -90t-92 -108.5t-81.5 -118.5t-54.5 -119l-3 -19q1 -5 2.5 -15.5t5.5 -22t11 -22t18 -15.5l18 13
q7 5 15.5 10.5t14.5 12.5zM792 1057q15 7 38 7q14 0 28 -3t24.5 -8.5t16.5 -13.5t6 -19q-1 -9 -9.5 -25.5t-22.5 -31.5q-126 -105 -191 -105q-14 0 -24 5t-10 18q1 6 3.5 14.5t9.5 18.5v-1l7 7q8 24 24.5 47.5t35.5 43t36.5 32t26.5 14.5h1z" />
    <glyph glyph-name="Ocircumflex" unicode="&#xef;" 
d="M385 705q35 25 74 38t76 13q14 0 28 -2.5t28 -7.5q20 17 39.5 25t38.5 8q31 0 57 -16.5t43 -44.5q0 -5 2.5 -13t4.5 -17l4 -23q8 -33 6 -72q-3 -55 -22 -116.5t-47.5 -123t-63.5 -118t-69 -100.5q-31 -39 -67.5 -77.5t-79 -68.5t-90.5 -48.5t-100 -18.5q-58 0 -97.5 18.5
t-63 47.5t-33 66t-7.5 73q2 44 16 92t35 96t46 94t49 85v-1q16 24 39 53.5t48.5 59t53 55.5t52.5 44zM315 71q42 42 81.5 101.5t70.5 126.5t52 136t27 130q-38 -39 -85 -90t-92 -108.5t-81.5 -118.5t-54.5 -119l-3 -19q1 -5 2.5 -15.5t5.5 -22t11 -22t18 -15.5l18 13
q7 5 15.5 10.5t14.5 12.5zM638 829q-37 -26 -73 -38t-57 -12q-13 0 -21.5 4.5t-7.5 14.5q0 15 22 43q59 58 117 110t129 107q3 3 5 4t6 4h-1q32 26 61 40.5t51 14.5q12 0 21 -9q0 -3 -5 -12.5t-11 -19.5q-7 -11 -16 -25q1 -8 0.5 -18.5t-1.5 -20.5q-1 -19 -3.5 -37.5
t-5.5 -37.5q2 -9 2.5 -20t-0.5 -22t-6 -26.5t-15.5 -30.5t-28.5 -25.5t-44 -10.5q-14 0 -18 8q2 7 4.5 13t6.5 14q0 17 -2.5 30t-6.5 24l-9 23l-46 -46t-47 -43z" />
    <glyph glyph-name="Ograve" unicode="&#xf1;" 
d="M385 705q35 25 74 38t76 13q14 0 28 -2.5t28 -7.5q20 17 39.5 25t38.5 8q31 0 57 -16.5t43 -44.5q0 -5 2.5 -13t4.5 -17l4 -23q8 -33 6 -72q-3 -55 -22 -116.5t-47.5 -123t-63.5 -118t-69 -100.5q-31 -39 -67.5 -77.5t-79 -68.5t-90.5 -48.5t-100 -18.5q-58 0 -97.5 18.5
t-63 47.5t-33 66t-7.5 73q2 44 16 92t35 96t46 94t49 85v-1q16 24 39 53.5t48.5 59t53 55.5t52.5 44zM315 71q42 42 81.5 101.5t70.5 126.5t52 136t27 130q-38 -39 -85 -90t-92 -108.5t-81.5 -118.5t-54.5 -119l-3 -19q1 -5 2.5 -15.5t5.5 -22t11 -22t18 -15.5l18 13
q7 5 15.5 10.5t14.5 12.5zM616 965q1 22 11 38t26 26t35 15t38 5q35 0 63 -11.5t36 -40.5q-10 -19 -13 -39t-7 -40q-4 -23 -8 -40t-10.5 -28t-17 -16.5t-26.5 -5.5q-11 0 -21 3t-17 7l-3 12q-5 2 -6.5 3.5t-1.5 3.5l-9 18q-9 13 -20 25.5t-20.5 23t-17 18.5t-9.5 13v-1
l-3 10z" />
    <glyph glyph-name="Uacute" unicode="&#xf2;" 
d="M425 767q25 0 41.5 -19.5t15.5 -45.5q-1 -16 -14 -43.5t-33.5 -63t-44 -76.5t-45 -84t-38.5 -85t-22 -80q-2 -23 13 -23q11 0 34 21.5t52 56.5t62.5 79t66 90t62 89t51.5 76q11 18 22.5 37t25 34t29.5 25t34 10q14 0 30 -8q17 17 35 24.5t35 7.5q22 0 36 -12t12 -37v-8
q-3 -20 -35.5 -83t-80.5 -156.5t-103.5 -210.5t-104.5 -246q-4 -19 -17.5 -34.5t-32 -26t-39 -16.5t-39.5 -6q-32 0 -43.5 13t-9.5 43q0 5 0.5 9t1.5 9h-10q-3 -20 -20.5 -34.5t-41 -23.5t-46.5 -13t-36 -4q-39 0 -71.5 11t-55 32t-34 52t-9.5 71q3 63 27 134t58 141.5
t73 137t72 120.5q10 19 24 39.5t31 37.5t37.5 28t44.5 11zM698 1003q15 7 38 7q14 0 28 -3t24.5 -8.5t16.5 -13.5t6 -19q-1 -9 -9.5 -25.5t-22.5 -31.5q-126 -105 -191 -105q-14 0 -24 5t-10 18q1 6 3.5 14.5t9.5 18.5v-1l7 7q8 24 24.5 47.5t35.5 43t36.5 32t26.5 14.5h1z
" />
    <glyph glyph-name="Ucircumflex" unicode="&#xf3;" 
d="M425 767q25 0 41.5 -19.5t15.5 -45.5q-1 -16 -14 -43.5t-33.5 -63t-44 -76.5t-45 -84t-38.5 -85t-22 -80q-2 -23 13 -23q11 0 34 21.5t52 56.5t62.5 79t66 90t62 89t51.5 76q11 18 22.5 37t25 34t29.5 25t34 10q14 0 30 -8q17 17 35 24.5t35 7.5q22 0 36 -12t12 -37v-8
q-3 -20 -35.5 -83t-80.5 -156.5t-103.5 -210.5t-104.5 -246q-4 -19 -17.5 -34.5t-32 -26t-39 -16.5t-39.5 -6q-32 0 -43.5 13t-9.5 43q0 5 0.5 9t1.5 9h-10q-3 -20 -20.5 -34.5t-41 -23.5t-46.5 -13t-36 -4q-39 0 -71.5 11t-55 32t-34 52t-9.5 71q3 63 27 134t58 141.5
t73 137t72 120.5q10 19 24 39.5t31 37.5t37.5 28t44.5 11zM654 838q-37 -26 -73 -38t-57 -12q-13 0 -21.5 4.5t-7.5 14.5q0 15 22 43q59 58 117 110t129 107q3 3 5 4t6 4h-1q32 26 61 40.5t51 14.5q12 0 21 -9q0 -3 -5 -12.5t-11 -19.5q-7 -11 -16 -25q1 -8 0.5 -18.5
t-1.5 -20.5q-1 -19 -3.5 -37.5t-5.5 -37.5q2 -9 2.5 -20t-0.5 -22t-6 -26.5t-15.5 -30.5t-28.5 -25.5t-44 -10.5q-14 0 -18 8q2 7 4.5 13t6.5 14q0 17 -2.5 30t-6.5 24l-9 23l-46 -46t-47 -43z" />
    <glyph glyph-name="Ugrave" unicode="&#xf4;" 
d="M425 767q25 0 41.5 -19.5t15.5 -45.5q-1 -16 -14 -43.5t-33.5 -63t-44 -76.5t-45 -84t-38.5 -85t-22 -80q-2 -23 13 -23q11 0 34 21.5t52 56.5t62.5 79t66 90t62 89t51.5 76q11 18 22.5 37t25 34t29.5 25t34 10q14 0 30 -8q17 17 35 24.5t35 7.5q22 0 36 -12t12 -37v-8
q-3 -20 -35.5 -83t-80.5 -156.5t-103.5 -210.5t-104.5 -246q-4 -19 -17.5 -34.5t-32 -26t-39 -16.5t-39.5 -6q-32 0 -43.5 13t-9.5 43q0 5 0.5 9t1.5 9h-10q-3 -20 -20.5 -34.5t-41 -23.5t-46.5 -13t-36 -4q-39 0 -71.5 11t-55 32t-34 52t-9.5 71q3 63 27 134t58 141.5
t73 137t72 120.5q10 19 24 39.5t31 37.5t37.5 28t44.5 11zM552 946q1 22 11 38t26 26t35 15t38 5q35 0 63 -11.5t36 -40.5q-10 -19 -13 -39t-7 -40q-4 -23 -8 -40t-10.5 -28t-17 -16.5t-26.5 -5.5q-11 0 -21 3t-17 7l-3 12q-5 2 -6.5 3.5t-1.5 3.5l-9 18q-9 13 -20 25.5
t-20.5 23t-17 18.5t-9.5 13v-1l-3 10z" />
    <glyph glyph-name="circumflex" unicode="&#xf6;" horiz-adv-x="440" 
d="M282 511q-37 -26 -73 -38t-57 -12q-13 0 -21.5 4.5t-7.5 14.5q0 15 22 43q59 58 117 110t129 107q3 3 5 4t6 4h-1q32 26 61 40.5t51 14.5q12 0 21 -9q0 -3 -5 -12.5t-11 -19.5q-7 -11 -16 -25q1 -8 0.5 -18.5t-1.5 -20.5q-1 -19 -3.5 -37.5t-5.5 -37.5q2 -9 2.5 -20
t-0.5 -22t-6 -26.5t-15.5 -30.5t-28.5 -25.5t-44 -10.5q-14 0 -18 8q2 7 4.5 13t6.5 14q0 17 -2.5 30t-6.5 24l-9 23l-46 -46t-47 -43z" />
    <glyph glyph-name="tilde" unicode="&#xf7;" horiz-adv-x="395" 
d="M329 652q-7 1 -13.5 7t-14 13t-16 13t-19.5 6q-4 0 -12 -2l-32 -22q-18 -14 -34.5 -23.5t-27.5 -9.5q-4 0 -6 1l1 -1q-13 8 -21 16.5t-7 19.5q1 25 29.5 56t69.5 54l3 1.5t3 0.5l28 18h-1q19 11 37.5 17.5t32.5 6.5q16 0 27.5 -7.5t10.5 -25.5q0 -3 -1 -5t-2 -5
q0 -3 2 -7l2 -12q2 -8 4.5 -15t9.5 -18q28 5 49 13l9 6h-1q21 17 36.5 25.5t29.5 8.5q9 0 9 -15q-2 -19 -19.5 -35.5t-38.5 -30.5q-37 -30 -57 -42t-40 -12q-10 0 -30 5z" />
    <glyph glyph-name="breve" unicode="&#xf9;" horiz-adv-x="525" 
d="M143 800q-6 35 14.5 62.5t65.5 39.5q24 7 49 7t48 -8.5t44 -21.5q11 -14 14 -24.5t4 -28.5q-1 -9 -0.5 -17t-4.5 -16q5 -10 12.5 -17.5t12.5 -10.5q27 0 51.5 2.5t47.5 23.5q14 14 27.5 26t26.5 21l-1 -1q12 5 25 8.5t25 3.5q17 0 30.5 -10t17.5 -27q-8 -35 -36.5 -64
t-67.5 -48q-23 -23 -50 -39.5t-55 -25.5q-54 -17 -110 -17q-32 0 -63 6t-57.5 18t-47.5 31t-32 46h1q-2 4 -5 20t-3.5 31.5t2.5 26t15 3.5z" />
    <glyph glyph-name="breve" unicode="&#x2d8;" horiz-adv-x="525" 
d="M143 800q-6 35 14.5 62.5t65.5 39.5q24 7 49 7t48 -8.5t44 -21.5q11 -14 14 -24.5t4 -28.5q-1 -9 -0.5 -17t-4.5 -16q5 -10 12.5 -17.5t12.5 -10.5q27 0 51.5 2.5t47.5 23.5q14 14 27.5 26t26.5 21l-1 -1q12 5 25 8.5t25 3.5q17 0 30.5 -10t17.5 -27q-8 -35 -36.5 -64
t-67.5 -48q-23 -23 -50 -39.5t-55 -25.5q-54 -17 -110 -17q-32 0 -63 6t-57.5 18t-47.5 31t-32 46h1q-2 4 -5 20t-3.5 31.5t2.5 26t15 3.5z" />
    <glyph glyph-name="dotaccent" unicode="&#xfa;" horiz-adv-x="245" 
d="M169 606q-21 11 -29.5 24t-7.5 28q1 22 18.5 43.5t42 39t51 28.5t46.5 11q25 0 44.5 -19.5t18.5 -45.5q-1 -22 -16 -43t-37 -37.5t-46.5 -26.5t-45.5 -10q-5 0 -10.5 1t-12.5 3l-14 2l-2 2v0z" />
    <glyph glyph-name="dotaccent" unicode="&#x2d9;" horiz-adv-x="245" 
d="M169 606q-21 11 -29.5 24t-7.5 28q1 22 18.5 43.5t42 39t51 28.5t46.5 11q25 0 44.5 -19.5t18.5 -45.5q-1 -22 -16 -43t-37 -37.5t-46.5 -26.5t-45.5 -10q-5 0 -10.5 1t-12.5 3l-14 2l-2 2v0z" />
    <glyph glyph-name="ring" unicode="&#xfb;" horiz-adv-x="480" 
d="M196 807q25 21 64.5 35t73.5 19q18 8 42 13t49 5.5t49 -2.5t41 -12q40 -21 58.5 -51.5t16.5 -65.5t-24.5 -72t-68.5 -69q-21 -15 -49 -25t-57.5 -16t-58 -7.5t-50.5 -0.5q-19 2 -38.5 4t-39.5 5q-5 1 -12.5 6l-15 10t-13.5 10t-8 7q-17 14 -24 32t-5 39q2 36 21.5 73
t48.5 63zM407 711q0 -1 1.5 1t3.5 7q-33 -7 -59 -9q-5 1 -11.5 1.5t-14.5 0.5q-4 0 -9.5 0.5t-8.5 0.5q-17 -16 -24.5 -38.5t9.5 -33.5q14 -9 33.5 -6.5t37.5 12.5t30.5 26t12.5 34z" />
    <glyph glyph-name="ring" unicode="&#x2da;" horiz-adv-x="480" 
d="M196 807q25 21 64.5 35t73.5 19q18 8 42 13t49 5.5t49 -2.5t41 -12q40 -21 58.5 -51.5t16.5 -65.5t-24.5 -72t-68.5 -69q-21 -15 -49 -25t-57.5 -16t-58 -7.5t-50.5 -0.5q-19 2 -38.5 4t-39.5 5q-5 1 -12.5 6l-15 10t-13.5 10t-8 7q-17 14 -24 32t-5 39q2 36 21.5 73
t48.5 63zM407 711q0 -1 1.5 1t3.5 7q-33 -7 -59 -9q-5 1 -11.5 1.5t-14.5 0.5q-4 0 -9.5 0.5t-8.5 0.5q-17 -16 -24.5 -38.5t9.5 -33.5q14 -9 33.5 -6.5t37.5 12.5t30.5 26t12.5 34z" />
    <glyph glyph-name="cedilla" unicode="&#xfc;" horiz-adv-x="413" 
d="M-16 -301q-15 2 -27 14.5t-10 38.5q0 8 4 18.5t4 14.5q6 14 13.5 26.5t18 22t25.5 15t37 5.5q9 0 15 -4t13 -11h-1q2 -2 5 -4.5t11 -8.5q3 1 12 1h6q66 3 100.5 15t35.5 26q0 9 -12 18h-18q-18 0 -37.5 1.5t-35.5 6.5t-26 14t-9 25q1 9 4 19t11 24v-1q7 10 18 24t25 26.5
t29 21t30 8.5q16 0 15 -18q0 -9 -6 -21l-6 -7l6 -6l-15 -9l-14 -22q24 -5 42 -10l36 -13q14 -5 26 -10t21 -12.5t14 -18.5t4 -28q-1 -26 -13.5 -48t-32 -40.5t-44 -35t-51.5 -29.5q-16 -8 -36.5 -14.5t-42.5 -11t-44.5 -7t-42.5 -2.5q-35 0 -55 7h-2z" />
    <glyph glyph-name="hungarumlaut" unicode="&#xfd;" horiz-adv-x="468" 
d="M522 703q5 28 17 48.5t28.5 34t35.5 20t37 6.5q30 0 53 -20t21 -58q-3 -51 -28.5 -93.5t-56.5 -78.5l-27 -31q-11 -16 -28.5 -25t-32.5 -9q-16 0 -26.5 10t-8.5 33v6.5t2 8.5q6 34 7.5 68.5t6.5 80.5v-1zM264 609q2 40 16.5 75t36 61t46.5 40.5t48 14.5q25 0 44.5 -23.5
t23.5 -71.5q-6 -19 -15 -39.5t-18.5 -39.5t-18 -34.5t-13.5 -24.5v1l-49 -57q-11 -15 -27.5 -23.5t-31.5 -8.5q-16 0 -27 9.5t-9 31.5v7t2 10z" />
    <glyph glyph-name="hungarumlaut" unicode="&#x2dd;" horiz-adv-x="468" 
d="M522 703q5 28 17 48.5t28.5 34t35.5 20t37 6.5q30 0 53 -20t21 -58q-3 -51 -28.5 -93.5t-56.5 -78.5l-27 -31q-11 -16 -28.5 -25t-32.5 -9q-16 0 -26.5 10t-8.5 33v6.5t2 8.5q6 34 7.5 68.5t6.5 80.5v-1zM264 609q2 40 16.5 75t36 61t46.5 40.5t48 14.5q25 0 44.5 -23.5
t23.5 -71.5q-6 -19 -15 -39.5t-18.5 -39.5t-18 -34.5t-13.5 -24.5v1l-49 -57q-11 -15 -27.5 -23.5t-31.5 -8.5q-16 0 -27 9.5t-9 31.5v7t2 10z" />
    <glyph glyph-name="ogonek" unicode="&#xfe;" horiz-adv-x="471" 
d="M113 -157q-9 -19 -2.5 -27t17.5 -11q13 -4 33 -2q11 3 24.5 11t28.5 16.5t29.5 16t26.5 11.5l21 6q14 4 25 7.5t22 3.5q30 0 50.5 -15t18.5 -36q0 -20 -19 -48l-20 -16q-6 -8 -12.5 -15.5t-14.5 -15.5v1q-17 -17 -35.5 -28.5t-34.5 -19.5v1l-3 -3q-42 -20 -83 -29.5
t-81 -9.5q-38 0 -72.5 7.5t-60.5 20.5q-19 9 -27.5 34.5t-6.5 55.5q0 14 5 32q10 38 22.5 65.5t31 47.5t44.5 34.5t63 28.5l30 10q33 11 61.5 25.5t49.5 43.5q23 22 41.5 30.5t38.5 8.5q16 0 30 -6.5t13 -25.5q-1 -16 -9 -34.5t-21 -37t-29.5 -35t-33.5 -27.5q3 1 3 3
l-8.5 -4t-20 -10t-23.5 -12.5t-19 -9.5q-12 -6 -20.5 -9t-18 -7t-22.5 -10t-32 -17z" />
    <glyph glyph-name="ogonek" unicode="&#x2db;" horiz-adv-x="471" 
d="M113 -157q-9 -19 -2.5 -27t17.5 -11q13 -4 33 -2q11 3 24.5 11t28.5 16.5t29.5 16t26.5 11.5l21 6q14 4 25 7.5t22 3.5q30 0 50.5 -15t18.5 -36q0 -20 -19 -48l-20 -16q-6 -8 -12.5 -15.5t-14.5 -15.5v1q-17 -17 -35.5 -28.5t-34.5 -19.5v1l-3 -3q-42 -20 -83 -29.5
t-81 -9.5q-38 0 -72.5 7.5t-60.5 20.5q-19 9 -27.5 34.5t-6.5 55.5q0 14 5 32q10 38 22.5 65.5t31 47.5t44.5 34.5t63 28.5l30 10q33 11 61.5 25.5t49.5 43.5q23 22 41.5 30.5t38.5 8.5q16 0 30 -6.5t13 -25.5q-1 -16 -9 -34.5t-21 -37t-29.5 -35t-33.5 -27.5q3 1 3 3
l-8.5 -4t-20 -10t-23.5 -12.5t-19 -9.5q-12 -6 -20.5 -9t-18 -7t-22.5 -10t-32 -17z" />
    <glyph glyph-name="caron" unicode="&#xff;" horiz-adv-x="440" 
d="M423 792q37 19 70 19h10h9q27 0 47 -11.5t19 -31.5q-1 -16 -14 -34v1q-27 -26 -51 -48t-47.5 -41.5t-48 -38.5t-53.5 -38l-12 -9q-20 -14 -39 -21.5t-41 -7.5q-15 0 -26.5 5t-19.5 19l1 -1q-2 6 -2 9q2 17 23 33q-3 3 -5.5 22t-3.5 42t-2 44t-1 29q-4 16 -8 35t-2 36
q1 19 10 34t35 19q15 0 29.5 -4.5t19.5 -17.5q0 -7 -1.5 -15.5t-1.5 -11.5q1 -14 7 -32t12 -31l10 -25q20 20 40 39t38 33h-1z" />
    <glyph glyph-name="caron" unicode="&#x2c7;" horiz-adv-x="440" 
d="M423 792q37 19 70 19h10h9q27 0 47 -11.5t19 -31.5q-1 -16 -14 -34v1q-27 -26 -51 -48t-47.5 -41.5t-48 -38.5t-53.5 -38l-12 -9q-20 -14 -39 -21.5t-41 -7.5q-15 0 -26.5 5t-19.5 19l1 -1q-2 6 -2 9q2 17 23 33q-3 3 -5.5 22t-3.5 42t-2 44t-1 29q-4 16 -8 35t-2 36
q1 19 10 34t35 19q15 0 29.5 -4.5t19.5 -17.5q0 -7 -1.5 -15.5t-1.5 -11.5q1 -14 7 -32t12 -31l10 -25q20 20 40 39t38 33h-1z" />
    <glyph glyph-name="aring" unicode="&#x152;" horiz-adv-x="528" 
d="M463 483q9 -2 23 -5t26.5 -8t21 -13.5t7.5 -20.5q0 -10 10 -10q5 1 9 1.5t6 0.5q10 0 16 -6.5t9 -16t3.5 -21t0.5 -21.5q-5 -31 -19 -78t-29.5 -96.5t-31 -95t-23.5 -75.5q-3 -26 -29.5 -38.5t-56.5 -12.5q-26 0 -46.5 9t-18.5 26l3 10l-8 5q-9 -13 -27 -24.5
t-42.5 -20.5t-54 -14t-62.5 -5q-31 0 -56.5 5.5t-43.5 17.5t-27 32.5t-7 50.5q1 20 7 47.5t16.5 57t25 59t31.5 55.5q28 36 71.5 73t92 66.5t97 48.5t85.5 19q5 0 10.5 -0.5t10.5 -1.5zM220 75q22 0 40 15t32.5 37.5t26.5 48t22 46.5l15 32q-34 -13 -67 -30.5t-59 -36
t-43 -37t-19 -33.5q-1 -14 13.5 -28t38.5 -14zM374 780q25 21 64.5 35t73.5 19q18 8 42 13t49 5.5t49 -2.5t41 -12q40 -21 58.5 -51.5t16.5 -65.5t-24.5 -72t-68.5 -69q-21 -15 -49 -25t-57.5 -16t-58 -7.5t-50.5 -0.5q-19 2 -38.5 4t-39.5 5q-5 1 -12.5 6l-15 10t-13.5 10
t-8 7q-17 14 -24 32t-5 39q2 36 21.5 73t48.5 63zM585 684q0 -1 1.5 1t3.5 7q-33 -7 -59 -9q-5 1 -11.5 1.5t-14.5 0.5q-4 0 -9.5 0.5t-8.5 0.5q-17 -16 -24.5 -38.5t9.5 -33.5q14 -9 33.5 -6.5t37.5 12.5t30.5 26t12.5 34z" />
    <glyph glyph-name="uacute" unicode="&#x153;" horiz-adv-x="616" 
d="M19 67q13 80 62.5 174t134.5 197q42 33 85 33q31 0 52 -17t19 -43q-1 -9 -4.5 -20t-10.5 -22q-44 -50 -80 -116t-65 -129q43 24 76 50t60 53.5t49.5 56t45.5 58.5l49 67l41 51q9 17 24 21.5t32 4.5h13q27 0 49 8.5t40 8.5q12 0 22.5 -4.5t19 -11t13 -15.5t3.5 -18
q0 -8 -4 -15q-32 -48 -64 -108.5t-62.5 -121t-57.5 -115t-49 -91.5v1q-26 -26 -58.5 -37.5t-62.5 -11.5q-32 0 -54 12t-20 33q0 11 8 22l-6 6q-40 -29 -84 -50t-95 -21q-25 0 -48 6t-40 18t-26.5 31t-8.5 45q2 6 2 11v-1v0zM594 774q15 7 38 7q14 0 28 -3t24.5 -8.5
t16.5 -13.5t6 -19q-1 -9 -9.5 -25.5t-22.5 -31.5q-126 -105 -191 -105q-14 0 -24 5t-10 18q1 6 3.5 14.5t9.5 18.5v-1l7 7q8 24 24.5 47.5t35.5 43t36.5 32t26.5 14.5h1z" />
    <glyph glyph-name="adieresis" unicode="&#x160;" horiz-adv-x="546" 
d="M463 483q9 -2 23 -5t26.5 -8t21 -13.5t7.5 -20.5q0 -10 10 -10q5 1 9 1.5t6 0.5q10 0 16 -6.5t9 -16t3.5 -21t0.5 -21.5q-5 -31 -19 -78t-29.5 -96.5t-31 -95t-23.5 -75.5q-3 -26 -29.5 -38.5t-56.5 -12.5q-26 0 -46.5 9t-18.5 26l3 10l-8 5q-9 -13 -27 -24.5
t-42.5 -20.5t-54 -14t-62.5 -5q-31 0 -56.5 5.5t-43.5 17.5t-27 32.5t-7 50.5q1 20 7 47.5t16.5 57t25 59t31.5 55.5q28 36 71.5 73t92 66.5t97 48.5t85.5 19q5 0 10.5 -0.5t10.5 -1.5zM220 75q22 0 40 15t32.5 37.5t26.5 48t22 46.5l15 32q-34 -13 -67 -30.5t-59 -36
t-43 -37t-19 -33.5q-1 -14 13.5 -28t38.5 -14zM317 551q-17 9 -24.5 20.5t-6.5 23.5q1 20 15.5 38t35 32t43 22.5t39.5 8.5q29 0 42 -17t11 -35q-1 -19 -14 -36.5t-32 -31t-40 -22t-37 -8.5q-5 0 -9 0.5t-9 1.5l-12 3h-2zM545 560q-17 11 -24 24t-6 28q1 23 15.5 45t35.5 39
t44.5 27.5t41.5 10.5q3 0 8 -1.5t10.5 -4t9.5 -4t5 -1.5q21 -24 19 -52q-1 -22 -14.5 -43t-33 -37.5t-41.5 -26.5t-40 -10q-8 0 -18 3l-10 3h-2z" />
    <glyph glyph-name="odieresis" unicode="&#x161;" horiz-adv-x="522" 
d="M225 426q15 8 32 8q10 0 16 -1.5t17 -1.5q23 33 48.5 41.5t46.5 8.5q14 0 29 2t27 2q41 0 69.5 -11t46 -30t24.5 -46t5 -58q-2 -40 -16.5 -86.5t-39.5 -93t-60 -90t-77 -77.5q-41 -29 -83.5 -39t-77.5 -12q-32 0 -68.5 1.5t-66.5 14t-49 40t-16 79.5q2 45 20.5 98.5
t46 103t61 89t65.5 58.5zM360 230q-11 -3 -21.5 -5t-20.5 -2h-6q-8 -9 -27.5 -24t-40 -35t-37 -43t-17.5 -48q-1 -19 10 -20t28 -1q34 0 59.5 17t42 43t25.5 56.5t11 56.5zM327 571q-17 9 -24.5 20.5t-6.5 23.5q1 20 15.5 38t35 32t43 22.5t39.5 8.5q29 0 42 -17t11 -35
q-1 -19 -14 -36.5t-32 -31t-40 -22t-37 -8.5q-5 0 -9 0.5t-9 1.5l-12 3h-2zM555 580q-17 11 -24 24t-6 28q1 23 15.5 45t35.5 39t44.5 27.5t41.5 10.5q3 0 8 -1.5t10.5 -4t9.5 -4t5 -1.5q21 -24 19 -52q-1 -22 -14.5 -43t-33 -37.5t-41.5 -26.5t-40 -10q-8 0 -18 3l-10 3h-2
z" />
    <glyph glyph-name="udieresis" unicode="&#x178;" horiz-adv-x="616" 
d="M19 67q13 80 62.5 174t134.5 197q42 33 85 33q31 0 52 -17t19 -43q-1 -9 -4.5 -20t-10.5 -22q-44 -50 -80 -116t-65 -129q43 24 76 50t60 53.5t49.5 56t45.5 58.5l49 67l41 51q9 17 24 21.5t32 4.5h13q27 0 49 8.5t40 8.5q12 0 22.5 -4.5t19 -11t13 -15.5t3.5 -18
q0 -8 -4 -15q-32 -48 -64 -108.5t-62.5 -121t-57.5 -115t-49 -91.5v1q-26 -26 -58.5 -37.5t-62.5 -11.5q-32 0 -54 12t-20 33q0 11 8 22l-6 6q-40 -29 -84 -50t-95 -21q-25 0 -48 6t-40 18t-26.5 31t-8.5 45q2 6 2 11v-1v0zM388 577q-17 9 -24.5 20.5t-6.5 23.5
q1 20 15.5 38t35 32t43 22.5t39.5 8.5q29 0 42 -17t11 -35q-1 -19 -14 -36.5t-32 -31t-40 -22t-37 -8.5q-5 0 -9 0.5t-9 1.5l-12 3h-2zM616 586q-17 11 -24 24t-6 28q1 23 15.5 45t35.5 39t44.5 27.5t41.5 10.5q3 0 8 -1.5t10.5 -4t9.5 -4t5 -1.5q21 -24 19 -52
q-1 -22 -14.5 -43t-33 -37.5t-41.5 -26.5t-40 -10q-8 0 -18 3l-10 3h-2z" />
    <glyph glyph-name="Zcaron" unicode="&#x17d;" horiz-adv-x="571" 
d="M479 117q32 1 45 -10.5t12 -28.5q-1 -15 -10 -32t-23.5 -32.5t-33.5 -28t-40 -18.5q-49 -20 -113.5 -30t-127.5 -10q-52 0 -94 6q-18 3 -34.5 7.5t-28.5 14t-18.5 24.5t-5.5 39q1 7 2 15t3 19q4 14 10 25.5t14.5 23.5t20 25.5t28.5 32.5l13 15q49 56 97.5 101.5
t93.5 87.5q38 35 78 72t85 85v-2l5 6q5 6 12.5 16t24.5 39q-53 -11 -97 -11q-49 0 -94 12q-18 5 -29 19t-9 34q1 14 8.5 28.5t25.5 29.5q26 24 62.5 42.5t77 30.5t83.5 18.5t83 6.5h20t18 -1h-1q24 -7 36 -23l-4 -23l17 -4q2 -1 6 -1.5t7 -1.5q4 -1 7 -2q11 -5 19.5 -21
t1.5 -56q-12 -52 -45 -107t-74 -107.5t-85.5 -100t-79.5 -83.5q-51 -52 -72 -81t-7 -48zM491 126v-11h-9v11h9zM742 1087q42 22 81 19q31 2 54 -10t22 -34q0 -14 -14 -33v1q-52 -50 -98.5 -89.5t-102.5 -76.5l-10 -7q-13 -9 -27 -18t-28 -11q-22 -4 -41 -0.5t-30 20.5
q-2 11 2 21.5t17 19.5l1 8v5q-6 32 -8.5 63t-2.5 63l-8.5 34t-3.5 37t11.5 33.5t36.5 18.5q14 1 29 -4t20 -17q0 -3 -1 -7.5t-2 -9.5v1q-2 -6 -2 -12q2 -14 7 -30t10 -28l12 -29q20 21 40 39.5t37 32.5h-1z" />
    <glyph glyph-name="zcaron" unicode="&#x17e;" horiz-adv-x="528" 
d="M292 89q11 3 21.5 4t21.5 1q20 0 39 -4.5t33.5 -13t23.5 -21.5t8 -31q-1 -23 -23 -55l-33 -6q-27 -4 -65.5 -10t-81 -11.5t-84.5 -9.5t-76 -4q-35 0 -57 5.5t-25 17.5q-2 5 -2 11.5v13.5q2 31 22 64t49.5 64t63.5 60t64 53q36 29 59 50.5t18 35.5q-13 2 -17 3.5t-6 3.5
q-3 2 -8.5 4t-22.5 4q-49 7 -47 39q2 20 24.5 45.5t61.5 43.5q31 15 68 26.5t75 19t75.5 12t70.5 6.5q7 0 9 -5.5t4 -11.5q3 -12 10 -21t28 -6q15 2 21 -6.5t5 -23.5t-7.5 -34.5t-18 -38.5t-26.5 -36t-33 -28q-55 -47 -89 -76t-59 -49t-46.5 -37t-50.5 -39zM633 817
q42 23 81 20q16 1 30 -1.5t25 -8.5t17 -14.5t5 -19.5q0 -8 -4 -16t-11 -18v1q-51 -50 -98.5 -89.5t-101.5 -77.5q-4 -2 -8.5 -5t-8.5 -5q-13 -9 -25 -16.5t-25 -9.5q-22 -3 -41.5 1.5t-31.5 18.5q-3 22 20 42q0 3 2 9l2 4q-8 35 -11 66t-3 61q-5 17 -8.5 36t-2.5 36
q1 18 11 32.5t36 18.5q15 2 29.5 -3.5t20.5 -17.5q-1 -2 -1 -7t-1 -7q-2 -8 -2 -13q1 -15 7.5 -33t11.5 -31l10 -25q20 21 40 39.5t37 32.5h-1z" />
    <glyph glyph-name="Eacute" unicode="&#x192;" horiz-adv-x="534" 
d="M688 770q27 -1 39 -14t10 -32q-1 -20 -12.5 -42t-31 -42t-46 -35t-57.5 -19q-27 -7 -46.5 -12.5t-33.5 -11.5t-24.5 -14t-19.5 -19l-6 -7q-18 -21 -31 -40.5t-22 -40.5l-12 -26q19 -8 37 -8q25 0 50 4.5t42 4.5t17 -10q0 -2 -4 -10q-8 -15 -18.5 -31.5t-25 -31.5
t-32.5 -27.5t-40 -19.5h1q-20 -4 -27 -6t-13 -3.5t-17 -3t-37 -2.5q-9 -11 -23.5 -30.5t-28.5 -41.5t-24 -41.5t-11 -30.5q0 -6 12 -9.5t28 -5t31 -1.5h20q20 0 40.5 2t51.5 6q8 -4 11 -9t3 -10q-1 -5 -2.5 -10.5t-1.5 -10.5q-2 -17 19 -27q2 -2 2 -6q0 -8 -10 -20.5
t-25.5 -27t-36 -27.5t-41.5 -20h1q-48 -12 -84.5 -17.5t-76.5 -5.5h-45.5t-58.5 5.5t-50.5 19.5t-19.5 41q0 3 2 9q15 78 39 148.5t58 139t77.5 138t97.5 146.5q11 16 16.5 35.5t10 38.5t12 34t22.5 22q78 28 155.5 48.5t139.5 20.5q12 0 24.5 -1t24.5 -3h1zM654 1049
q15 7 38 7q14 0 28 -3t24.5 -8.5t16.5 -13.5t6 -19q-1 -9 -9.5 -25.5t-22.5 -31.5q-126 -105 -191 -105q-14 0 -24 5t-10 18q1 6 3.5 14.5t9.5 18.5v-1l7 7q8 24 24.5 47.5t35.5 43t36.5 32t26.5 14.5h1z" />
    <glyph glyph-name="agrave" unicode="&#x2c6;" horiz-adv-x="546" 
d="M463 483q9 -2 23 -5t26.5 -8t21 -13.5t7.5 -20.5q0 -10 10 -10q5 1 9 1.5t6 0.5q10 0 16 -6.5t9 -16t3.5 -21t0.5 -21.5q-5 -31 -19 -78t-29.5 -96.5t-31 -95t-23.5 -75.5q-3 -26 -29.5 -38.5t-56.5 -12.5q-26 0 -46.5 9t-18.5 26l3 10l-8 5q-9 -13 -27 -24.5
t-42.5 -20.5t-54 -14t-62.5 -5q-31 0 -56.5 5.5t-43.5 17.5t-27 32.5t-7 50.5q1 20 7 47.5t16.5 57t25 59t31.5 55.5q28 36 71.5 73t92 66.5t97 48.5t85.5 19q5 0 10.5 -0.5t10.5 -1.5zM220 75q22 0 40 15t32.5 37.5t26.5 48t22 46.5l15 32q-34 -13 -67 -30.5t-59 -36
t-43 -37t-19 -33.5q-1 -14 13.5 -28t38.5 -14zM401 669q1 22 11 38t26 26t35 15t38 5q35 0 63 -11.5t36 -40.5q-10 -19 -13 -39t-7 -40q-4 -23 -8 -40t-10.5 -28t-17 -16.5t-26.5 -5.5q-11 0 -21 3t-17 7l-3 12q-5 2 -6.5 3.5t-1.5 3.5l-9 18q-9 13 -20 25.5t-20.5 23
t-17 18.5t-9.5 13v-1l-3 10z" />
    <glyph glyph-name="ograve" unicode="&#x2dc;" horiz-adv-x="522" 
d="M225 426q15 8 32 8q10 0 16 -1.5t17 -1.5q23 33 48.5 41.5t46.5 8.5q14 0 29 2t27 2q41 0 69.5 -11t46 -30t24.5 -46t5 -58q-2 -40 -16.5 -86.5t-39.5 -93t-60 -90t-77 -77.5q-41 -29 -83.5 -39t-77.5 -12q-32 0 -68.5 1.5t-66.5 14t-49 40t-16 79.5q2 45 20.5 98.5
t46 103t61 89t65.5 58.5zM360 230q-11 -3 -21.5 -5t-20.5 -2h-6q-8 -9 -27.5 -24t-40 -35t-37 -43t-17.5 -48q-1 -19 10 -20t28 -1q34 0 59.5 17t42 43t25.5 56.5t11 56.5zM404 702q1 22 11 38t26 26t35 15t38 5q35 0 63 -11.5t36 -40.5q-10 -19 -13 -39t-7 -40
q-4 -23 -8 -40t-10.5 -28t-17 -16.5t-26.5 -5.5q-11 0 -21 3t-17 7l-3 12q-5 2 -6.5 3.5t-1.5 3.5l-9 18q-9 13 -20 25.5t-20.5 23t-17 18.5t-9.5 13v-1l-3 10z" />
    <glyph glyph-name="ntilde" unicode="&#x2013;" horiz-adv-x="652" 
d="M190 388q23 28 33 37.5t16 9.5q3 0 10 -5q22 8 36 11t24 3q22 0 27 -15t4 -29q0 -11 -2 -19q21 19 54.5 37t72.5 32t79.5 23t73.5 9q60 0 84.5 -27.5t21.5 -75.5q-2 -42 -21.5 -93.5t-49.5 -106.5v1q-11 -17 -19.5 -31.5t-15.5 -25.5q-11 -18 -30.5 -45t-45.5 -52.5
t-59.5 -43.5t-72.5 -18q-21 0 -35.5 7t-13.5 21q0 3 2 7t4 9l58 107q32 59 51 95.5t21 57.5q0 20 -16 20q-20 0 -48.5 -26t-61.5 -66t-69 -89t-71 -94q-12 -16 -19.5 -20t-12.5 -5.5t-8.5 -4t-8.5 -14.5q-3 -9 -13.5 -16t-25.5 -12t-32.5 -7.5t-35.5 -2.5q-8 0 -23.5 1.5
t-31 6t-26.5 13t-10 21.5q1 20 15 56.5t35.5 80.5t46.5 90.5t47.5 86t39.5 67t22 34.5zM516 562q-7 1 -13.5 7t-14 13t-16 13t-19.5 6q-4 0 -12 -2l-32 -22q-18 -14 -34.5 -23.5t-27.5 -9.5q-4 0 -6 1l1 -1q-13 8 -21 16.5t-7 19.5q1 25 29.5 56t69.5 54l3 1.5t3 0.5l28 18
h-1q19 11 37.5 17.5t32.5 6.5q16 0 27.5 -7.5t10.5 -25.5q0 -3 -1 -5t-2 -5q0 -3 2 -7l2 -12q2 -8 4.5 -15t9.5 -18q28 5 49 13l9 6h-1q21 17 36.5 25.5t29.5 8.5q9 0 9 -15q-2 -19 -19.5 -35.5t-38.5 -30.5q-37 -30 -57 -42t-40 -12q-10 0 -30 5z" />
    <glyph glyph-name="oacute" unicode="&#x2014;" horiz-adv-x="522" 
d="M225 426q15 8 32 8q10 0 16 -1.5t17 -1.5q23 33 48.5 41.5t46.5 8.5q14 0 29 2t27 2q41 0 69.5 -11t46 -30t24.5 -46t5 -58q-2 -40 -16.5 -86.5t-39.5 -93t-60 -90t-77 -77.5q-41 -29 -83.5 -39t-77.5 -12q-32 0 -68.5 1.5t-66.5 14t-49 40t-16 79.5q2 45 20.5 98.5
t46 103t61 89t65.5 58.5zM360 230q-11 -3 -21.5 -5t-20.5 -2h-6q-8 -9 -27.5 -24t-40 -35t-37 -43t-17.5 -48q-1 -19 10 -20t28 -1q34 0 59.5 17t42 43t25.5 56.5t11 56.5zM538 762q15 7 38 7q14 0 28 -3t24.5 -8.5t16.5 -13.5t6 -19q-1 -9 -9.5 -25.5t-22.5 -31.5
q-126 -105 -191 -105q-14 0 -24 5t-10 18q1 6 3.5 14.5t9.5 18.5v-1l7 7q8 24 24.5 47.5t35.5 43t36.5 32t26.5 14.5h1z" />
    <glyph glyph-name="edieresis" unicode="&#x2018;" horiz-adv-x="468" 
d="M364 144q-6 -3 -25.5 -7.5t-45 -10t-52.5 -10t-47 -5.5q1 -19 14.5 -27.5t23.5 -8.5q14 0 30.5 5t33.5 11t33.5 11t31.5 5q10 0 20.5 -4.5t18.5 -11.5q5 -20 10.5 -23t11.5 -3q-1 0 1.5 -0.5t5.5 -3.5t5.5 -9.5t1.5 -18.5q-1 -21 -26 -37t-62.5 -27.5t-82 -17.5t-84.5 -6
q-49 0 -82 9t-52.5 26t-27 40.5t-5.5 53.5q2 31 12 64t26 65.5t36 63t43 55.5q30 34 62.5 64t70 53t81 36.5t96.5 13.5q21 0 40.5 -4.5t34.5 -15.5t23 -29.5t7 -47.5q-2 -27 -13 -66v1q-16 -41 -31 -68.5t-34 -47t-44 -35t-60 -31.5v-1zM357 305q1 5 -6 7t-12 2
q-18 0 -34.5 -10t-30.5 -26t-26 -36t-21 -41h4q20 0 42 12t40.5 28.5t31 34.5t12.5 29zM305 550q-17 9 -24.5 20.5t-6.5 23.5q1 20 15.5 38t35 32t43 22.5t39.5 8.5q29 0 42 -17t11 -35q-1 -19 -14 -36.5t-32 -31t-40 -22t-37 -8.5q-5 0 -9 0.5t-9 1.5l-12 3h-2zM533 559
q-17 11 -24 24t-6 28q1 23 15.5 45t35.5 39t44.5 27.5t41.5 10.5q3 0 8 -1.5t10.5 -4t9.5 -4t5 -1.5q21 -24 19 -52q-1 -22 -14.5 -43t-33 -37.5t-41.5 -26.5t-40 -10q-8 0 -18 3l-10 3h-2z" />
    <glyph glyph-name="iacute" unicode="&#x2019;" horiz-adv-x="301" 
d="M228 434q15 24 47 36t62 12t52 -11t20 -34q0 -6 -1 -10v1l-22 -41q-21 -38 -44 -83.5t-45 -91t-40.5 -88t-29.5 -75.5q-8 -37 -16.5 -56t-17 -27.5t-18 -9.5t-18.5 -2t-18.5 -5t-18.5 -18q-4 -10 -14.5 -15t-24.5 -5q-15 0 -31 5t-29.5 15t-21.5 23.5t-7 30.5q0 23 21 50
q6 14 18.5 43t30 65.5t38.5 77.5t43 80.5t43.5 74t41.5 57.5v1zM457 745q15 7 38 7q14 0 28 -3t24.5 -8.5t16.5 -13.5t6 -19q-1 -9 -9.5 -25.5t-22.5 -31.5q-126 -105 -191 -105q-14 0 -24 5t-10 18q1 6 3.5 14.5t9.5 18.5v-1l7 7q8 24 24.5 47.5t35.5 43t36.5 32t26.5 14.5
h1z" />
    <glyph glyph-name="Ccedilla" unicode="&#x201a;" horiz-adv-x="583" 
d="M-2 -364q-14 2 -26.5 14.5t-10.5 40.5q1 8 5 18.5t4 13.5q7 13 14.5 25.5t18 22t25.5 15t37 5.5q9 0 14.5 -4t13.5 -11h-1l15 -14q10 2 15 2h3q66 3 100 15t35 26q1 9 -12 18h-21q-18 0 -37 1.5t-34 6t-24 14t-8 24.5q1 17 10 35.5t35 44.5q-28 8 -51.5 20.5t-40.5 32
t-25.5 48t-6.5 69.5q3 70 24 138t54 130.5t74.5 117.5t86 98.5t89.5 74.5t84 45q42 20 85 30.5t84 10.5q9 0 17 -0.5t17 -1.5h-2q67 -9 97.5 -43.5t28.5 -87.5q-2 -30 -15.5 -67t-34.5 -75q-12 -20 -30 -34.5t-38 -24t-40.5 -14.5t-37.5 -5q-27 0 -38.5 11t-10.5 30
q1 11 7 24.5t7 29.5q1 17 -4.5 23t-15.5 6q-7 0 -15.5 -2t-17.5 -5l-19 -8h2q-11 -6 -22 -12.5t-23.5 -16t-28.5 -24.5t-38 -39q-30 -33 -52 -66t-36 -63t-20.5 -54t-7.5 -39q-1 -20 5 -34.5t16 -23.5t22 -13.5t23 -4.5q21 0 35 6t27 13.5t26 13.5t31 6q5 0 14.5 -1t19 -4
t16.5 -9t7 -16q-1 -11 -6.5 -24.5t-6.5 -24.5q0 -6 3.5 -10t8 -6.5t8.5 -5.5t4 -7q-1 -18 -28 -38.5t-67 -38t-86.5 -30t-86.5 -13.5l-9 -15v1l-12 -18q21 -2 34.5 -8t34.5 -10l12 -4q29 -10 47 -24t17 -47q-2 -26 -14.5 -48t-32 -40.5t-44 -34.5t-50.5 -29
q-16 -8 -36.5 -14.5t-42.5 -11t-44.5 -7t-42.5 -2.5q-37 0 -58 7h-1z" />
    <glyph glyph-name="igrave" unicode="&#x201c;" horiz-adv-x="301" 
d="M229 434q7 12 19 21t27 15t31.5 9t31.5 3q29 0 51 -11t20 -34q0 -6 -1 -10v1l-21 -41q-20 -38 -43.5 -83.5t-46 -91t-41.5 -88t-29 -75.5q-8 -37 -16 -56t-17 -27.5t-18.5 -9.5t-18.5 -2t-18.5 -5t-18.5 -18q-8 -20 -39 -20q-15 0 -31 5t-29 15t-21 23.5t-7 30.5
q0 23 20 50q6 14 18.5 43t30 65.5t38.5 77.5t43 80.5t44 74t42 57.5v1zM328 700q1 22 11 38t26 26t35 15t38 5q35 0 63 -11.5t36 -40.5q-10 -19 -13 -39t-7 -40q-4 -23 -8 -40t-10.5 -28t-17 -16.5t-26.5 -5.5q-11 0 -21 3t-17 7l-3 12q-5 2 -6.5 3.5t-1.5 3.5l-9 18
q-9 13 -20 25.5t-20.5 23t-17 18.5t-9.5 13v-1l-3 10z" />
    <glyph glyph-name="icircumflex" unicode="&#x201d;" horiz-adv-x="301" 
d="M228 434q15 24 46.5 36t62.5 12q30 0 52 -11t20 -34q0 -6 -1 -10v1l-22 -41q-21 -38 -44 -83.5t-45 -91t-40.5 -88t-29.5 -75.5q-8 -37 -16.5 -56t-17 -27.5t-18 -9.5t-18.5 -2t-18.5 -5t-18.5 -18q-4 -10 -14.5 -15t-24.5 -5q-15 0 -31 5t-29.5 15t-21.5 23.5t-7 30.5
q0 23 21 50q6 14 18.5 43t30 65.5t38.5 77.5t43 80.5t43.5 74t41.5 57.5v1zM353 556q-37 -26 -73 -38t-57 -12q-13 0 -21.5 4.5t-7.5 14.5q0 15 22 43q59 58 117 110t129 107q3 3 5 4t6 4h-1q32 26 61 40.5t51 14.5q12 0 21 -9q0 -3 -5 -12.5t-11 -19.5q-7 -11 -16 -25
q1 -8 0.5 -18.5t-1.5 -20.5q-1 -19 -3.5 -37.5t-5.5 -37.5q2 -9 2.5 -20t-0.5 -22t-6 -26.5t-15.5 -30.5t-28.5 -25.5t-44 -10.5q-14 0 -18 8q2 7 4.5 13t6.5 14q0 17 -2.5 30t-6.5 24l-9 23l-46 -46t-47 -43z" />
    <glyph glyph-name="Ntilde" unicode="&#x201e;" horiz-adv-x="640" 
d="M206 502q15 31 37.5 67.5t49.5 68t56 52t57 20.5q23 0 42 -15q7 -34 12 -61t7.5 -51.5t3 -47t-0.5 -47.5q-1 -15 -2 -33.5t-3 -38.5l8 -2q14 24 31.5 50t34.5 52.5t33 52.5t27 50q17 31 42 54.5t52.5 39t55 23.5t49.5 8q21 0 34 -7t12 -19q0 -5 -2.5 -9.5t-5.5 -9.5
q-8 -8 -8.5 -21t-1.5 -30t-7 -38.5t-25 -46.5q-26 -35 -57 -88.5t-63.5 -113.5t-64.5 -120.5t-60 -110.5t-50.5 -84t-35.5 -39q-37 -19 -57.5 -26.5t-42.5 -7.5q-8 -1 -17 0t-20 3q-14 1 -20.5 20t-8.5 47.5t-1 63t2 66.5t0.5 58.5t-4.5 39.5q-34 -68 -55.5 -108t-36 -64
t-24.5 -36t-19 -22l-17 -19q-9 -16 -23.5 -28t-31 -20t-34 -12t-32.5 -4q-18 0 -30 6.5t-11 19.5q0 9 7 20q12 43 37.5 108.5t57 136t64 138t59.5 115.5h1zM647 785q-7 1 -13.5 7t-14 13t-16 13t-19.5 6q-4 0 -12 -2l-32 -22q-18 -14 -34.5 -23.5t-27.5 -9.5q-4 0 -6 1l1 -1
q-13 8 -21 16.5t-7 19.5q1 25 29.5 56t69.5 54l3 1.5t3 0.5l28 18h-1q19 11 37.5 17.5t32.5 6.5q16 0 27.5 -7.5t10.5 -25.5q0 -3 -1 -5t-2 -5q0 -3 2 -7l2 -12q2 -8 4.5 -15t9.5 -18q28 5 49 13l9 6h-1q21 17 36.5 25.5t29.5 8.5q9 0 9 -15q-2 -19 -19.5 -35.5t-38.5 -30.5
q-37 -30 -57 -42t-40 -12q-10 0 -30 5z" />
    <glyph glyph-name="Udieresis" unicode="&#x2020;" 
d="M425 767q25 0 41.5 -19.5t15.5 -45.5q-1 -16 -14 -43.5t-33.5 -63t-44 -76.5t-45 -84t-38.5 -85t-22 -80q-2 -23 13 -23q11 0 34 21.5t52 56.5t62.5 79t66 90t62 89t51.5 76q11 18 22.5 37t25 34t29.5 25t34 10q14 0 30 -8q17 17 35 24.5t35 7.5q22 0 36 -12t12 -37v-8
q-3 -20 -35.5 -83t-80.5 -156.5t-103.5 -210.5t-104.5 -246q-4 -19 -17.5 -34.5t-32 -26t-39 -16.5t-39.5 -6q-32 0 -43.5 13t-9.5 43q0 5 0.5 9t1.5 9h-10q-3 -20 -20.5 -34.5t-41 -23.5t-46.5 -13t-36 -4q-39 0 -71.5 11t-55 32t-34 52t-9.5 71q3 63 27 134t58 141.5
t73 137t72 120.5q10 19 24 39.5t31 37.5t37.5 28t44.5 11zM511 828q-17 9 -24.5 20.5t-6.5 23.5q1 20 15.5 38t35 32t43 22.5t39.5 8.5q29 0 42 -17t11 -35q-1 -19 -14 -36.5t-32 -31t-40 -22t-37 -8.5q-5 0 -9 0.5t-9 1.5l-12 3h-2zM739 837q-17 11 -24 24t-6 28
q1 23 15.5 45t35.5 39t44.5 27.5t41.5 10.5q3 0 8 -1.5t10.5 -4t9.5 -4t5 -1.5q21 -24 19 -52q-1 -22 -14.5 -43t-33 -37.5t-41.5 -26.5t-40 -10q-8 0 -18 3l-10 3h-2z" />
    <glyph glyph-name="aacute" unicode="&#x2021;" horiz-adv-x="546" 
d="M463 483q9 -2 23 -5t26.5 -8t21 -13.5t7.5 -20.5q0 -10 10 -10q5 1 9 1.5t6 0.5q10 0 16 -6.5t9 -16t3.5 -21t0.5 -21.5q-5 -31 -19 -78t-29.5 -96.5t-31 -95t-23.5 -75.5q-3 -26 -29.5 -38.5t-56.5 -12.5q-26 0 -46.5 9t-18.5 26l3 10l-8 5q-9 -13 -27 -24.5
t-42.5 -20.5t-54 -14t-62.5 -5q-31 0 -56.5 5.5t-43.5 17.5t-27 32.5t-7 50.5q1 20 7 47.5t16.5 57t25 59t31.5 55.5q28 36 71.5 73t92 66.5t97 48.5t85.5 19q5 0 10.5 -0.5t10.5 -1.5zM220 75q22 0 40 15t32.5 37.5t26.5 48t22 46.5l15 32q-34 -13 -67 -30.5t-59 -36
t-43 -37t-19 -33.5q-1 -14 13.5 -28t38.5 -14zM567 744q15 7 38 7q14 0 28 -3t24.5 -8.5t16.5 -13.5t6 -19q-1 -9 -9.5 -25.5t-22.5 -31.5q-126 -105 -191 -105q-14 0 -24 5t-10 18q1 6 3.5 14.5t9.5 18.5v-1l7 7q8 24 24.5 47.5t35.5 43t36.5 32t26.5 14.5h1z" />
    <glyph glyph-name="idieresis" unicode="&#x2022;" horiz-adv-x="301" 
d="M228 434q7 12 19 21t27 15t31.5 9t31.5 3q29 0 51 -10.5t20 -33.5q0 -7 -1 -11v1l-21 -41q-20 -38 -43.5 -83.5t-45.5 -91t-41 -88t-30 -75.5q-7 -36 -15.5 -55.5t-17 -27.5t-18 -9.5t-18.5 -2.5t-18.5 -5t-18.5 -18q-5 -10 -15 -15t-24 -5q-15 0 -31 5t-29.5 15
t-21.5 23.5t-7 30.5q0 23 20 50q6 14 19 43t30.5 65.5t38.5 77.5t43 80.5t43.5 74t41.5 57.5v1zM243 570q-17 9 -24.5 20.5t-6.5 23.5q1 20 15.5 38t35 32t43 22.5t39.5 8.5q29 0 42 -17t11 -35q-1 -19 -14 -36.5t-32 -31t-40 -22t-37 -8.5q-5 0 -9 0.5t-9 1.5l-12 3h-2z
M471 579q-17 11 -24 24t-6 28q1 23 15.5 45t35.5 39t44.5 27.5t41.5 10.5q3 0 8 -1.5t10.5 -4t9.5 -4t5 -1.5q21 -24 19 -52q-1 -22 -14.5 -43t-33 -37.5t-41.5 -26.5t-40 -10q-8 0 -18 3l-10 3h-2z" />
    <glyph glyph-name="Odieresis" unicode="&#x2026;" 
d="M385 705q35 25 74 38t76 13q14 0 28 -2.5t28 -7.5q20 17 39.5 25t38.5 8q31 0 57 -16.5t43 -44.5q0 -5 2.5 -13t4.5 -17l4 -23q8 -33 6 -72q-3 -55 -22 -116.5t-47.5 -123t-63.5 -118t-69 -100.5q-31 -39 -67.5 -77.5t-79 -68.5t-90.5 -48.5t-100 -18.5q-58 0 -97.5 18.5
t-63 47.5t-33 66t-7.5 73q2 44 16 92t35 96t46 94t49 85v-1q16 24 39 53.5t48.5 59t53 55.5t52.5 44zM315 71q42 42 81.5 101.5t70.5 126.5t52 136t27 130q-38 -39 -85 -90t-92 -108.5t-81.5 -118.5t-54.5 -119l-3 -19q1 -5 2.5 -15.5t5.5 -22t11 -22t18 -15.5l18 13
q7 5 15.5 10.5t14.5 12.5zM520 819q-17 9 -24.5 20.5t-6.5 23.5q1 20 15.5 38t35 32t43 22.5t39.5 8.5q29 0 42 -17t11 -35q-1 -19 -14 -36.5t-32 -31t-40 -22t-37 -8.5q-5 0 -9 0.5t-9 1.5l-12 3h-2zM748 828q-17 11 -24 24t-6 28q1 23 15.5 45t35.5 39t44.5 27.5
t41.5 10.5q3 0 8 -1.5t10.5 -4t9.5 -4t5 -1.5q21 -24 19 -52q-1 -22 -14.5 -43t-33 -37.5t-41.5 -26.5t-40 -10q-8 0 -18 3l-10 3h-2z" />
    <glyph glyph-name="acircumflex" unicode="&#x2030;" horiz-adv-x="571" 
d="M463 483q9 -2 23 -5t26.5 -8t21 -13.5t7.5 -20.5q0 -10 10 -10q5 1 9 1.5t6 0.5q10 0 16 -6.5t9 -16t3.5 -21t0.5 -21.5q-5 -31 -19 -78t-29.5 -96.5t-31 -95t-23.5 -75.5q-3 -26 -29.5 -38.5t-56.5 -12.5q-26 0 -46.5 9t-18.5 26l3 10l-8 5q-9 -13 -27 -24.5
t-42.5 -20.5t-54 -14t-62.5 -5q-31 0 -56.5 5.5t-43.5 17.5t-27 32.5t-7 50.5q1 20 7 47.5t16.5 57t25 59t31.5 55.5q28 36 71.5 73t92 66.5t97 48.5t85.5 19q5 0 10.5 -0.5t10.5 -1.5zM220 75q22 0 40 15t32.5 37.5t26.5 48t22 46.5l15 32q-34 -13 -67 -30.5t-59 -36
t-43 -37t-19 -33.5q-1 -14 13.5 -28t38.5 -14zM461 563q-37 -26 -73 -38t-57 -12q-13 0 -21.5 4.5t-7.5 14.5q0 15 22 43q59 58 117 110t129 107q3 3 5 4t6 4h-1q32 26 61 40.5t51 14.5q12 0 21 -9q0 -3 -5 -12.5t-11 -19.5q-7 -11 -16 -25q1 -8 0.5 -18.5t-1.5 -20.5
q-1 -19 -3.5 -37.5t-5.5 -37.5q2 -9 2.5 -20t-0.5 -22t-6 -26.5t-15.5 -30.5t-28.5 -25.5t-44 -10.5q-14 0 -18 8q2 7 4.5 13t6.5 14q0 17 -2.5 30t-6.5 24l-9 23l-46 -46t-47 -43z" />
    <glyph glyph-name="atilde" unicode="&#x2039;" horiz-adv-x="552" 
d="M463 483q9 -2 23 -5t26.5 -8t21 -13.5t7.5 -20.5q0 -10 10 -10q5 1 9 1.5t6 0.5q10 0 16 -6.5t9 -16t3.5 -21t0.5 -21.5q-5 -31 -19 -78t-29.5 -96.5t-31 -95t-23.5 -75.5q-3 -26 -29.5 -38.5t-56.5 -12.5q-26 0 -46.5 9t-18.5 26l3 10l-8 5q-9 -13 -27 -24.5
t-42.5 -20.5t-54 -14t-62.5 -5q-31 0 -56.5 5.5t-43.5 17.5t-27 32.5t-7 50.5q1 20 7 47.5t16.5 57t25 59t31.5 55.5q28 36 71.5 73t92 66.5t97 48.5t85.5 19q5 0 10.5 -0.5t10.5 -1.5zM220 75q22 0 40 15t32.5 37.5t26.5 48t22 46.5l15 32q-34 -13 -67 -30.5t-59 -36
t-43 -37t-19 -33.5q-1 -14 13.5 -28t38.5 -14zM534 601q-7 1 -13.5 7t-14 13t-16 13t-19.5 6q-4 0 -12 -2l-32 -22q-18 -14 -34.5 -23.5t-27.5 -9.5q-4 0 -6 1l1 -1q-13 8 -21 16.5t-7 19.5q1 25 29.5 56t69.5 54l3 1.5t3 0.5l28 18h-1q19 11 37.5 17.5t32.5 6.5
q16 0 27.5 -7.5t10.5 -25.5q0 -3 -1 -5t-2 -5q0 -3 2 -7l2 -12q2 -8 4.5 -15t9.5 -18q28 5 49 13l9 6h-1q21 17 36.5 25.5t29.5 8.5q9 0 9 -15q-2 -19 -19.5 -35.5t-38.5 -30.5q-37 -30 -57 -42t-40 -12q-10 0 -30 5z" />
    <glyph glyph-name="otilde" unicode="&#x203a;" horiz-adv-x="522" 
d="M225 426q15 8 32 8q10 0 16 -1.5t17 -1.5q23 33 48.5 41.5t46.5 8.5q14 0 29 2t27 2q41 0 69.5 -11t46 -30t24.5 -46t5 -58q-2 -40 -16.5 -86.5t-39.5 -93t-60 -90t-77 -77.5q-41 -29 -83.5 -39t-77.5 -12q-32 0 -68.5 1.5t-66.5 14t-49 40t-16 79.5q2 45 20.5 98.5
t46 103t61 89t65.5 58.5zM360 230q-11 -3 -21.5 -5t-20.5 -2h-6q-8 -9 -27.5 -24t-40 -35t-37 -43t-17.5 -48q-1 -19 10 -20t28 -1q34 0 59.5 17t42 43t25.5 56.5t11 56.5zM505 580q-7 1 -13.5 7t-14 13t-16 13t-19.5 6q-4 0 -12 -2l-32 -22q-18 -14 -34.5 -23.5t-27.5 -9.5
q-4 0 -6 1l1 -1q-13 8 -21 16.5t-7 19.5q1 25 29.5 56t69.5 54l3 1.5t3 0.5l28 18h-1q19 11 37.5 17.5t32.5 6.5q16 0 27.5 -7.5t10.5 -25.5q0 -3 -1 -5t-2 -5q0 -3 2 -7l2 -12q2 -8 4.5 -15t9.5 -18q28 5 49 13l9 6h-1q21 17 36.5 25.5t29.5 8.5q9 0 9 -15
q-2 -19 -19.5 -35.5t-38.5 -30.5q-37 -30 -57 -42t-40 -12q-10 0 -30 5z" />
    <glyph glyph-name="Adieresis" unicode="&#x20ac;" horiz-adv-x="574" 
d="M545 751q19 8 37.5 14.5t33.5 6.5q16 0 31.5 -3.5t27.5 -10.5t19 -17t6 -22q0 -15 -19 -38q30 -16 36 -51q-29 -76 -55.5 -151t-52.5 -149.5t-53 -149.5t-57 -151l-10 -22q-4 -11 -7 -20t-8 -20q-16 -14 -38 -22t-43 -8q-13 0 -26.5 2.5t-25 8t-18.5 13.5t-7 19
q1 14 12.5 39.5t17.5 54.5l14 47q-17 -4 -32.5 -11t-28 -14.5t-22 -13.5t-14.5 -9q-14 -8 -24.5 -10.5t-19 -3t-16 -2t-14.5 -6.5q-38 -53 -78 -88t-86 -35q-10 0 -20.5 3.5t-18.5 10.5t-13.5 18t-4.5 27q1 19 10.5 46t21.5 52.5t23 46t16 28.5q48 79 102 158t114 153.5
t126 143t140 127.5l-1 -1zM294 209l94 3q14 44 28.5 89.5t30.5 89.5l29 83l-8 4l-53 -62q-8 -16 -18.5 -34.5t-19.5 -34.5zM503 807q-17 9 -24.5 20.5t-6.5 23.5q1 20 15.5 38t35 32t43 22.5t39.5 8.5q29 0 42 -17t11 -35q-1 -19 -14 -36.5t-32 -31t-40 -22t-37 -8.5
q-5 0 -9 0.5t-9 1.5l-12 3h-2zM731 816q-17 11 -24 24t-6 28q1 23 15.5 45t35.5 39t44.5 27.5t41.5 10.5q3 0 8 -1.5t10.5 -4t9.5 -4t5 -1.5q21 -24 19 -52q-1 -22 -14.5 -43t-33 -37.5t-41.5 -26.5t-40 -10q-8 0 -18 3l-10 3h-2z" />
    <glyph glyph-name="ocircumflex" unicode="&#x2122;" horiz-adv-x="522" 
d="M225 426q15 8 32 8q10 0 16 -1.5t17 -1.5q23 33 48.5 41.5t46.5 8.5q14 0 29 2t27 2q41 0 69.5 -11t46 -30t24.5 -46t5 -58q-2 -40 -16.5 -86.5t-39.5 -93t-60 -90t-77 -77.5q-41 -29 -83.5 -39t-77.5 -12q-32 0 -68.5 1.5t-66.5 14t-49 40t-16 79.5q2 45 20.5 98.5
t46 103t61 89t65.5 58.5zM360 230q-11 -3 -21.5 -5t-20.5 -2h-6q-8 -9 -27.5 -24t-40 -35t-37 -43t-17.5 -48q-1 -19 10 -20t28 -1q34 0 59.5 17t42 43t25.5 56.5t11 56.5zM433 566q-37 -26 -73 -38t-57 -12q-13 0 -21.5 4.5t-7.5 14.5q0 15 22 43q59 58 117 110t129 107
q3 3 5 4t6 4h-1q32 26 61 40.5t51 14.5q12 0 21 -9q0 -3 -5 -12.5t-11 -19.5q-7 -11 -16 -25q1 -8 0.5 -18.5t-1.5 -20.5q-1 -19 -3.5 -37.5t-5.5 -37.5q2 -9 2.5 -20t-0.5 -22t-6 -26.5t-15.5 -30.5t-28.5 -25.5t-44 -10.5q-14 0 -18 8q2 7 4.5 13t6.5 14q0 17 -2.5 30
t-6.5 24l-9 23l-46 -46t-47 -43z" />
    <glyph glyph-name="minus" unicode="&#x2212;" horiz-adv-x="598" 
d="M191 252q-38 0 -60.5 11t-21.5 28q1 11 17 24.5t47 24.5l20 2q12 26 50 49.5t104 31.5h-1q9 1 34 1.5t57 0.5h31t32 -1q8 2 16.5 3.5t22.5 1.5q49 0 84 -15.5t34 -45.5q-1 -14 -11.5 -31t-35.5 -37l1 1q-4 -2 -9.5 -4t-20.5 -10v1q-54 -24 -110 -32t-113 -8q-42 0 -82 2
t-80 2q-2 -2 -5 -2h-5z" />
    <glyph glyph-name="Scaron" horiz-adv-x="586" 
d="M138 -59q-72 0 -114 32.5t-40 79.5q1 16 7.5 32t17.5 29t26.5 21t33.5 8q29 0 63.5 -9t64.5 -9q22 0 37 6q52 17 75 34.5t24 33.5q1 17 -11.5 32t-29.5 30q-20 19 -38.5 38.5t-32 41t-21.5 46t-6 53.5q0 20 8 49q14 46 35.5 83.5t47 66.5t54 49.5t56.5 34.5
q46 22 96.5 38.5t112.5 16.5q17 0 36 -2t39 -5q23 -4 38 -15.5t30 -24.5l9 -8q15 -19 13 -37q0 -12 -6.5 -23.5t-17 -20t-23.5 -13.5t-26 -6q-1 -23 -22.5 -43.5t-78.5 -27.5q-13 1 -24 1.5t-22 0.5q-56 0 -82 -19t-29 -76q-1 -19 17.5 -37.5t41 -42t40.5 -54.5t16 -76
q-1 -22 -12.5 -53.5t-34 -66t-55 -68t-77 -60.5t-100 -43.5t-122.5 -16.5h-14zM724 1068q37 19 70 19h10h9q27 0 47 -11.5t19 -31.5q-1 -16 -14 -34v1q-27 -26 -51 -48t-47.5 -41.5t-48 -38.5t-53.5 -38l-12 -9q-20 -14 -39 -21.5t-41 -7.5q-15 0 -26.5 5t-19.5 19l1 -1
q-2 6 -2 9q2 17 23 33q-3 3 -5.5 22t-3.5 42t-2 44t-1 29q-4 16 -8 35t-2 36q1 19 10 34t35 19q15 0 29.5 -4.5t19.5 -17.5q0 -7 -1.5 -15.5t-1.5 -11.5q1 -14 7 -32t12 -31l10 -25q20 20 40 39t38 33h-1z" />
    <glyph glyph-name="scaron" horiz-adv-x="534" 
d="M355 -25q-47 -33 -105.5 -50t-115.5 -17q-33 0 -63.5 6.5t-53.5 19.5t-36 31.5t-12 41.5q1 20 12 33t28 13q3 0 6.5 -0.5t6.5 -0.5q13 0 20.5 8t13 17.5t11 17.5t15.5 8h34q30 0 58 1.5t50.5 6t37.5 11.5t20 19q-11 13 -24 20t-27 14q-17 8 -32.5 17t-27 21.5t-18 30
t-5.5 41.5q2 31 15 53q4 34 37 64.5t80 53t102 36t104 13.5q27 0 42 -6.5t22.5 -16t9.5 -21.5t1 -23q-1 -24 -23.5 -46.5t-64.5 -33.5q-41 -7 -58 -11.5t-23 -7.5t-8.5 -5.5t-14.5 -6.5q21 -17 40.5 -36t34.5 -40t23 -45.5t7 -51.5q-2 -21 -8 -43.5t-20 -48.5
q-1 -10 -8.5 -20.5t-18.5 -21t-24 -19.5t-24 -16l-16 -10v0zM649 792q37 19 70 19h10h9q27 0 47 -11.5t19 -31.5q-1 -16 -14 -34v1q-27 -26 -51 -48t-47.5 -41.5t-48 -38.5t-53.5 -38l-12 -9q-20 -14 -39 -21.5t-41 -7.5q-15 0 -26.5 5t-19.5 19l1 -1q-2 6 -2 9q2 17 23 33
q-3 3 -5.5 22t-3.5 42t-2 44t-1 29q-4 16 -8 35t-2 36q1 19 10 34t35 19q15 0 29.5 -4.5t19.5 -17.5q0 -7 -1.5 -15.5t-1.5 -11.5q1 -14 7 -32t12 -31l10 -25q20 20 40 39t38 33h-1z" />
    <glyph glyph-name="Eth" horiz-adv-x="677" 
d="M27 240q-35 0 -57 10.5t-21 27.5q1 12 18.5 25.5t46.5 24.5l19 2q6 13 20.5 27.5t38 26.5t55 20t70.5 8l13 24h-1q25 42 48 83.5t42 81.5q8 15 13.5 31t11.5 32t14 31.5t22 29.5q12 11 28 19.5t33 14t34 8t31 2.5q36 0 68 -12.5t60.5 -32.5t52.5 -44t43 -47
q25 -30 35 -67.5t8 -75.5t-14.5 -82t-34.5 -92q-27 -59 -74 -119.5t-105 -109.5t-122 -80t-125 -31q-7 0 -17 1t-21 3q-20 -31 -45.5 -44t-51.5 -13q-20 0 -38 8.5t-31.5 22.5t-21 33.5t-6.5 40.5q8 54 26 108.5t36 101.5q-22 1 -47 1.5t-47 0.5l-8 -2zM299 93
q51 25 101.5 60t91.5 75.5t67 85.5t29 91q2 44 -21 76t-71 67q-17 -28 -27.5 -49.5t-18.5 -40.5l-20 -45q30 -8 48.5 -23t16.5 -35q-1 -14 -11 -30.5t-35 -36.5l1 1q-23 -8 -49.5 -20t-46.5 -16l-13 -33q-2 -17 -11.5 -35.5t-16.5 -42.5z" />
    <glyph glyph-name="multiply" horiz-adv-x="637" 
d="M624 596q31 18 46.5 25.5t30.5 7.5q5 0 19 -1.5t28 -6.5t25 -15t10 -27q-1 -7 -12 -19.5t-29.5 -29t-42 -34.5t-49 -36t-50.5 -34.5t-46 -27.5q6 -24 5 -55t-2.5 -60.5t-1 -53.5t9.5 -35q-2 -10 -15 -16.5t-31.5 -10.5t-40.5 -6t-41 -2q-20 0 -31.5 3t-19 11.5t-13 24
t-12.5 40.5v-1q-5 17 -6 20l-3 9l-22 -15q-12 -6 -22.5 -14t-21.5 -16l-22 -16q-11 -8 -22.5 -19t-29.5 -20.5t-43.5 -17t-63.5 -7.5q-20 0 -35.5 4t-16.5 14q-31 7 -30 23q0 12 14 37l-1 -1q18 17 46 43.5t61 55t69 54.5t70 43q-9 12 -11 25.5t-3.5 27.5t-3.5 27t-11 24
q-44 10 -43 32v-1q2 5 5.5 13t11.5 16l18 12h-1q34 17 66 26.5t63 9.5q16 0 40 -6t46.5 -17.5t39.5 -27.5t20 -36q21 14 48 28.5t43 22.5l13 6h1z" />
    <glyph glyph-name="Yacute" horiz-adv-x="501" 
d="M400 671q3 -26 6.5 -63t6.5 -70l9 9l44 53q19 23 40 47.5t43 48t44 43t43 33.5l-1 -1q23 10 51 10q20 0 36.5 -9t14.5 -32q-2 -30 -24 -67t-51.5 -74.5t-60 -71.5t-49.5 -59q-42 -58 -81.5 -108.5t-76.5 -101t-72.5 -104.5t-69.5 -117l8 -6q2 0 7.5 -11.5t4.5 -25.5
q0 -13 -14 -27h1q-34 -30 -73 -43t-74 -13q-24 0 -44.5 5t-35.5 13.5t-23.5 20t-8.5 25.5q2 12 7 21q24 48 58 94.5t69 93.5l88 118q-2 -1 -6 -1q-14 0 -20 13t-4 32q0 7 1 15.5t3 16.5q5 53 11 113t21 126q3 22 17.5 43.5t34 38.5t41 27.5t39.5 10.5q15 0 25 -10t12 -33z
M584 1003q15 7 38 7q14 0 28 -3t24.5 -8.5t16.5 -13.5t6 -19q-1 -9 -9.5 -25.5t-22.5 -31.5q-126 -105 -191 -105q-14 0 -24 5t-10 18q1 6 3.5 14.5t9.5 18.5v-1l7 7q8 24 24.5 47.5t35.5 43t36.5 32t26.5 14.5h1z" />
    <glyph glyph-name="Thorn" horiz-adv-x="843" 
d="M452 751q5 14 5.5 14.5l2.5 2.5v-1l4 6v5q2 20 26.5 45t75.5 45l6 1q13 2 25.5 3t23.5 1q26 0 46 -10t32 -41v1q0 -2 -0.5 -3t-0.5 -3q-1 -16 -12 -33.5t-22 -33.5q1 -5 2 -9.5t1 -10.5q-1 -15 -12 -34t-27.5 -40t-34.5 -43.5t-33 -44.5l44 2q24 3 50 3q53 0 90 -11
t60 -31t32.5 -48t8.5 -61q-2 -40 -18.5 -86t-46 -91t-71.5 -87t-95 -74q-53 -30 -105 -40.5t-98 -10.5q-32 0 -65.5 -2.5t-65.5 -2.5q-11 0 -20 0.5t-17 1.5q-42 -72 -87.5 -144.5t-95.5 -141.5q-5 -8 -14 -12t-18 -4q-11 0 -21.5 4.5t-18.5 13t-13 21t-4 28.5q2 28 20 61
q40 100 86.5 193t96 183t99.5 179t97 180h-1q23 44 44.5 89t37.5 71h1zM578 388q-1 -1 -5 -1q-8 0 -19 4t-22.5 8.5t-23 8.5t-21.5 4q-9 -6 -16.5 -15t-16.5 -20.5t-20.5 -26t-28.5 -31.5l-72 -130l7 -11q5 -8 10 -16.5t9 -16.5q8 0 19.5 -1t24.5 -1q42 0 75 26.5t56 64
t36 79t15 70.5z" />
    <glyph glyph-name="eth" horiz-adv-x="677" 
d="M506 425q-11 20 -21 38.5t-26 35.5q-37 -17 -75.5 -31.5t-65.5 -15.5q-3 1 -3 5q1 9 19.5 28t43.5 42l6 5q6 8 12.5 12t12.5 8l16 12q-38 24 -64.5 48t-25.5 43q2 24 55 37q32 -2 58.5 -14t67.5 -26q-4 -6 -4 -5h2h9l19 11q38 24 72.5 42.5t65.5 18.5q13 0 29 -6.5
t29.5 -17.5t23 -25t8.5 -29q-1 -23 -23.5 -45.5t-67.5 -39.5l-17 9q20 -34 31 -61.5t15 -56t3.5 -61t-2.5 -77.5q-2 -41 -8 -83.5t-18 -82.5t-30 -74.5t-45 -57.5q-41 -36 -96.5 -64t-115 -47.5t-116.5 -30.5t-102 -12q-6 0 -18.5 8t-25.5 19t-22 22.5t-9 18.5
q-22 12 -37.5 29.5t-28.5 37.5v-1q-20 40 -17 90q2 40 21 80.5t49.5 76.5t70 66.5t82.5 50.5q52 22 93 34t91 21l17 2q14 2 28 3.5t28 2.5zM396 90q55 54 84.5 113t37.5 117h-11q-17 -1 -33 -2t-32 -3q-25 -4 -57 -13t-66 -22.5t-67 -32t-59 -41t-43 -49t-18 -55.5
q-3 -41 29 -86v1l6 -8q11 -10 34 -10q22 0 48 6.5t52 18t50.5 28.5t44.5 38zM349 449q-1 0 -4.5 -0.5t-4.5 -0.5q1 9 3.5 10.5t6.5 1.5z" />
    <glyph glyph-name="yacute" horiz-adv-x="589" 
d="M103 373q-2 6 0 12q2 32 20.5 45.5t42.5 13.5q16 0 33 -6t32.5 -16.5t28 -25t18.5 -32.5q-2 -24 -17 -55t-33 -64.5t-33.5 -68.5t-18.5 -66q34 19 61.5 51.5t51.5 69.5t46 73.5t46 65.5q5 7 16 21.5t24 29t26 25.5t23 11q7 0 17.5 -2t22 -5t23 -5t20.5 -2q10 0 15 3
q18 11 27 13.5t17 2.5q23 0 43 -13t18 -36q-1 -12 -10.5 -21.5t-26.5 -20.5q-31 -29 -65.5 -70.5t-68 -88t-64.5 -94t-56 -87.5l-20 -32q17 -12 27.5 -28t9.5 -34q0 -9 -3.5 -18.5t-8.5 -18.5q-36 -26 -58.5 -47t-36 -39t-20.5 -32.5t-11 -27.5q-4 -9 -11 -22.5t-18 -25.5
t-26.5 -20.5t-36.5 -8.5q-15 0 -31 6.5t-29 18t-21 27t-7 32.5q2 23 16 46t32 46l20 27q14 20 27.5 41t29.5 41l17 26l-5 6q-23 -11 -44.5 -18.5t-43.5 -7.5q-16 0 -32.5 5t-29.5 16.5t-21 30t-6 46.5q1 31 10.5 68t21 75.5t20.5 74.5t11 65v12.5t-1 11.5zM533 714
q15 7 38 7q14 0 28 -3t24.5 -8.5t16.5 -13.5t6 -19q-1 -9 -9.5 -25.5t-22.5 -31.5q-126 -105 -191 -105q-14 0 -24 5t-10 18q1 6 3.5 14.5t9.5 18.5v-1l7 7q8 24 24.5 47.5t35.5 43t36.5 32t26.5 14.5h1z" />
    <glyph glyph-name="thorn" horiz-adv-x="540" 
d="M74 -196q0 -1 -0.5 -1.5t-0.5 -1.5v-1l-7 -14q1 -3 1 -8q-1 -15 -21.5 -33.5t-64.5 -36.5l-6 -4l1 1q-19 -4 -35.5 -6.5t-30.5 -2.5q-21 0 -38.5 6.5t-31.5 24.5l1 -1q-2 2 -1.5 5t0.5 5q0 9 5 19t12 19v-1l6 8q-8 10 -8 25q1 6 3 13t7 15v-1q27 32 49 68t44 74l18 30
q11 19 19.5 37.5t19.5 38.5l23 43q27 71 59.5 145.5t67 145.5t70 134t68 110.5t60.5 75t49 27.5q4 0 16 -5q13 28 32.5 42.5t38.5 14.5t33 -15t12 -41q-2 -28 -16.5 -52.5t-31.5 -49.5l-24 -34q-37 -60 -71 -118t-67 -117l6 -5l12 7q32 18 67 29t66 10q51 0 77 -23.5
t24 -69.5q-2 -35 -17 -75.5t-40 -81t-57.5 -78t-68.5 -66.5t-74 -46.5t-73 -17.5q-50 0 -96 46q-6 -12 -12.5 -29.5t-12.5 -30.5l-10 -21l-16 -45v1q-8 -22 -16 -43t-19 -42v-2zM259 144q-20 -35 -26 -57t-9 -36q9 7 32.5 30t49 50t46.5 53.5t23 42.5q1 10 -4 25t-18 15
q-12 0 -27 -17t-29 -38.5t-25 -41.5t-14 -26h1z" />
    </font>
</defs>
</svg>
